<?xml version="1.0" standalone="no"?>
<!DOCTYPE svg PUBLIC "-//W3C//DTD SVG 1.1//EN" "http://www.w3.org/Graphics/SVG/1.1/DTD/svg11.dtd" >
<svg xmlns="http://www.w3.org/2000/svg" xmlns:xlink="http://www.w3.org/1999/xlink" version="1.1">
<metadata>
Created by FontForge 20170731 at Mon Jun  6 19:49:57 2022
 By Aleksey,,,
Copyright 2022, Kris Sowersby, Klim Type Foundry.
</metadata>
<defs>
<font id="MaelstromSans-Bold" horiz-adv-x="1400" >
  <font-face 
    font-family="Maelstrom Sans Bold"
    font-weight="700"
    font-stretch="normal"
    units-per-em="2048"
    panose-1="2 6 8 3 9 9 3 4 4 1"
    ascent="1589"
    descent="-459"
    x-height="1434"
    cap-height="1434"
    bbox="-614.011 -498 2994 1911"
    underline-thickness="102"
    underline-position="-307"
    unicode-range="U+0020-2265"
  />
<missing-glyph horiz-adv-x="2148" 
d="M1944 922v-109q-48 -14 -105 -14q-164 0 -164 164v243h-69v101h69v127h146v-127h110v-101h-110v-227q0 -66 57 -66q22 0 66 9zM633 1307v-78q20 42 59 67t94 25q89 0 138 -52t49 -143v-319h-148v287q0 114 -90 114q-47 0 -74.5 -32.5t-27.5 -98.5v-270h-146v500h146z
M1049 1059q0 120 71.5 191t188.5 71t188.5 -71t71.5 -191q0 -121 -71.5 -191.5t-188.5 -70.5t-188.5 70.5t-71.5 191.5zM1192 1059q0 -75 30 -117.5t87 -42.5q55 0 84.5 42.5t29.5 117.5q0 74 -29.5 114.5t-84.5 40.5q-58 0 -87.5 -40t-29.5 -115zM205 807v164h166v-164
h-166zM1944 590q-39 8 -66 8q-57 0 -57 -68v-28h110v-101h-110v-401h-146v401h-69v101h69v47q0 79 41 121.5t123 42.5q55 0 105 -17v-106zM827 80q-18 -40 -59.5 -66t-95.5 -26q-99 0 -159 72t-60 190t60 191t159 73q53 0 93 -25.5t60 -64.5v283h148v-707h-146v80zM1556 158
q-22 -81 -84 -125.5t-159 -44.5q-116 0 -190 70.5t-74 189.5t76 191.5t188 72.5q121 0 186.5 -73.5t65.5 -180.5v-45h-377q15 -123 125 -123q80 0 104 68h139zM1313 410q-49 0 -80.5 -28.5t-42.5 -80.5h233q-2 46 -30 77.5t-80 31.5zM829 258q0 71 -30.5 110.5t-85.5 39.5
t-86 -42.5t-31 -115.5t31 -116.5t86 -43.5t85.5 41t30.5 111v16z" />
    <glyph glyph-name=".notdef" horiz-adv-x="2148" 
d="M1944 922v-109q-48 -14 -105 -14q-164 0 -164 164v243h-69v101h69v127h146v-127h110v-101h-110v-227q0 -66 57 -66q22 0 66 9zM633 1307v-78q20 42 59 67t94 25q89 0 138 -52t49 -143v-319h-148v287q0 114 -90 114q-47 0 -74.5 -32.5t-27.5 -98.5v-270h-146v500h146z
M1049 1059q0 120 71.5 191t188.5 71t188.5 -71t71.5 -191q0 -121 -71.5 -191.5t-188.5 -70.5t-188.5 70.5t-71.5 191.5zM1192 1059q0 -75 30 -117.5t87 -42.5q55 0 84.5 42.5t29.5 117.5q0 74 -29.5 114.5t-84.5 40.5q-58 0 -87.5 -40t-29.5 -115zM205 807v164h166v-164
h-166zM1944 590q-39 8 -66 8q-57 0 -57 -68v-28h110v-101h-110v-401h-146v401h-69v101h69v47q0 79 41 121.5t123 42.5q55 0 105 -17v-106zM827 80q-18 -40 -59.5 -66t-95.5 -26q-99 0 -159 72t-60 190t60 191t159 73q53 0 93 -25.5t60 -64.5v283h148v-707h-146v80zM1556 158
q-22 -81 -84 -125.5t-159 -44.5q-116 0 -190 70.5t-74 189.5t76 191.5t188 72.5q121 0 186.5 -73.5t65.5 -180.5v-45h-377q15 -123 125 -123q80 0 104 68h139zM1313 410q-49 0 -80.5 -28.5t-42.5 -80.5h233q-2 46 -30 77.5t-80 31.5zM829 258q0 71 -30.5 110.5t-85.5 39.5
t-86 -42.5t-31 -115.5t31 -116.5t86 -43.5t85.5 41t30.5 111v16z" />
    <glyph glyph-name=".null" horiz-adv-x="0" 
 />
    <glyph glyph-name="nonmarkingreturn" horiz-adv-x="682" 
 />
    <glyph glyph-name="space" unicode=" " horiz-adv-x="512" 
 />
    <glyph glyph-name="exclam" unicode="!" horiz-adv-x="473" 
d="M467 1434v-439q-79 0 -126 -46.5t-73 -168t-26 -331.5h-11q0 210 -26 331.5t-73 168t-126 46.5v439h461zM467 438v-438h-461v438h461z" />
    <glyph glyph-name="quotedbl" unicode="&#x22;" horiz-adv-x="946" 
d="M940 1434v-439q-42 0 -69 -3t-55.5 -11.5t-45 -26t-30 -46t-19.5 -71.5t-6 -102h-10q0 71 -10 118.5t-26 75.5t-46.5 43t-61.5 19t-82 4v439h461zM467 1434v-439q-42 0 -69 -3t-55.5 -11.5t-45 -26t-30 -46t-19.5 -71.5t-6 -102h-11q0 59 -6 102t-19.5 71.5t-30 46
t-45 26t-55.5 11.5t-69 3v439h461z" />
    <glyph glyph-name="numbersign" unicode="#" horiz-adv-x="1173" 
d="M6 0l264 498h-264v8h268l222 422h-367v8h371l264 498h10l-264 -498h383l264 498h10l-264 -498h264v-8h-268l-221 -422h366v-8h-370l-264 -498h-11l265 498h-383l-265 -498h-10zM889 928h-383l-221 -422h383z" />
    <glyph glyph-name="dollar" unicode="$" horiz-adv-x="1368" 
d="M598 1573h8v-121q18 2 53 2q55 0 82 -2v121h9v-123q294 -21 445 -181t151 -429h-9q0 47 -17.5 78.5t-53 47.5t-79.5 22.5t-108 6.5h-329v-274h342q130 0 200 -67.5t70 -180.5q0 -130 -74.5 -238t-215 -176t-322.5 -77v-107h-9v107q-16 -2 -49 -2q-57 0 -86 2v-107h-8v109
q-292 23 -442 182t-150 428h8q0 -91 64 -123.5t194 -32.5h326v275h-319q-130 0 -200.5 67.5t-70.5 180.5q0 198 161 337t429 154v121zM279 721h319v274h-324q-186 0 -186 -133q0 -65 48 -103t143 -38zM606 721h135v274h-135v-274zM606 438h135v275h-135v-275zM1092 713h-342
v-275h346q186 0 186 133q0 66 -47.5 104t-142.5 38z" />
    <glyph glyph-name="percent" unicode="%" horiz-adv-x="1177" 
d="M6 1100q0 52 12.5 102t40 96t67.5 80.5t98.5 55t129.5 20.5q87 0 155.5 -31t109 -82.5t61 -113t20.5 -127.5t-20.5 -128t-61 -114t-109 -83.5t-155.5 -31.5q-71 0 -129.5 21t-98.5 56t-67.5 81t-40 96.5t-12.5 102.5zM1120 1434h10l-1073 -1434h-10zM692 1100
q0 25 -10 42t-22.5 25.5t-37 13t-39.5 5t-44 0.5h-369q-29 0 -44.5 -0.5t-40.5 -5t-38 -13t-23 -25.5t-10 -42q0 -21 5.5 -36.5t19.5 -25t25 -14.5t34.5 -7t34.5 -2.5t37 -0.5h367q26 0 37 0.5t34 2.5t34 7t25 14.5t19.5 25t5.5 36.5zM825 -18q-88 0 -157 31.5t-109.5 83.5
t-61 113.5t-20.5 127.5q0 52 12.5 102t40 96t67.5 80.5t98.5 55t129.5 20.5q87 0 155.5 -31t109 -82.5t61 -113t20.5 -127.5t-20.5 -127.5t-61 -113.5t-109 -83.5t-155.5 -31.5zM1008 252q26 0 37 0.5t34 2.5t34 7t25 14.5t19.5 25t5.5 36.5q0 25 -10 42t-22.5 25.5t-37 13
t-39.5 5t-44 0.5h-369q-29 0 -44.5 -0.5t-40.5 -5t-38 -13t-23 -25.5t-10 -42q0 -21 5.5 -36.5t19.5 -25t25 -14.5t34.5 -7t34.5 -2.5t37 -0.5h367z" />
    <glyph glyph-name="ampersand" unicode="&#x26;" horiz-adv-x="1624" 
d="M680 485q-18 -12 -21.5 -25.5t2 -25.5t19.5 -28l240 -275q52 35 113 123.5t79 183.5h506q0 -112 -36 -202t-95 -144.5t-131.5 -83t-149.5 -28.5q-54 0 -101 13t-83 37t-57.5 43.5t-46.5 47.5q-112 -68 -171 -92q-136 -56 -307 -56q-193 0 -313.5 108t-120.5 253
q0 147 93.5 240t254.5 122q52 8 23 43q-38 45 -52.5 62t-38.5 50.5t-32 55t-15.5 54t-7.5 69.5q0 184 145 304t374 120q253 0 383.5 -115.5t130.5 -308.5q0 -91 -46.5 -152.5t-130.5 -117.5zM393 733q11 -13 24.5 -18.5t41.5 -1.5l585 88q68 10 121.5 37t53.5 75t-29 65
t-78 17h-686q-67 0 -101 -24.5t-34 -65.5q0 -38 18.5 -68.5t83.5 -103.5zM575 416l-262 -176q-38 -25 -54 -36.5t-36.5 -30t-27.5 -36t-7 -39.5q0 -32 26 -56t67 -36t81 -18t78 -6q82 0 149 10.5t127 34t98 43.5t99 57l-247 283q-38 41 -91 6z" />
    <glyph glyph-name="quotesingle" unicode="'" horiz-adv-x="473" 
d="M467 1434v-439q-42 0 -69 -3t-55.5 -11.5t-45 -26t-30 -46t-19.5 -71.5t-6 -102h-11q0 59 -6 102t-19.5 71.5t-30 46t-45 26t-55.5 11.5t-69 3v439h461z" />
    <glyph glyph-name="parenleft" unicode="(" horiz-adv-x="612" 
d="M6 717q0 165 84 323.5t220.5 272t295.5 162.5v-7q-34 -15 -56 -29.5t-40 -29.5t-28 -39.5t-17 -46.5t-9.5 -66t-3.5 -82.5t-1 -109.5v-696q0 -62 0.5 -97t3 -76.5t6 -62.5t11.5 -47t18.5 -39t28 -29.5t38 -28t49.5 -24.5v-6q-159 49 -295.5 162.5t-220.5 272t-84 323.5z
" />
    <glyph glyph-name="parenright" unicode=")" horiz-adv-x="612" 
d="M606 717q0 -165 -84 -323.5t-220.5 -272t-295.5 -162.5v6q39 18 63.5 33t43.5 40t27.5 46.5t14 69t6.5 90.5t1 125v696q0 82 -1 125t-6.5 90t-14 69t-27.5 47t-43.5 39.5t-63.5 32.5v7q159 -49 295.5 -162.5t220.5 -272t84 -323.5z" />
    <glyph glyph-name="asterisk" unicode="*" horiz-adv-x="643" 
d="M313 1071l-307 176l4 8l307 -178v355h9v-355l307 176l4 -6l-307 -176l307 -176l-4 -6l-307 176v-354h-9v354l-307 -178l-4 8z" />
    <glyph glyph-name="plus" unicode="+" horiz-adv-x="843" 
d="M82 711v12h334v334h12v-334h334v-12h-334v-334h-12v334h-334z" />
    <glyph glyph-name="comma" unicode="," horiz-adv-x="473" 
d="M459 0h-453v438h461v-438q0 -108 -66.5 -198.5t-183.5 -114.5v8q110 22 176 110.5t66 194.5z" />
    <glyph glyph-name="hyphen" unicode="-" horiz-adv-x="354" 
d="M6 713v8h342v-8h-342z" />
    <glyph glyph-name="period" unicode="." horiz-adv-x="473" 
d="M467 438v-438h-461v438h461z" />
    <glyph glyph-name="slash" unicode="/" horiz-adv-x="849" 
d="M840 1434h10l-840 -1434h-10z" />
    <glyph glyph-name="zero" unicode="0" horiz-adv-x="1495" 
d="M748 1454q203 0 372 -93.5t269 -263t100 -378.5t-100 -378.5t-269 -263t-372 -93.5q-151 0 -287.5 55t-236.5 151t-159 234t-59 295t59 295t159 234t236.5 151t287.5 55zM1186 999h-877q-133 0 -214 -71.5t-81 -208.5q0 -138 81 -209.5t214 -71.5h877q133 0 214 71.5
t81 209.5q0 137 -81 208.5t-214 71.5z" />
    <glyph glyph-name="one" unicode="1" horiz-adv-x="907" 
d="M901 0h-8v872q0 37 -20 50t-54 -4l-813 -404v492l895 448v-1454z" />
    <glyph glyph-name="two" unicode="2" horiz-adv-x="1339" 
d="M516 94q0 -44 17.5 -65t60.5 -21h739v-8h-1327q0 74 15 138t36.5 114t66 96t81.5 78t105 66t115.5 54.5t135.5 47.5t141 42t154 42l123 33q152 41 215 78t63 106q0 51 -35.5 75.5t-111.5 24.5h-930q-32 0 -53.5 -4.5t-44.5 -19t-35 -47.5t-12 -84h-8q0 278 187 446
t505 168q286 0 450 -129t164 -326q0 -47 -9.5 -83.5t-32 -65t-48.5 -48.5t-71.5 -39t-87.5 -32t-109 -31l-115 -30q-86 -23 -148 -62t-99.5 -87.5t-59.5 -118t-29.5 -140.5t-7.5 -168z" />
    <glyph glyph-name="three" unicode="3" horiz-adv-x="1398" 
d="M1118 713h-842v8h842q98 0 148.5 42t50.5 103t-42.5 95t-127.5 34h-987q-62 0 -104 -35.5t-42 -119.5h-8q0 282 190.5 448t546.5 166q187 0 333.5 -56.5t231.5 -165t85 -251.5q0 -100 -59.5 -174.5t-159.5 -89.5q100 -15 159.5 -89.5t59.5 -174.5q0 -143 -85.5 -251.5
t-232 -165t-332.5 -56.5q-356 0 -546.5 166t-190.5 448h8q0 -84 42 -120t104 -36h987q84 0 127 34.5t43 96.5q0 61 -50.5 102.5t-148.5 41.5z" />
    <glyph glyph-name="four" unicode="4" horiz-adv-x="1437" 
d="M6 971l963 483v-930q0 -43 21 -60.5t65 -17.5h377v-8h-377q-44 0 -65 -17.5t-21 -60.5v-360h-8v360q0 43 -21 60.5t-66 17.5h-868v533zM961 872q0 37 -20 50t-54 -4l-860 -426q-19 -10 -14.5 -28t20.5 -18h841q45 0 66 17.5t21 60.5v348z" />
    <glyph glyph-name="five" unicode="5" horiz-adv-x="1388" 
d="M555 1425q-43 0 -60.5 -21t-17.5 -65v-495q0 -44 17.5 -65t60.5 -21h561q67 0 118.5 -25.5t81.5 -67.5t45 -91t15 -101q0 -223 -177 -358t-484 -135q-329 0 -519 168t-190 446h8q0 -52 12.5 -84.5t39 -47.5t53 -19.5t69.5 -4.5h942q82 0 126 44t44 108q0 65 -44.5 112.5
t-139.5 47.5h-1110v684h1366v-9h-817z" />
    <glyph glyph-name="six" unicode="6" horiz-adv-x="1398" 
d="M41 524q6 94 67 145.5t168 51.5h857q132 0 196 -68.5t64 -177.5q0 -97 -47.5 -187t-130.5 -158t-204.5 -109t-260.5 -41q-227 0 -397.5 97t-258.5 263t-88 377q0 112 29.5 219t90.5 201t146.5 164.5t205 111.5t257.5 41q297 0 477.5 -169t180.5 -445h-9q0 51 -12 84
t-35 47.5t-44.5 19t-53.5 4.5h-950q-131 0 -203 -69.5t-72 -208.5q0 -117 27 -193zM92 573q0 -135 184 -135h871q84 0 127 35.5t43 97.5t-43.5 102t-140.5 40h-857q-97 0 -140.5 -39t-43.5 -101z" />
    <glyph glyph-name="seven" unicode="7" horiz-adv-x="1269" 
d="M1233 1425h-1227v9h1258v-684l-594 -750h-545l1120 1393q10 13 6.5 22.5t-18.5 9.5z" />
    <glyph glyph-name="eight" unicode="8" horiz-adv-x="1368" 
d="M684 -20q-150 0 -279.5 38t-215.5 99.5t-134.5 139.5t-48.5 159q0 53 15 91.5t39.5 64t70 44t92.5 29.5t121 23l313 49l-313 49q-75 12 -124 24t-93 30.5t-68.5 44.5t-38.5 63.5t-14 89.5q0 81 48.5 159t134.5 139.5t215.5 99.5t279.5 38t279.5 -38t215.5 -99.5
t134.5 -139.5t48.5 -159q0 -53 -15 -91.5t-39.5 -64t-70 -44t-92.5 -29.5t-121 -23l-313 -49l313 -49q74 -12 121 -23t92.5 -29.5t70 -44t39.5 -64t15 -91.5q0 -81 -48.5 -159t-134.5 -139.5t-215.5 -99.5t-279.5 -38zM205 995q-137 0 -137 -75q0 -60 70.5 -92t219.5 -56
l326 -51l326 51q149 24 219.5 56t70.5 92q0 75 -137 75h-958zM205 438h958q137 0 137 76q0 60 -70.5 92t-219.5 56l-326 51l-326 -51q-149 -24 -219.5 -56t-70.5 -92q0 -76 137 -76z" />
    <glyph glyph-name="nine" unicode="9" horiz-adv-x="1398" 
d="M1358 909q-6 -94 -67.5 -145t-168.5 -51h-856q-132 0 -196 68t-64 177q0 97 47.5 187t130.5 158.5t204.5 109.5t260.5 41q227 0 397.5 -97t258.5 -263t88 -377q0 -112 -29.5 -219t-90.5 -201t-146.5 -164.5t-205 -111.5t-257.5 -41q-297 0 -477.5 169t-180.5 445h8
q0 -51 12 -84t35.5 -48t45.5 -19.5t53 -4.5h950q131 0 202.5 70t71.5 209q0 119 -26 192zM1307 860q0 61 -43.5 98t-141.5 37h-870q-84 0 -127 -35.5t-43 -97.5t43.5 -101.5t140.5 -39.5h856q97 0 141 38.5t44 100.5z" />
    <glyph glyph-name="colon" unicode=":" horiz-adv-x="473" 
d="M467 1053v-439h-461v439h461zM467 438v-438h-461v438h461z" />
    <glyph glyph-name="semicolon" unicode=";" horiz-adv-x="473" 
d="M467 1053v-439h-461v439h461zM459 0h-453v438h461v-438q0 -108 -66.5 -198.5t-183.5 -114.5v8q110 22 176 110.5t66 194.5z" />
    <glyph glyph-name="less" unicode="&#x3c;" horiz-adv-x="632" 
d="M61 705v16l510 315v-16l-495 -307l495 -307v-17z" />
    <glyph glyph-name="equal" unicode="=" horiz-adv-x="843" 
d="M82 836v12h680v-12h-680zM82 590v12h680v-12h-680z" />
    <glyph glyph-name="greater" unicode="&#x3e;" horiz-adv-x="632" 
d="M571 721v-16l-510 -316v17l496 307l-496 307v16z" />
    <glyph glyph-name="question" unicode="?" horiz-adv-x="1249" 
d="M629 451h-8q0 107 44.5 163t125.5 84q220 75 257 91q94 41 113 88q6 16 6 36q0 82 -108 82h-899q-32 0 -53.5 -4.5t-45 -19t-35.5 -47.5t-12 -84h-8q0 614 660 614q272 0 424.5 -128.5t152.5 -326.5q0 -32 -4.5 -57t-17.5 -46.5t-25.5 -37.5t-39.5 -32t-48 -26.5
t-62 -25.5t-71 -25t-85 -27.5t-95 -31.5q-78 -27 -122 -80.5t-44 -158.5zM856 438v-438h-461v438h461z" />
    <glyph glyph-name="at" unicode="@" horiz-adv-x="1482" 
d="M741 -20q-133 0 -251 41t-205 112.5t-151 164.5t-96 200.5t-32 218.5t32 218.5t96 200.5t151 164.5t205 112.5t251 41t251 -41t205.5 -112.5t151 -164.5t96 -200.5t32.5 -218.5q0 -117 -19 -228t-60 -189.5t-95 -78.5q-70 0 -70 109v286q-14 -84 -51 -157.5t-97 -133
t-150.5 -94t-201.5 -34.5q-127 0 -227.5 45.5t-160 121.5t-90 166t-30.5 187q0 96 30.5 186t90 165.5t160 121t227.5 45.5q111 0 201.5 -34.5t150.5 -94.5t97 -133.5t51 -157.5v359h8v-844q0 -101 62 -101q49 0 87.5 76.5t58 186.5t19.5 225q0 138 -51 268t-142.5 233
t-230.5 165.5t-303 62.5t-303 -62.5t-230.5 -165.5t-142.5 -233t-51 -268t51 -268t142.5 -233t230.5 -165.5t303 -62.5q220 0 398 112l4 -6q-176 -114 -402 -114zM461 590h545h46t43.5 2.5t44 7t36 13.5t31.5 22.5t18 34t8 47.5q0 31 -8.5 53.5t-28 36t-37 21.5t-49 11.5
t-49.5 4t-53 0.5h-547q-30 0 -46 -0.5t-44 -2.5t-44 -7t-36.5 -14t-31 -22t-18.5 -34t-8 -47q0 -31 8.5 -54t28.5 -36.5t37 -21.5t50 -11t50 -3.5t54 -0.5z" />
    <glyph glyph-name="A" unicode="A" horiz-adv-x="1634" 
d="M1380 434q-29 53 -90 53h-465q-60 0 -90 -55l-243 -432h-492l817 1454l817 -1454h-8zM1319 545l-234 411q-11 20 -30 20t-29 -20l-229 -411q-11 -20 -4 -34.5t30 -14.5h469q23 0 30.5 14.5t-3.5 34.5z" />
    <glyph glyph-name="B" unicode="B" horiz-adv-x="1462" 
d="M981 1434q241 0 361 -101t120 -278q0 -150 -103.5 -244t-287.5 -94q184 0 287.5 -93t103.5 -239q0 -181 -119.5 -283t-361.5 -102h-975v1434h975zM1051 721q120 0 190 39t70 110q0 125 -174 125h-1037q-45 0 -65.5 -17t-20.5 -60v-111q0 -44 17.5 -65t60.5 -21h959z
M92 713q-43 0 -60.5 -21t-17.5 -65v-111q0 -43 21 -60.5t65 -17.5h1037q174 0 174 125q0 71 -70 110.5t-190 39.5h-959z" />
    <glyph glyph-name="C" unicode="C" horiz-adv-x="1527" 
d="M14 717q0 -138 79 -208.5t222 -70.5h940q130 0 194 32.5t64 123.5h9q0 -138 -57.5 -255t-155 -194.5t-226 -121t-270.5 -43.5q-151 0 -282.5 41t-226 112t-163 165t-102 201t-33.5 218t33.5 218t102 201t163 165t226 112t282.5 41q142 0 270.5 -43.5t226 -121t155 -194.5
t57.5 -255h-9q0 47 -17.5 78.5t-53 47.5t-79.5 22.5t-108 6.5h-940q-143 0 -222 -70t-79 -208z" />
    <glyph glyph-name="D" unicode="D" horiz-adv-x="1433" 
d="M670 0h-664v1434h664q137 0 258.5 -39t211.5 -107.5t155.5 -158.5t98.5 -195.5t33 -216.5t-33 -216.5t-98.5 -195.5t-155.5 -158.5t-211.5 -107.5t-258.5 -39zM100 438h1039q280 0 280 279q0 278 -280 278h-1039q-45 0 -65.5 -17t-20.5 -60v-402q0 -43 21 -60.5t65 -17.5
z" />
    <glyph glyph-name="E" unicode="E" 
d="M1395 0h-1389v1434h1389v-439h-1295q-45 0 -65.5 -17t-20.5 -60v-111q0 -44 17.5 -65t60.5 -21h1303v-8h-1303q-43 0 -60.5 -21t-17.5 -65v-111q0 -43 21 -60.5t65 -17.5h1295v-438z" />
    <glyph glyph-name="F" unicode="F" 
d="M14 0h-8v1434h1389v-439h-1295q-45 0 -65.5 -17t-20.5 -60v-111q0 -44 17.5 -65t60.5 -21h1303v-8h-1303q-43 0 -60.5 -21t-17.5 -65v-627z" />
    <glyph glyph-name="G" unicode="G" horiz-adv-x="1527" 
d="M1436 713h-623v8h709v-721h-9v528q-24 -172 -126.5 -298t-250.5 -188t-323 -62q-151 0 -282.5 41t-226 112t-163 165t-102 201t-33.5 218t33.5 218t102 201t163 165t226 112t282.5 41q142 0 270.5 -43.5t226 -121t155 -194.5t57.5 -255h-9q0 47 -17.5 78.5t-53 47.5
t-79.5 22.5t-108 6.5h-940q-143 0 -222 -70t-79 -208t79 -208.5t222 -70.5h940q130 0 194 32.5t64 123.5v33q0 45 -17 65.5t-60 20.5z" />
    <glyph glyph-name="H" unicode="H" 
d="M14 1434v-414q0 -44 17.5 -65t60.5 -21h1217q43 0 60 20.5t17 65.5v414h9v-1434h-9v410q0 45 -17 65.5t-60 20.5h-1217q-43 0 -60.5 -21t-17.5 -65v-410h-8v1434h8z" />
    <glyph glyph-name="I" unicode="I" horiz-adv-x="905" 
d="M457 918v-402q0 -43 21 -60.5t65 -17.5h356v-438h-893v438h356q45 0 66 17.5t21 60.5v402q0 43 -21 60t-66 17h-356v439h893v-439h-356q-45 0 -65.5 -17t-20.5 -60z" />
    <glyph glyph-name="J" unicode="J" horiz-adv-x="1298" 
d="M1282 717v717h10v-840q0 -150 -47.5 -267.5t-133.5 -193t-203 -114.5t-259 -39t-259 39t-203 114.5t-133.5 193t-47.5 267.5h8q0 -42 10.5 -71t28 -45.5t49.5 -25.5t63.5 -11.5t82.5 -2.5h796q131 0 184.5 66.5t53.5 212.5z" />
    <glyph glyph-name="K" unicode="K" horiz-adv-x="1472" 
d="M86 844l713 590h674l-785 -635q-25 -21 -24 -45.5t24 -44.5l782 -709h-12l-778 705q-49 46 -96 8l-549 -445q-21 -18 -21 -49v-219h-8v1434h8v-572q0 -33 20.5 -38.5t51.5 20.5z" />
    <glyph glyph-name="L" unicode="L" 
d="M14 1434v-918q0 -43 21 -60.5t65 -17.5h1295v-438h-1389v1434h8z" />
    <glyph glyph-name="M" unicode="M" horiz-adv-x="1695" 
d="M477 1405v-1405h-471v1434h506l289 -760q7 -22 28.5 -22t30.5 22l305 760h525v-1434h-9v1405q0 19 -14.5 20t-21.5 -16l-588 -1429l-543 1429q-6 17 -21.5 16t-15.5 -20z" />
    <glyph glyph-name="N" unicode="N" horiz-adv-x="1505" 
d="M6 1458l959 -944q23 -21 43 -15t20 33v902h471v-1459l-958 945q-23 21 -43.5 14.5t-20.5 -33.5v-901h-471v1458z" />
    <glyph glyph-name="O" unicode="O" horiz-adv-x="1568" 
d="M1563 717q0 -111 -33.5 -218t-100.5 -201t-159 -165t-217.5 -112t-268.5 -41q-177 0 -326.5 63t-246.5 167t-151 235.5t-54 271.5t54 271.5t151 235.5t246.5 167t326.5 63q143 0 268.5 -41t217.5 -112t159 -165t100.5 -201t33.5 -218zM1554 717q0 138 -79 208t-222 70
h-938q-143 0 -222 -70t-79 -208t79 -208.5t222 -70.5h938q143 0 222 70.5t79 208.5z" />
    <glyph glyph-name="P" unicode="P" horiz-adv-x="1468" 
d="M1069 713h-977q-43 0 -60.5 -21t-17.5 -65v-627h-8v1434h981q481 0 481 -365q0 -159 -112.5 -257.5t-286.5 -98.5zM1057 721q108 0 178 36.5t70 108.5q0 59 -49 94t-144 35h-1012q-45 0 -65.5 -17t-20.5 -60v-111q0 -44 17.5 -65t60.5 -21h965z" />
    <glyph glyph-name="Q" unicode="Q" horiz-adv-x="1568" 
d="M1563 717q0 -160 -69 -304.5t-200 -258.5q-28 -21 2 -56l86 -98h-10l-88 98q-22 26 -55 4q-80 -54 -196.5 -88t-248.5 -34q-177 0 -326.5 63t-246.5 167t-151 235.5t-54 271.5t54 271.5t151 235.5t246.5 167t326.5 63q143 0 268.5 -41t217.5 -112t159 -165t100.5 -201
t33.5 -218zM934 438q25 0 33 18t-13 44l-194 217h10l184 -205q35 -38 64 -56t69 -18h166q143 0 222 70.5t79 208.5t-79 208t-222 70h-938q-143 0 -222 -70t-79 -208t79 -208.5t222 -70.5h619z" />
    <glyph glyph-name="R" unicode="R" horiz-adv-x="1468" 
d="M844 659l624 -659h-12l-629 664q-27 29 -54.5 39t-74.5 10h-606q-43 0 -60.5 -21t-17.5 -65v-627h-8v1434h983q233 0 356 -87.5t123 -277.5q0 -160 -111.5 -258t-285.5 -98h-201q-27 0 -34.5 -18.5t8.5 -35.5zM92 721h967q107 0 176.5 36.5t69.5 108.5q0 59 -48 94
t-143 35h-1014q-45 0 -65.5 -17t-20.5 -60v-111q0 -44 17.5 -65t60.5 -21z" />
    <glyph glyph-name="S" unicode="S" horiz-adv-x="1527" 
d="M758 1454q222 0 394 -73.5t269 -214t97 -326.5h-9q0 47 -17.5 78.5t-53 47.5t-79.5 22.5t-108 6.5h-964q-93 0 -140 -35.5t-47 -97.5q0 -141 191 -141h946q141 0 213 -63.5t72 -176.5q0 -220 -207.5 -360.5t-536.5 -140.5q-221 0 -395.5 73.5t-275.5 214t-101 326.5h8
q0 -91 64 -123.5t194 -32.5h969q93 0 139.5 35.5t46.5 97.5q0 142 -190 142h-946q-140 0 -212.5 67t-72.5 181q0 107 61.5 200t164 156.5t239.5 100t287 36.5z" />
    <glyph glyph-name="T" unicode="T" 
d="M1395 1434v-439h-604q-45 0 -65.5 -17t-20.5 -60v-918h-9v918q0 43 -20.5 60t-65.5 17h-604v439h1389z" />
    <glyph glyph-name="U" unicode="U" horiz-adv-x="1359" 
d="M883 633v801h471v-809q0 -154 -54.5 -278t-150 -203.5t-222 -121.5t-272.5 -42q-194 0 -339 72.5t-227.5 219t-82.5 353.5v809h8v-801q0 -139 34 -246t94 -171t137.5 -96t169.5 -32q204 0 319 134t115 411z" />
    <glyph glyph-name="V" unicode="V" horiz-adv-x="1634" 
d="M0 1434h8l537 -953q11 -20 30 -20t29 20l535 953h495l-817 -1454z" />
    <glyph glyph-name="W" unicode="W" horiz-adv-x="2412" 
d="M1233 719q-22 -36 -2 -74l92 -164q11 -19 29.5 -19.5t29.5 19.5l535 953h496l-818 -1454l-358 638q-12 21 -30 21t-29 -21l-361 -638l-817 1454h8l537 -953q11 -20 30 -20t29 20l332 592q22 36 2 74l-164 287h8l150 -260q12 -21 30 -21t29 21l148 260h495z" />
    <glyph glyph-name="X" unicode="X" horiz-adv-x="1740" 
d="M997 506l-405 -506h-592l657 821q30 42 -14 78l-643 535h12l629 -523q52 -43 102 19l404 504h592l-656 -820q-29 -41 15 -77l643 -535h-12l-629 522q-53 44 -103 -18z" />
    <glyph glyph-name="Y" unicode="Y" horiz-adv-x="1822" 
d="M915 383v-383h-8v383q0 53 -28 86l-879 965h12l574 -631q28 -28 55 2l588 629h594l-879 -965q-29 -34 -29 -86z" />
    <glyph glyph-name="Z" unicode="Z" 
d="M1294 995h-1288v439h1389v-439l-1293 -528q-14 -6 -13.5 -17.5t17.5 -11.5h1289v-438h-1389v438l1292 529q14 6 13.5 17t-17.5 11z" />
    <glyph glyph-name="bracketleft" unicode="[" horiz-adv-x="538" 
d="M408 1466v-1499h124v-8h-526v1516h526v-9h-124z" />
    <glyph glyph-name="backslash" unicode="\" horiz-adv-x="849" 
d="M840 0l-840 1434h10l840 -1434h-10z" />
    <glyph glyph-name="bracketright" unicode="]" horiz-adv-x="538" 
d="M131 1466h-125v9h526v-1516h-526v8h125v1499z" />
    <glyph glyph-name="asciicircum" unicode="^" horiz-adv-x="688" 
d="M340 1454l342 -487h-12l-330 471l-322 -471h-12z" />
    <glyph glyph-name="underscore" unicode="_" horiz-adv-x="968" 
d="M6 -113v9h957v-9h-957z" />
    <glyph glyph-name="grave" unicode="`" horiz-adv-x="1257" 
d="M731 1694l176 -246h-327q-105 0 -168 54t-62 147q0 73 47.5 123.5t128.5 50.5q115 0 205 -129z" />
    <glyph glyph-name="a" unicode="a" horiz-adv-x="1634" 
d="M1380 434q-29 53 -90 53h-465q-60 0 -90 -55l-243 -432h-492l817 1454l817 -1454h-8zM1319 545l-234 411q-11 20 -30 20t-29 -20l-229 -411q-11 -20 -4 -34.5t30 -14.5h469q23 0 30.5 14.5t-3.5 34.5z" />
    <glyph glyph-name="b" unicode="b" horiz-adv-x="1462" 
d="M981 1434q241 0 361 -101t120 -278q0 -150 -103.5 -244t-287.5 -94q184 0 287.5 -93t103.5 -239q0 -181 -119.5 -283t-361.5 -102h-975v1434h975zM1051 721q120 0 190 39t70 110q0 125 -174 125h-1037q-45 0 -65.5 -17t-20.5 -60v-111q0 -44 17.5 -65t60.5 -21h959z
M92 713q-43 0 -60.5 -21t-17.5 -65v-111q0 -43 21 -60.5t65 -17.5h1037q174 0 174 125q0 71 -70 110.5t-190 39.5h-959z" />
    <glyph glyph-name="c" unicode="c" horiz-adv-x="1527" 
d="M14 717q0 -138 79 -208.5t222 -70.5h940q130 0 194 32.5t64 123.5h9q0 -138 -57.5 -255t-155 -194.5t-226 -121t-270.5 -43.5q-151 0 -282.5 41t-226 112t-163 165t-102 201t-33.5 218t33.5 218t102 201t163 165t226 112t282.5 41q142 0 270.5 -43.5t226 -121t155 -194.5
t57.5 -255h-9q0 47 -17.5 78.5t-53 47.5t-79.5 22.5t-108 6.5h-940q-143 0 -222 -70t-79 -208z" />
    <glyph glyph-name="d" unicode="d" horiz-adv-x="1433" 
d="M670 0h-664v1434h664q137 0 258.5 -39t211.5 -107.5t155.5 -158.5t98.5 -195.5t33 -216.5t-33 -216.5t-98.5 -195.5t-155.5 -158.5t-211.5 -107.5t-258.5 -39zM100 438h1039q280 0 280 279q0 278 -280 278h-1039q-45 0 -65.5 -17t-20.5 -60v-402q0 -43 21 -60.5t65 -17.5
z" />
    <glyph glyph-name="e" unicode="e" 
d="M1395 0h-1389v1434h1389v-439h-1295q-45 0 -65.5 -17t-20.5 -60v-111q0 -44 17.5 -65t60.5 -21h1303v-8h-1303q-43 0 -60.5 -21t-17.5 -65v-111q0 -43 21 -60.5t65 -17.5h1295v-438z" />
    <glyph glyph-name="f" unicode="f" 
d="M14 0h-8v1434h1389v-439h-1295q-45 0 -65.5 -17t-20.5 -60v-111q0 -44 17.5 -65t60.5 -21h1303v-8h-1303q-43 0 -60.5 -21t-17.5 -65v-627z" />
    <glyph glyph-name="g" unicode="g" horiz-adv-x="1527" 
d="M1436 713h-623v8h709v-721h-9v528q-24 -172 -126.5 -298t-250.5 -188t-323 -62q-151 0 -282.5 41t-226 112t-163 165t-102 201t-33.5 218t33.5 218t102 201t163 165t226 112t282.5 41q142 0 270.5 -43.5t226 -121t155 -194.5t57.5 -255h-9q0 47 -17.5 78.5t-53 47.5
t-79.5 22.5t-108 6.5h-940q-143 0 -222 -70t-79 -208t79 -208.5t222 -70.5h940q130 0 194 32.5t64 123.5v33q0 45 -17 65.5t-60 20.5z" />
    <glyph glyph-name="h" unicode="h" 
d="M14 1434v-414q0 -44 17.5 -65t60.5 -21h1217q43 0 60 20.5t17 65.5v414h9v-1434h-9v410q0 45 -17 65.5t-60 20.5h-1217q-43 0 -60.5 -21t-17.5 -65v-410h-8v1434h8z" />
    <glyph glyph-name="i" unicode="i" horiz-adv-x="905" 
d="M457 918v-402q0 -43 21 -60.5t65 -17.5h356v-438h-893v438h356q45 0 66 17.5t21 60.5v402q0 43 -21 60t-66 17h-356v439h893v-439h-356q-45 0 -65.5 -17t-20.5 -60z" />
    <glyph glyph-name="j" unicode="j" horiz-adv-x="1298" 
d="M1282 717v717h10v-840q0 -150 -47.5 -267.5t-133.5 -193t-203 -114.5t-259 -39t-259 39t-203 114.5t-133.5 193t-47.5 267.5h8q0 -42 10.5 -71t28 -45.5t49.5 -25.5t63.5 -11.5t82.5 -2.5h796q131 0 184.5 66.5t53.5 212.5z" />
    <glyph glyph-name="k" unicode="k" horiz-adv-x="1472" 
d="M86 844l713 590h674l-785 -635q-25 -21 -24 -45.5t24 -44.5l782 -709h-12l-778 705q-49 46 -96 8l-549 -445q-21 -18 -21 -49v-219h-8v1434h8v-572q0 -33 20.5 -38.5t51.5 20.5z" />
    <glyph glyph-name="l" unicode="l" 
d="M14 1434v-918q0 -43 21 -60.5t65 -17.5h1295v-438h-1389v1434h8z" />
    <glyph glyph-name="m" unicode="m" horiz-adv-x="1695" 
d="M477 1405v-1405h-471v1434h506l289 -760q7 -22 28.5 -22t30.5 22l305 760h525v-1434h-9v1405q0 19 -14.5 20t-21.5 -16l-588 -1429l-543 1429q-6 17 -21.5 16t-15.5 -20z" />
    <glyph glyph-name="n" unicode="n" horiz-adv-x="1505" 
d="M6 1458l959 -944q23 -21 43 -15t20 33v902h471v-1459l-958 945q-23 21 -43.5 14.5t-20.5 -33.5v-901h-471v1458z" />
    <glyph glyph-name="o" unicode="o" horiz-adv-x="1568" 
d="M1563 717q0 -111 -33.5 -218t-100.5 -201t-159 -165t-217.5 -112t-268.5 -41q-177 0 -326.5 63t-246.5 167t-151 235.5t-54 271.5t54 271.5t151 235.5t246.5 167t326.5 63q143 0 268.5 -41t217.5 -112t159 -165t100.5 -201t33.5 -218zM1554 717q0 138 -79 208t-222 70
h-938q-143 0 -222 -70t-79 -208t79 -208.5t222 -70.5h938q143 0 222 70.5t79 208.5z" />
    <glyph glyph-name="p" unicode="p" horiz-adv-x="1468" 
d="M1069 713h-977q-43 0 -60.5 -21t-17.5 -65v-627h-8v1434h981q481 0 481 -365q0 -159 -112.5 -257.5t-286.5 -98.5zM1057 721q108 0 178 36.5t70 108.5q0 59 -49 94t-144 35h-1012q-45 0 -65.5 -17t-20.5 -60v-111q0 -44 17.5 -65t60.5 -21h965z" />
    <glyph glyph-name="q" unicode="q" horiz-adv-x="1568" 
d="M1563 717q0 -117 -38.5 -230.5t-109.5 -209.5t-180 -168.5t-240 -104.5q31 -96 95 -96q84 0 84 160h413q0 -132 -91 -223t-218 -91q-220 0 -293 248q-96 -22 -201 -22q-177 0 -326.5 63t-246.5 167t-151 235.5t-54 271.5t54 271.5t151 235.5t246.5 167t326.5 63
q143 0 268.5 -41t217.5 -112t159 -165t100.5 -201t33.5 -218zM1554 717q0 138 -79 208t-222 70h-938q-143 0 -222 -70t-79 -208t79 -208.5t222 -70.5h938q143 0 222 70.5t79 208.5z" />
    <glyph glyph-name="r" unicode="r" horiz-adv-x="1468" 
d="M844 659l624 -659h-12l-629 664q-27 29 -54.5 39t-74.5 10h-606q-43 0 -60.5 -21t-17.5 -65v-627h-8v1434h983q233 0 356 -87.5t123 -277.5q0 -160 -111.5 -258t-285.5 -98h-201q-27 0 -34.5 -18.5t8.5 -35.5zM92 721h967q107 0 176.5 36.5t69.5 108.5q0 59 -48 94
t-143 35h-1014q-45 0 -65.5 -17t-20.5 -60v-111q0 -44 17.5 -65t60.5 -21z" />
    <glyph glyph-name="s" unicode="s" horiz-adv-x="1527" 
d="M758 1454q222 0 394 -73.5t269 -214t97 -326.5h-9q0 47 -17.5 78.5t-53 47.5t-79.5 22.5t-108 6.5h-964q-93 0 -140 -35.5t-47 -97.5q0 -141 191 -141h946q141 0 213 -63.5t72 -176.5q0 -220 -207.5 -360.5t-536.5 -140.5q-221 0 -395.5 73.5t-275.5 214t-101 326.5h8
q0 -91 64 -123.5t194 -32.5h969q93 0 139.5 35.5t46.5 97.5q0 142 -190 142h-946q-140 0 -212.5 67t-72.5 181q0 107 61.5 200t164 156.5t239.5 100t287 36.5z" />
    <glyph glyph-name="t" unicode="t" 
d="M1395 1434v-439h-604q-45 0 -65.5 -17t-20.5 -60v-918h-9v918q0 43 -20.5 60t-65.5 17h-604v439h1389z" />
    <glyph glyph-name="u" unicode="u" horiz-adv-x="1359" 
d="M883 633v801h471v-809q0 -154 -54.5 -278t-150 -203.5t-222 -121.5t-272.5 -42q-194 0 -339 72.5t-227.5 219t-82.5 353.5v809h8v-801q0 -139 34 -246t94 -171t137.5 -96t169.5 -32q204 0 319 134t115 411z" />
    <glyph glyph-name="v" unicode="v" horiz-adv-x="1634" 
d="M0 1434h8l537 -953q11 -20 30 -20t29 20l535 953h495l-817 -1454z" />
    <glyph glyph-name="w" unicode="w" horiz-adv-x="2412" 
d="M1233 719q-22 -36 -2 -74l92 -164q11 -19 29.5 -19.5t29.5 19.5l535 953h496l-818 -1454l-358 638q-12 21 -30 21t-29 -21l-361 -638l-817 1454h8l537 -953q11 -20 30 -20t29 20l332 592q22 36 2 74l-164 287h8l150 -260q12 -21 30 -21t29 21l148 260h495z" />
    <glyph glyph-name="x" unicode="x" horiz-adv-x="1738" 
d="M997 506l-405 -506h-592l657 821q30 42 -14 78l-643 535h12l629 -523q52 -43 102 19l404 504h592l-656 -820q-29 -41 15 -77l643 -535h-12l-629 522q-53 44 -103 -18z" />
    <glyph glyph-name="y" unicode="y" horiz-adv-x="1822" 
d="M915 383v-383h-8v383q0 53 -28 86l-879 965h12l574 -631q28 -28 55 2l588 629h594l-879 -965q-29 -34 -29 -86z" />
    <glyph glyph-name="z" unicode="z" 
d="M1294 995h-1288v439h1389v-439l-1293 -528q-14 -6 -13.5 -17.5t17.5 -11.5h1289v-438h-1389v438l1292 529q14 6 13.5 17t-17.5 11z" />
    <glyph glyph-name="braceleft" unicode="{" horiz-adv-x="684" 
d="M164 717q38 -2 63.5 -4.5t73 -10t81 -17.5t74.5 -29.5t66 -44t42.5 -61.5t17.5 -83v-342q0 -101 15.5 -133.5t80.5 -32.5v-4q-55 -10 -115 -10q-208 0 -306.5 77.5t-98.5 231.5v274q0 109 -28 145.5t-124 39.5v8q96 3 124 39t28 145v275q0 154 98.5 231.5t306.5 77.5
q60 0 115 -10v-4q-65 0 -80.5 -32.5t-15.5 -133.5v-342q0 -46 -17.5 -83t-42.5 -61.5t-66 -44t-74.5 -29.5t-81 -17.5t-73 -10t-63.5 -4.5z" />
    <glyph glyph-name="bar" unicode="|" horiz-adv-x="131" 
d="M70 1556v-1679h-9v1679h9z" />
    <glyph glyph-name="braceright" unicode="}" horiz-adv-x="684" 
d="M520 717q-38 2 -63.5 4.5t-73 10t-81 17.5t-74.5 29.5t-66 44t-42.5 61.5t-17.5 83v342q0 101 -15.5 133.5t-80.5 32.5v4q55 10 115 10q208 0 306.5 -77.5t98.5 -231.5v-275q0 -109 28 -145t124 -39v-8q-96 -3 -124 -39.5t-28 -145.5v-274q0 -154 -98.5 -231.5
t-306.5 -77.5q-60 0 -115 10v4q65 0 80.5 32.5t15.5 133.5v342q0 46 17.5 83t42.5 61.5t66 44t74.5 29.5t81 17.5t73 10t63.5 4.5z" />
    <glyph glyph-name="asciitilde" unicode="~" horiz-adv-x="1241" 
d="M1235 926q0 -185 -89.5 -290.5t-242.5 -105.5q-60 0 -104.5 20t-85.5 66l-125 142q-31 39 -74 39q-58 0 -76 -63t-18 -204h-414q-1 185 88 290.5t242 105.5q113 0 186 -82l129 -146q34 -39 74 -39q58 0 76 63t18 204h416z" />
    <glyph glyph-name="uni00A0" unicode="&#xa0;" horiz-adv-x="512" 
 />
    <glyph glyph-name="exclamdown" unicode="&#xa1;" horiz-adv-x="473" 
d="M467 995h-461v439h461v-439zM467 0h-461v438q79 0 126 46.5t73 168.5t26 332h11q0 -210 26 -332t73 -168.5t126 -46.5v-438z" />
    <glyph glyph-name="cent" unicode="&#xa2;" horiz-adv-x="997" 
d="M510 1434h8v-199q127 -1 234 -55t173 -159.5t66 -242.5h-8q0 29 -11.5 47.5t-33.5 26.5t-39.5 10t-42.5 2h-338v-295h338q19 0 33 1t33 5.5t31 13t21 25t9 39.5h8q0 -138 -66.5 -243.5t-173 -159t-233.5 -53.5v-197h-8v197q-102 1 -187 31t-143 80.5t-98 118t-58 140.5
t-18 150q0 76 18.5 149t58.5 140.5t98 118t142.5 80.5t186.5 30v199zM14 717q0 -46 17 -77t48.5 -45.5t64.5 -20t77 -5.5h289v295h-289q-44 0 -77 -5.5t-64.5 -20t-48.5 -45t-17 -76.5z" />
    <glyph glyph-name="sterling" unicode="&#xa3;" horiz-adv-x="1546" 
d="M43 635v8h205q-38 71 -49 135h-156v8h154q-4 32 -4 54q0 130 43 242.5t121.5 195t196 129.5t259.5 47q277 0 439.5 -168t162.5 -446h-8q0 51 -12 84t-35 47.5t-44.5 19t-53.5 4.5h-865q-94 0 -145 -40.5t-51 -114.5q0 -22 4 -54h821v-8h-819q11 -67 51 -135h768v-8h-764
q19 -35 59.5 -99.5t55.5 -89.5h934q49 0 79.5 2.5t60.5 11.5t45.5 25.5t25.5 45.5t10 71h8q0 -186 -50 -324.5t-153.5 -218t-249.5 -79.5q-73 0 -137 23.5t-111.5 62t-90.5 85t-83.5 94t-81.5 88t-93 69t-109 34.5q57 -102 57 -192q0 -114 -58.5 -189t-170.5 -75
q-89 0 -146 56t-57 152q0 89 50.5 149t125.5 84.5t168 24.5h17q-16 29 -56 91.5t-59 97.5h-209zM14 188q0 -91 54 -145.5t141 -54.5q106 0 163.5 72.5t57.5 183.5q0 91 -59 194h-21q-68 0 -126.5 -14.5t-106.5 -43.5t-75.5 -78.5t-27.5 -113.5z" />
    <glyph glyph-name="yen" unicode="&#xa5;" horiz-adv-x="1828" 
d="M281 637v8h438l-123 135h-315v8h307l-588 646h12l574 -631q28 -28 55 2l588 629h594l-588 -646h307v-8h-315l-123 -135h438v-8h-444l-154 -168q-29 -34 -29 -86v-383h-8v383q0 53 -28 86l-154 168h-444z" />
    <glyph glyph-name="section" unicode="&#xa7;" horiz-adv-x="1288" 
d="M643 -20q-637 0 -637 614h8q0 -91 64 -123.5t194 -32.5h744q66 0 110 15q-21 35 -92 53l-758 207q-132 36 -201 97.5t-69 166.5q0 209 172.5 343t466.5 134q637 0 637 -614h-8q0 47 -17.5 78.5t-53 47.5t-79.5 22.5t-108 6.5h-744q-67 0 -108 -14q22 -36 90 -53l758 -207
q132 -36 201 -97.5t69 -166.5q0 -209 -172.5 -343t-466.5 -134zM1038 512q68 -17 97 -55q63 25 63 102q0 103 -186 154l-762 209q-66 18 -94 55q-66 -26 -66 -103q0 -102 186 -153z" />
    <glyph glyph-name="dieresis" unicode="&#xa8;" horiz-adv-x="1257" 
d="M756 1849q83 0 141.5 -58.5t58.5 -141.5q0 -85 -58.5 -144t-141.5 -59t-142 59t-59 144q0 83 59 141.5t142 58.5zM344 1849q83 0 142 -58.5t59 -141.5q0 -85 -59 -144t-142 -59t-142 59t-59 144q0 83 59 141.5t142 58.5z" />
    <glyph glyph-name="copyright" unicode="&#xa9;" horiz-adv-x="1495" 
d="M748 1454q203 0 372 -93.5t269 -263t100 -378.5t-100 -378.5t-269 -263t-372 -93.5q-151 0 -287.5 55t-236.5 151t-159 234t-59 295t59 295t159 234t236.5 151t287.5 55zM748 1446q-150 0 -284.5 -54.5t-233.5 -149.5t-157.5 -231t-58.5 -292t58.5 -292t157.5 -231
t233.5 -149.5t284.5 -54.5q200 0 367.5 92.5t266.5 260t99 374.5t-99 374.5t-266.5 260t-367.5 92.5zM252 719q0 93 34.5 180t97 156.5t161 111t217.5 41.5q121 0 222 -48.5t163.5 -142.5t62.5 -216h-8q0 59 -40 80.5t-122 21.5h-575q-93 0 -149 -46.5t-56 -137.5t56 -137.5
t149 -46.5h575q82 0 122 21.5t40 80.5h8q0 -122 -62 -216.5t-163.5 -143t-222.5 -48.5q-119 0 -217.5 42t-161 111t-97 156.5t-34.5 180.5z" />
    <glyph glyph-name="ordfeminine" unicode="&#xaa;" horiz-adv-x="1028" 
d="M1014 836q-14 -84 -51 -157.5t-97 -133.5t-150.5 -94.5t-201.5 -34.5q-127 0 -227.5 45.5t-160 121.5t-90 166t-30.5 187q0 96 30.5 186t90 165.5t160 121t227.5 45.5q111 0 201.5 -34.5t150.5 -94.5t97 -133.5t51 -157.5v420h8v-1038h-8v420zM242 809h544q37 0 54 0.5
t50 3.5t50 11t37 21.5t28.5 36.5t8.5 54q0 26 -8 47t-18.5 34t-31 22t-36 14t-43.5 7t-43.5 2.5t-45.5 0.5h-546q-30 0 -46 -0.5t-44 -2.5t-44 -7t-36.5 -14t-31 -22t-18.5 -34t-8 -47q0 -31 8.5 -54t28.5 -36.5t37 -21.5t50 -11t50 -3.5t54 -0.5zM145 324h738v-9h-738v9z
" />
    <glyph glyph-name="guillemotleft" unicode="&#xab;" horiz-adv-x="954" 
d="M383 711l565 567l-196 -567l196 -568zM6 711l565 567l-196 -567l196 -568z" />
    <glyph glyph-name="registered" unicode="&#xae;" horiz-adv-x="1495" 
d="M748 1454q203 0 372 -93.5t269 -263t100 -378.5t-100 -378.5t-269 -263t-372 -93.5q-151 0 -287.5 55t-236.5 151t-159 234t-59 295t59 295t159 234t236.5 151t287.5 55zM748 1446q-150 0 -284.5 -54.5t-233.5 -149.5t-157.5 -231t-58.5 -292t58.5 -292t157.5 -231
t233.5 -149.5t284.5 -54.5q200 0 367.5 92.5t266.5 260t99 374.5t-99 374.5t-266.5 260t-367.5 92.5zM1176 254h-13l-395 451q-13 16 -47 16h-270q-28 0 -40 -13t-12 -42v-412h-8v928h518q151 0 227 -56t76 -180q0 -103 -69 -164t-180 -61h-144q-21 0 -26.5 -12t8.5 -29z
M451 729h503q152 0 152 86q0 84 -115 84h-536q-29 0 -42.5 -11.5t-13.5 -39.5v-64q0 -29 12 -42t40 -13z" />
    <glyph glyph-name="macron" unicode="&#xaf;" horiz-adv-x="1257" 
d="M307 1542h643v-8h-643v8z" />
    <glyph glyph-name="degree" unicode="&#xb0;" horiz-adv-x="421" 
d="M6 1251q0 86 58.5 144.5t146.5 58.5t146.5 -58.5t58.5 -144.5t-58.5 -144t-146.5 -58t-146.5 58t-58.5 144zM14 1251q0 -83 56 -138.5t141 -55.5t141 55.5t56 138.5t-56 139t-141 56t-141 -56t-56 -139z" />
    <glyph glyph-name="plusminus" unicode="&#xb1;" horiz-adv-x="843" 
d="M82 797v12h334v272h12v-272h334v-12h-334v-273h-12v273h-334zM82 387v12h680v-12h-680z" />
    <glyph glyph-name="acute" unicode="&#xb4;" horiz-adv-x="1257" 
d="M526 1694q90 129 205 129q81 0 128.5 -50.5t47.5 -123.5q1 -93 -61.5 -147t-167.5 -54h-328z" />
    <glyph glyph-name="paragraph" unicode="&#xb6;" horiz-adv-x="950" 
d="M944 1434v-1131q0 -151 -88 -237t-252 -86q-186 0 -291.5 113.5t-105.5 340.5h455q0 -174 28.5 -242.5t118.5 -68.5q127 0 127 180v328q0 43 -21 60.5t-65 17.5h-459q-93 0 -168.5 31.5t-122 83.5t-71 116.5t-23.5 134.5q1 69 25.5 132.5t71 114.5t121 81.5t167.5 30.5
h553z" />
    <glyph glyph-name="periodcentered" unicode="&#xb7;" horiz-adv-x="473" 
d="M467 936v-438h-461v438h461z" />
    <glyph glyph-name="cedilla" unicode="&#xb8;" horiz-adv-x="1257" 
d="M920 -197q0 115 -177 115q-89 0 -170 -20l66 116h8l-57 -104q69 16 153 16q185 0 185 -123q0 -92 -79.5 -152.5t-219.5 -60.5q-89 0 -169 30.5t-134 94.5t-54 148h430q0 -79 26 -122.5t89 -43.5q44 0 73.5 27.5t29.5 78.5z" />
    <glyph glyph-name="ordmasculine" unicode="&#xba;" horiz-adv-x="1028" 
d="M514 1454q127 0 227.5 -45.5t160 -121t90 -165.5t30.5 -186q0 -97 -30.5 -187t-90 -166t-160 -121.5t-227.5 -45.5t-227.5 45.5t-160 121.5t-90 166t-30.5 187q0 96 30.5 186t90 165.5t160 121t227.5 45.5zM788 1063h-546q-30 0 -46 -0.5t-44 -2.5t-44 -7t-36.5 -14
t-31 -22t-18.5 -34t-8 -47q0 -31 8.5 -54t28.5 -36.5t37 -21.5t50 -11t50 -3.5t54 -0.5h544q37 0 54 0.5t50 3.5t50 11t37 21.5t28.5 36.5t8.5 54q0 26 -8 47t-18.5 34t-31 22t-36 14t-43.5 7t-43.5 2.5t-45.5 0.5zM145 324h738v-9h-738v9z" />
    <glyph glyph-name="guillemotright" unicode="&#xbb;" horiz-adv-x="954" 
d="M948 711l-565 -568l197 568l-197 567zM571 711l-565 -568l197 568l-197 567z" />
    <glyph glyph-name="questiondown" unicode="&#xbf;" horiz-adv-x="1249" 
d="M393 995v439h461v-439h-461zM621 983h8q0 -107 -44.5 -163.5t-125.5 -84.5q-26 -9 -74 -25q-179 -60 -241 -94.5t-62 -95.5q0 -82 108 -82h900q31 0 53 4.5t45 19.5t35 48t12 84h8q0 -614 -659 -614q-272 0 -425 128t-153 326q0 32 4.5 57t17.5 46.5t26 37.5t39.5 32
t48 26.5t62 25.5t71 25t85.5 27.5t95 31.5q78 27 122 81t44 159z" />
    <glyph glyph-name="Agrave" unicode="&#xc0;" horiz-adv-x="1634" 
d="M1380 434q-29 53 -90 53h-465q-60 0 -90 -55l-243 -432h-492l813 1448h-70q-105 0 -167.5 54t-61.5 147q0 73 47.5 123.5t128.5 50.5q115 0 205 -129l176 -246h-250l813 -1448h-8zM1319 545l-234 411q-11 20 -30 20t-29 -20l-229 -411q-11 -20 -4 -34.5t30 -14.5h469
q23 0 30.5 14.5t-3.5 34.5z" />
    <glyph glyph-name="Aacute" unicode="&#xc1;" horiz-adv-x="1634" 
d="M1380 434q-29 53 -90 53h-465q-60 0 -90 -55l-243 -432h-492l813 1448h-209l176 246q90 129 205 129q81 0 128.5 -50.5t47.5 -123.5q1 -93 -61.5 -147t-167.5 -54h-111l813 -1448h-8zM1319 545l-234 411q-11 20 -30 20t-29 -20l-229 -411q-11 -20 -4 -34.5t30 -14.5h469
q23 0 30.5 14.5t-3.5 34.5z" />
    <glyph glyph-name="Acircumflex" unicode="&#xc2;" horiz-adv-x="1634" 
d="M205 1446l612 395l613 -395h-529l-84 391l-84 -391h-528zM1380 434q-29 53 -90 53h-465q-60 0 -90 -55l-243 -432h-492l817 1454l817 -1454h-8zM1319 545l-234 411q-11 20 -30 20t-29 -20l-229 -411q-11 -20 -4 -34.5t30 -14.5h469q23 0 30.5 14.5t-3.5 34.5z" />
    <glyph glyph-name="Atilde" unicode="&#xc3;" horiz-adv-x="1634" 
d="M1452 1841q0 -185 -89.5 -290t-242.5 -105q-60 0 -104.5 20t-85.5 66l-125 141q-31 39 -74 39q-58 0 -76 -62.5t-18 -203.5h-414q-1 185 88 290t242 105q113 0 186 -82l129 -145q34 -39 74 -39q58 0 76 62.5t18 203.5h416zM1380 434q-29 53 -90 53h-465q-60 0 -90 -55
l-243 -432h-492l817 1454l817 -1454h-8zM1319 545l-234 411q-11 20 -30 20t-29 -20l-229 -411q-11 -20 -4 -34.5t30 -14.5h469q23 0 30.5 14.5t-3.5 34.5z" />
    <glyph glyph-name="Adieresis" unicode="&#xc4;" horiz-adv-x="1634" 
d="M1024 1849q83 0 142 -58.5t59 -141.5q0 -85 -59 -144t-142 -59t-142 59t-59 144q0 83 59 141.5t142 58.5zM612 1849q83 0 142 -58.5t59 -141.5q0 -85 -59 -144t-142 -59t-141.5 59t-58.5 144q0 83 58.5 141.5t141.5 58.5zM1380 434q-29 53 -90 53h-465q-60 0 -90 -55
l-243 -432h-492l817 1454l817 -1454h-8zM1319 545l-234 411q-11 20 -30 20t-29 -20l-229 -411q-11 -20 -4 -34.5t30 -14.5h469q23 0 30.5 14.5t-3.5 34.5z" />
    <glyph glyph-name="Aring" unicode="&#xc5;" horiz-adv-x="1634" 
d="M1380 434q-29 53 -90 53h-465q-60 0 -90 -55l-243 -432h-492l813 1446q-91 3 -154 66t-63 155t65.5 156.5t157.5 64.5q94 0 158.5 -64.5t64.5 -156.5q0 -93 -64 -157t-157 -64l813 -1446h-8zM1034 1667q0 91 -62 152t-153 61q-90 0 -152.5 -61.5t-62.5 -151.5
t62.5 -151.5t152.5 -61.5q91 0 153 61t62 152zM1319 545l-234 411q-11 20 -30 20t-29 -20l-229 -411q-11 -20 -4 -34.5t30 -14.5h469q23 0 30.5 14.5t-3.5 34.5z" />
    <glyph glyph-name="AE" unicode="&#xc6;" horiz-adv-x="3000" 
d="M2994 0h-1388v352q0 44 -17.5 65t-60.5 21h-414q-26 0 -41 -4.5t-35 -23.5l-424 -410h-614l1487 1434h1507v-439h-1294q-45 0 -65.5 -17t-20.5 -60v-111q0 -44 17.5 -65t60.5 -21h1302v-8h-1302q-43 0 -60.5 -21t-17.5 -65v-111q0 -43 21 -60.5t65 -17.5h1294v-438z
M1606 956l-484 -464q-14 -14 -10.5 -30t21.5 -16h395q43 0 60.5 21t17.5 65v424z" />
    <glyph glyph-name="Ccedilla" unicode="&#xc7;" horiz-adv-x="1527" 
d="M14 717q0 -138 79 -208.5t222 -70.5h940q130 0 194 32.5t64 123.5h9q0 -138 -57.5 -255t-155 -194.5t-226 -121t-270.5 -43.5h-39l-39 -70q69 16 154 16q184 0 184 -123q0 -92 -79.5 -152.5t-219.5 -60.5q-89 0 -168.5 30.5t-133.5 94.5t-54 148h430q0 -79 26 -122.5
t89 -43.5q44 0 73 27.5t29 78.5q0 115 -176 115q-89 0 -170 -20l47 84q-177 7 -324 73t-240.5 169t-144.5 230.5t-51 262.5q0 111 33.5 218t102 201t163 165t226 112t282.5 41q142 0 270.5 -43.5t226 -121t155 -194.5t57.5 -255h-9q0 47 -17.5 78.5t-53 47.5t-79.5 22.5
t-108 6.5h-940q-143 0 -222 -70t-79 -208z" />
    <glyph glyph-name="Egrave" unicode="&#xc8;" 
d="M772 1694l176 -246h-327q-105 0 -168 54t-62 147q0 73 47.5 123.5t128.5 50.5q115 0 205 -129zM1395 0h-1389v1434h1389v-439h-1295q-45 0 -65.5 -17t-20.5 -60v-111q0 -44 17.5 -65t60.5 -21h1303v-8h-1303q-43 0 -60.5 -21t-17.5 -65v-111q0 -43 21 -60.5t65 -17.5
h1295v-438z" />
    <glyph glyph-name="Eacute" unicode="&#xc9;" 
d="M731 1694q90 129 205 129q81 0 128.5 -50.5t47.5 -123.5q1 -93 -61.5 -147t-167.5 -54h-328zM1395 0h-1389v1434h1389v-439h-1295q-45 0 -65.5 -17t-20.5 -60v-111q0 -44 17.5 -65t60.5 -21h1303v-8h-1303q-43 0 -60.5 -21t-17.5 -65v-111q0 -43 21 -60.5t65 -17.5h1295
v-438z" />
    <glyph glyph-name="Ecircumflex" unicode="&#xca;" 
d="M109 1446l612 395l612 -395h-528l-84 391l-84 -391h-528zM1395 0h-1389v1434h1389v-439h-1295q-45 0 -65.5 -17t-20.5 -60v-111q0 -44 17.5 -65t60.5 -21h1303v-8h-1303q-43 0 -60.5 -21t-17.5 -65v-111q0 -43 21 -60.5t65 -17.5h1295v-438z" />
    <glyph glyph-name="Edieresis" unicode="&#xcb;" 
d="M928 1849q83 0 141.5 -58.5t58.5 -141.5q0 -85 -58.5 -144t-141.5 -59t-142 59t-59 144q0 83 59 141.5t142 58.5zM516 1849q83 0 142 -58.5t59 -141.5q0 -85 -59 -144t-142 -59t-142 59t-59 144q0 83 59 141.5t142 58.5zM1395 0h-1389v1434h1389v-439h-1295
q-45 0 -65.5 -17t-20.5 -60v-111q0 -44 17.5 -65t60.5 -21h1303v-8h-1303q-43 0 -60.5 -21t-17.5 -65v-111q0 -43 21 -60.5t65 -17.5h1295v-438z" />
    <glyph glyph-name="Igrave" unicode="&#xcc;" horiz-adv-x="905" 
d="M494 1694l176 -246h-328q-105 0 -167.5 54t-61.5 147q0 73 47.5 123.5t128.5 50.5q115 0 205 -129zM457 918v-402q0 -43 21 -60.5t65 -17.5h356v-438h-893v438h356q45 0 66 17.5t21 60.5v402q0 43 -21 60t-66 17h-356v439h893v-439h-356q-45 0 -65.5 -17t-20.5 -60z" />
    <glyph glyph-name="Iacute" unicode="&#xcd;" horiz-adv-x="905" 
d="M412 1694q90 129 204 129q81 0 129 -50.5t48 -123.5q1 -93 -62 -147t-168 -54h-327zM457 918v-402q0 -43 21 -60.5t65 -17.5h356v-438h-893v438h356q45 0 66 17.5t21 60.5v402q0 43 -21 60t-66 17h-356v439h893v-439h-356q-45 0 -65.5 -17t-20.5 -60z" />
    <glyph glyph-name="Icircumflex" unicode="&#xce;" horiz-adv-x="905" 
d="M-160 1446l613 395l612 -395h-528l-84 391l-84 -391h-529zM457 918v-402q0 -43 21 -60.5t65 -17.5h356v-438h-893v438h356q45 0 66 17.5t21 60.5v402q0 43 -21 60t-66 17h-356v439h893v-439h-356q-45 0 -65.5 -17t-20.5 -60z" />
    <glyph glyph-name="Idieresis" unicode="&#xcf;" horiz-adv-x="905" 
d="M657 1849q83 0 142 -58.5t59 -141.5q0 -85 -59 -144t-142 -59t-141.5 59t-58.5 144q0 83 58.5 141.5t141.5 58.5zM246 1849q83 0 141.5 -58.5t58.5 -141.5q0 -85 -58.5 -144t-141.5 -59t-142 59t-59 144q0 83 59 141.5t142 58.5zM457 918v-402q0 -43 21 -60.5t65 -17.5
h356v-438h-893v438h356q45 0 66 17.5t21 60.5v402q0 43 -21 60t-66 17h-356v439h893v-439h-356q-45 0 -65.5 -17t-20.5 -60z" />
    <glyph glyph-name="Eth" unicode="&#xd0;" horiz-adv-x="1433" 
d="M670 0h-664v1434h664q137 0 258.5 -39t211.5 -107.5t155.5 -158.5t98.5 -195.5t33 -216.5t-33 -216.5t-98.5 -195.5t-155.5 -158.5t-211.5 -107.5t-258.5 -39zM100 438h1039q278 0 278 279q0 278 -278 278h-1039q-45 0 -65.5 -17t-20.5 -60v-111q0 -44 17.5 -65t60.5 -21
h580v-8h-580q-43 0 -60.5 -21t-17.5 -65v-111q0 -43 21 -60.5t65 -17.5z" />
    <glyph glyph-name="Ntilde" unicode="&#xd1;" horiz-adv-x="1505" 
d="M1411 1841q0 -185 -89.5 -290t-242.5 -105q-60 0 -104.5 20t-85.5 66l-125 141q-31 39 -74 39q-58 0 -76 -62.5t-18 -203.5h-414q-1 185 88 290t242 105q113 0 186 -82l129 -145q34 -39 74 -39q58 0 76 62.5t18 203.5h416zM6 1458l959 -944q23 -21 43 -15t20 33v902h471
v-1459l-958 945q-23 21 -43.5 14.5t-20.5 -33.5v-901h-471v1458z" />
    <glyph glyph-name="Ograve" unicode="&#xd2;" horiz-adv-x="1568" 
d="M682 1714l176 -246h-328q-105 0 -167.5 54t-61.5 147q0 73 47.5 123.5t128.5 50.5q115 0 205 -129zM1563 717q0 -111 -33.5 -218t-100.5 -201t-159 -165t-217.5 -112t-268.5 -41q-177 0 -326.5 63t-246.5 167t-151 235.5t-54 271.5t54 271.5t151 235.5t246.5 167
t326.5 63q143 0 268.5 -41t217.5 -112t159 -165t100.5 -201t33.5 -218zM1554 717q0 138 -79 208t-222 70h-938q-143 0 -222 -70t-79 -208t79 -208.5t222 -70.5h938q143 0 222 70.5t79 208.5z" />
    <glyph glyph-name="Oacute" unicode="&#xd3;" horiz-adv-x="1568" 
d="M887 1714q90 129 205 129q81 0 128.5 -50.5t47.5 -123.5q1 -93 -62 -147t-168 -54h-327zM1563 717q0 -111 -33.5 -218t-100.5 -201t-159 -165t-217.5 -112t-268.5 -41q-177 0 -326.5 63t-246.5 167t-151 235.5t-54 271.5t54 271.5t151 235.5t246.5 167t326.5 63
q143 0 268.5 -41t217.5 -112t159 -165t100.5 -201t33.5 -218zM1554 717q0 138 -79 208t-222 70h-938q-143 0 -222 -70t-79 -208t79 -208.5t222 -70.5h938q143 0 222 70.5t79 208.5z" />
    <glyph glyph-name="Ocircumflex" unicode="&#xd4;" horiz-adv-x="1568" 
d="M172 1462l612 396l613 -396h-529l-84 391l-84 -391h-528zM1563 717q0 -111 -33.5 -218t-100.5 -201t-159 -165t-217.5 -112t-268.5 -41q-177 0 -326.5 63t-246.5 167t-151 235.5t-54 271.5t54 271.5t151 235.5t246.5 167t326.5 63q143 0 268.5 -41t217.5 -112t159 -165
t100.5 -201t33.5 -218zM1554 717q0 138 -79 208t-222 70h-938q-143 0 -222 -70t-79 -208t79 -208.5t222 -70.5h938q143 0 222 70.5t79 208.5z" />
    <glyph glyph-name="Otilde" unicode="&#xd5;" horiz-adv-x="1568" 
d="M1399 1841q0 -185 -89.5 -290t-242.5 -105q-60 0 -104.5 20t-85.5 66l-125 141q-31 39 -74 39q-58 0 -76 -62.5t-18 -203.5h-414q-1 185 88 290t242 105q113 0 186 -82l129 -145q34 -39 74 -39q58 0 76 62.5t18 203.5h416zM1563 717q0 -111 -33.5 -218t-100.5 -201
t-159 -165t-217.5 -112t-268.5 -41q-177 0 -326.5 63t-246.5 167t-151 235.5t-54 271.5t54 271.5t151 235.5t246.5 167t326.5 63q143 0 268.5 -41t217.5 -112t159 -165t100.5 -201t33.5 -218zM1554 717q0 138 -79 208t-222 70h-938q-143 0 -222 -70t-79 -208t79 -208.5
t222 -70.5h938q143 0 222 70.5t79 208.5z" />
    <glyph glyph-name="Odieresis" unicode="&#xd6;" horiz-adv-x="1568" 
d="M989 1849q83 0 142 -58.5t59 -141.5q0 -85 -59 -144t-142 -59t-142 59t-59 144q0 83 59 141.5t142 58.5zM578 1849q83 0 141.5 -58.5t58.5 -141.5q0 -85 -58.5 -144t-141.5 -59t-142 59t-59 144q0 83 59 141.5t142 58.5zM1563 717q0 -111 -33.5 -218t-100.5 -201
t-159 -165t-217.5 -112t-268.5 -41q-177 0 -326.5 63t-246.5 167t-151 235.5t-54 271.5t54 271.5t151 235.5t246.5 167t326.5 63q143 0 268.5 -41t217.5 -112t159 -165t100.5 -201t33.5 -218zM1554 717q0 138 -79 208t-222 70h-938q-143 0 -222 -70t-79 -208t79 -208.5
t222 -70.5h938q143 0 222 70.5t79 208.5z" />
    <glyph glyph-name="multiply" unicode="&#xd7;" horiz-adv-x="679" 
d="M332 717l-250 254l8 8l250 -254l250 254l8 -8l-250 -254l250 -254l-8 -8l-250 254l-250 -254l-8 8z" />
    <glyph glyph-name="Oslash" unicode="&#xd8;" horiz-adv-x="1568" 
d="M784 1454q131 0 248 -34.5t197 -88.5q33 -22 55 4l88 99h10l-86 -99q-29 -34 -2 -55q131 -114 200 -258.5t69 -304.5q0 -111 -33.5 -218t-100.5 -201t-159 -165t-217.5 -112t-268.5 -41q-132 0 -248 34t-196 88q-33 22 -55 -4l-88 -98h-11l86 98q30 35 2 56
q-131 113 -199.5 257.5t-68.5 305.5q0 140 54 271.5t151 235.5t246.5 167t326.5 63zM973 922l-377 -422q-24 -26 -16.5 -44t45.5 -18h628q142 0 220.5 70.5t78.5 208.5t-78 208t-221 70h-147q-70 0 -133 -73zM596 512l377 422q24 26 16.5 43.5t-45.5 17.5h-629
q-143 0 -221 -70t-78 -208t78.5 -208.5t220.5 -70.5h148q40 0 70.5 18.5t62.5 55.5z" />
    <glyph glyph-name="Ugrave" unicode="&#xd9;" horiz-adv-x="1359" 
d="M700 1694l177 -246h-328q-105 0 -168 54t-62 147q0 73 48 123.5t129 50.5q114 0 204 -129zM883 633v801h471v-809q0 -154 -54.5 -278t-150 -203.5t-222 -121.5t-272.5 -42q-194 0 -339 72.5t-227.5 219t-82.5 353.5v809h8v-801q0 -139 34 -246t94 -171t137.5 -96
t169.5 -32q204 0 319 134t115 411z" />
    <glyph glyph-name="Uacute" unicode="&#xda;" horiz-adv-x="1359" 
d="M537 1694q90 129 204 129q81 0 129 -50.5t48 -123.5q1 -93 -62 -147t-168 -54h-328zM883 633v801h471v-809q0 -154 -54.5 -278t-150 -203.5t-222 -121.5t-272.5 -42q-194 0 -339 72.5t-227.5 219t-82.5 353.5v809h8v-801q0 -139 34 -246t94 -171t137.5 -96t169.5 -32
q204 0 319 134t115 411z" />
    <glyph glyph-name="Ucircumflex" unicode="&#xdb;" horiz-adv-x="1359" 
d="M68 1446l612 395l612 -395h-528l-84 391l-84 -391h-528zM883 633v801h471v-809q0 -154 -54.5 -278t-150 -203.5t-222 -121.5t-272.5 -42q-194 0 -339 72.5t-227.5 219t-82.5 353.5v809h8v-801q0 -139 34 -246t94 -171t137.5 -96t169.5 -32q204 0 319 134t115 411z" />
    <glyph glyph-name="Udieresis" unicode="&#xdc;" horiz-adv-x="1359" 
d="M846 1849q83 0 142 -58.5t59 -141.5q0 -85 -59 -144t-142 -59t-142 59t-59 144q0 83 59 141.5t142 58.5zM434 1849q83 0 142 -58.5t59 -141.5q0 -85 -59 -144t-142 -59t-142 59t-59 144q0 83 59 141.5t142 58.5zM883 633v801h471v-809q0 -154 -54.5 -278t-150 -203.5
t-222 -121.5t-272.5 -42q-194 0 -339 72.5t-227.5 219t-82.5 353.5v809h8v-801q0 -139 34 -246t94 -171t137.5 -96t169.5 -32q204 0 319 134t115 411z" />
    <glyph glyph-name="Yacute" unicode="&#xdd;" horiz-adv-x="1822" 
d="M809 1694q90 129 205 129q81 0 128.5 -50.5t47.5 -123.5q1 -93 -61.5 -147t-167.5 -54h-328zM915 383v-383h-8v383q0 53 -28 86l-879 965h12l574 -631q28 -28 55 2l588 629h594l-879 -965q-29 -34 -29 -86z" />
    <glyph glyph-name="Thorn" unicode="&#xde;" horiz-adv-x="1437" 
d="M92 1098h858q482 0 482 -365q0 -159 -113 -257.5t-287 -98.5h-940q-43 0 -60.5 -21t-17.5 -65v-291h-8v1434h8v-250q0 -44 17.5 -65t60.5 -21zM1020 385q108 0 178 36.5t70 108.5q0 59 -49 94t-144 35h-975q-45 0 -65.5 -17t-20.5 -60v-111q0 -44 17.5 -65t60.5 -21h928z
" />
    <glyph glyph-name="agrave" unicode="&#xe0;" horiz-adv-x="1634" 
d="M1380 434q-29 53 -90 53h-465q-60 0 -90 -55l-243 -432h-492l813 1448h-70q-105 0 -167.5 54t-61.5 147q0 73 47.5 123.5t128.5 50.5q115 0 205 -129l176 -246h-250l813 -1448h-8zM1319 545l-234 411q-11 20 -30 20t-29 -20l-229 -411q-11 -20 -4 -34.5t30 -14.5h469
q23 0 30.5 14.5t-3.5 34.5z" />
    <glyph glyph-name="aacute" unicode="&#xe1;" horiz-adv-x="1634" 
d="M1380 434q-29 53 -90 53h-465q-60 0 -90 -55l-243 -432h-492l813 1448h-209l176 246q90 129 205 129q81 0 128.5 -50.5t47.5 -123.5q1 -93 -61.5 -147t-167.5 -54h-111l813 -1448h-8zM1319 545l-234 411q-11 20 -30 20t-29 -20l-229 -411q-11 -20 -4 -34.5t30 -14.5h469
q23 0 30.5 14.5t-3.5 34.5z" />
    <glyph glyph-name="acircumflex" unicode="&#xe2;" horiz-adv-x="1634" 
d="M205 1446l612 395l613 -395h-529l-84 391l-84 -391h-528zM1380 434q-29 53 -90 53h-465q-60 0 -90 -55l-243 -432h-492l817 1454l817 -1454h-8zM1319 545l-234 411q-11 20 -30 20t-29 -20l-229 -411q-11 -20 -4 -34.5t30 -14.5h469q23 0 30.5 14.5t-3.5 34.5z" />
    <glyph glyph-name="atilde" unicode="&#xe3;" horiz-adv-x="1634" 
d="M1452 1841q0 -185 -89.5 -290t-242.5 -105q-60 0 -104.5 20t-85.5 66l-125 141q-31 39 -74 39q-58 0 -76 -62.5t-18 -203.5h-414q-1 185 88 290t242 105q113 0 186 -82l129 -145q34 -39 74 -39q58 0 76 62.5t18 203.5h416zM1380 434q-29 53 -90 53h-465q-60 0 -90 -55
l-243 -432h-492l817 1454l817 -1454h-8zM1319 545l-234 411q-11 20 -30 20t-29 -20l-229 -411q-11 -20 -4 -34.5t30 -14.5h469q23 0 30.5 14.5t-3.5 34.5z" />
    <glyph glyph-name="adieresis" unicode="&#xe4;" horiz-adv-x="1634" 
d="M1024 1849q83 0 142 -58.5t59 -141.5q0 -85 -59 -144t-142 -59t-142 59t-59 144q0 83 59 141.5t142 58.5zM612 1849q83 0 142 -58.5t59 -141.5q0 -85 -59 -144t-142 -59t-141.5 59t-58.5 144q0 83 58.5 141.5t141.5 58.5zM1380 434q-29 53 -90 53h-465q-60 0 -90 -55
l-243 -432h-492l817 1454l817 -1454h-8zM1319 545l-234 411q-11 20 -30 20t-29 -20l-229 -411q-11 -20 -4 -34.5t30 -14.5h469q23 0 30.5 14.5t-3.5 34.5z" />
    <glyph glyph-name="aring" unicode="&#xe5;" horiz-adv-x="1634" 
d="M1380 434q-29 53 -90 53h-465q-60 0 -90 -55l-243 -432h-492l813 1446q-91 3 -154 66t-63 155t65.5 156.5t157.5 64.5q94 0 158.5 -64.5t64.5 -156.5q0 -93 -64 -157t-157 -64l813 -1446h-8zM1034 1667q0 91 -62 152t-153 61q-90 0 -152.5 -61.5t-62.5 -151.5
t62.5 -151.5t152.5 -61.5q91 0 153 61t62 152zM1319 545l-234 411q-11 20 -30 20t-29 -20l-229 -411q-11 -20 -4 -34.5t30 -14.5h469q23 0 30.5 14.5t-3.5 34.5z" />
    <glyph glyph-name="ae" unicode="&#xe6;" horiz-adv-x="3000" 
d="M2994 0h-1388v352q0 44 -17.5 65t-60.5 21h-414q-26 0 -41 -4.5t-35 -23.5l-424 -410h-614l1487 1434h1507v-439h-1294q-45 0 -65.5 -17t-20.5 -60v-113q0 -44 17.5 -65t60.5 -21h1302v-8h-1302q-43 0 -60.5 -21t-17.5 -65v-109q0 -43 21 -60.5t65 -17.5h1294v-438z
M1606 956l-484 -464q-14 -14 -10.5 -30t21.5 -16h395q43 0 60.5 21t17.5 65v424z" />
    <glyph glyph-name="ccedilla" unicode="&#xe7;" horiz-adv-x="1527" 
d="M14 717q0 -138 79 -208.5t222 -70.5h940q130 0 194 32.5t64 123.5h9q0 -138 -57.5 -255t-155 -194.5t-226 -121t-270.5 -43.5h-39l-39 -70q69 16 154 16q184 0 184 -123q0 -92 -79.5 -152.5t-219.5 -60.5q-89 0 -168.5 30.5t-133.5 94.5t-54 148h430q0 -79 26 -122.5
t89 -43.5q44 0 73 27.5t29 78.5q0 115 -176 115q-89 0 -170 -20l47 84q-177 7 -324 73t-240.5 169t-144.5 230.5t-51 262.5q0 111 33.5 218t102 201t163 165t226 112t282.5 41q142 0 270.5 -43.5t226 -121t155 -194.5t57.5 -255h-9q0 47 -17.5 78.5t-53 47.5t-79.5 22.5
t-108 6.5h-940q-143 0 -222 -70t-79 -208z" />
    <glyph glyph-name="egrave" unicode="&#xe8;" 
d="M772 1694l176 -246h-327q-105 0 -168 54t-62 147q0 73 47.5 123.5t128.5 50.5q115 0 205 -129zM1395 0h-1389v1434h1389v-439h-1295q-45 0 -65.5 -17t-20.5 -60v-111q0 -44 17.5 -65t60.5 -21h1303v-8h-1303q-43 0 -60.5 -21t-17.5 -65v-111q0 -43 21 -60.5t65 -17.5
h1295v-438z" />
    <glyph glyph-name="eacute" unicode="&#xe9;" 
d="M731 1694q90 129 205 129q81 0 128.5 -50.5t47.5 -123.5q1 -93 -61.5 -147t-167.5 -54h-328zM1395 0h-1389v1434h1389v-439h-1295q-45 0 -65.5 -17t-20.5 -60v-111q0 -44 17.5 -65t60.5 -21h1303v-8h-1303q-43 0 -60.5 -21t-17.5 -65v-111q0 -43 21 -60.5t65 -17.5h1295
v-438z" />
    <glyph glyph-name="ecircumflex" unicode="&#xea;" 
d="M109 1446l612 395l612 -395h-528l-84 391l-84 -391h-528zM1395 0h-1389v1434h1389v-439h-1295q-45 0 -65.5 -17t-20.5 -60v-111q0 -44 17.5 -65t60.5 -21h1303v-8h-1303q-43 0 -60.5 -21t-17.5 -65v-111q0 -43 21 -60.5t65 -17.5h1295v-438z" />
    <glyph glyph-name="edieresis" unicode="&#xeb;" 
d="M928 1849q83 0 141.5 -58.5t58.5 -141.5q0 -85 -58.5 -144t-141.5 -59t-142 59t-59 144q0 83 59 141.5t142 58.5zM516 1849q83 0 142 -58.5t59 -141.5q0 -85 -59 -144t-142 -59t-142 59t-59 144q0 83 59 141.5t142 58.5zM1395 0h-1389v1434h1389v-439h-1295
q-45 0 -65.5 -17t-20.5 -60v-111q0 -44 17.5 -65t60.5 -21h1303v-8h-1303q-43 0 -60.5 -21t-17.5 -65v-111q0 -43 21 -60.5t65 -17.5h1295v-438z" />
    <glyph glyph-name="igrave" unicode="&#xec;" horiz-adv-x="905" 
d="M494 1694l176 -246h-328q-105 0 -167.5 54t-61.5 147q0 73 47.5 123.5t128.5 50.5q115 0 205 -129zM457 918v-402q0 -43 21 -60.5t65 -17.5h356v-438h-893v438h356q45 0 66 17.5t21 60.5v402q0 43 -21 60t-66 17h-356v439h893v-439h-356q-45 0 -65.5 -17t-20.5 -60z" />
    <glyph glyph-name="iacute" unicode="&#xed;" horiz-adv-x="905" 
d="M412 1694q90 129 204 129q81 0 129 -50.5t48 -123.5q1 -93 -62 -147t-168 -54h-327zM457 918v-402q0 -43 21 -60.5t65 -17.5h356v-438h-893v438h356q45 0 66 17.5t21 60.5v402q0 43 -21 60t-66 17h-356v439h893v-439h-356q-45 0 -65.5 -17t-20.5 -60z" />
    <glyph glyph-name="icircumflex" unicode="&#xee;" horiz-adv-x="905" 
d="M-160 1446l613 395l612 -395h-528l-84 391l-84 -391h-529zM457 918v-402q0 -43 21 -60.5t65 -17.5h356v-438h-893v438h356q45 0 66 17.5t21 60.5v402q0 43 -21 60t-66 17h-356v439h893v-439h-356q-45 0 -65.5 -17t-20.5 -60z" />
    <glyph glyph-name="idieresis" unicode="&#xef;" horiz-adv-x="905" 
d="M657 1849q83 0 142 -58.5t59 -141.5q0 -85 -59 -144t-142 -59t-141.5 59t-58.5 144q0 83 58.5 141.5t141.5 58.5zM246 1849q83 0 141.5 -58.5t58.5 -141.5q0 -85 -58.5 -144t-141.5 -59t-142 59t-59 144q0 83 59 141.5t142 58.5zM457 918v-402q0 -43 21 -60.5t65 -17.5
h356v-438h-893v438h356q45 0 66 17.5t21 60.5v402q0 43 -21 60t-66 17h-356v439h893v-439h-356q-45 0 -65.5 -17t-20.5 -60z" />
    <glyph glyph-name="eth" unicode="&#xf0;" horiz-adv-x="1433" 
d="M670 0h-664v1434h664q137 0 258.5 -39t211.5 -107.5t155.5 -158.5t98.5 -195.5t33 -216.5t-33 -216.5t-98.5 -195.5t-155.5 -158.5t-211.5 -107.5t-258.5 -39zM100 438h1039q278 0 278 279q0 278 -278 278h-1039q-45 0 -65.5 -17t-20.5 -60v-111q0 -44 17.5 -65t60.5 -21
h580v-8h-580q-43 0 -60.5 -21t-17.5 -65v-111q0 -43 21 -60.5t65 -17.5z" />
    <glyph glyph-name="ntilde" unicode="&#xf1;" horiz-adv-x="1505" 
d="M1411 1841q0 -185 -89.5 -290t-242.5 -105q-60 0 -104.5 20t-85.5 66l-125 141q-31 39 -74 39q-58 0 -76 -62.5t-18 -203.5h-414q-1 185 88 290t242 105q113 0 186 -82l129 -145q34 -39 74 -39q58 0 76 62.5t18 203.5h416zM6 1458l959 -944q23 -21 43 -15t20 33v902h471
v-1459l-958 945q-23 21 -43.5 14.5t-20.5 -33.5v-901h-471v1458z" />
    <glyph glyph-name="ograve" unicode="&#xf2;" horiz-adv-x="1568" 
d="M682 1714l176 -246h-328q-105 0 -167.5 54t-61.5 147q0 73 47.5 123.5t128.5 50.5q115 0 205 -129zM1563 717q0 -111 -33.5 -218t-100.5 -201t-159 -165t-217.5 -112t-268.5 -41q-177 0 -326.5 63t-246.5 167t-151 235.5t-54 271.5t54 271.5t151 235.5t246.5 167
t326.5 63q143 0 268.5 -41t217.5 -112t159 -165t100.5 -201t33.5 -218zM1554 717q0 138 -79 208t-222 70h-938q-143 0 -222 -70t-79 -208t79 -208.5t222 -70.5h938q143 0 222 70.5t79 208.5z" />
    <glyph glyph-name="oacute" unicode="&#xf3;" horiz-adv-x="1568" 
d="M887 1714q90 129 205 129q81 0 128.5 -50.5t47.5 -123.5q1 -93 -62 -147t-168 -54h-327zM1563 717q0 -111 -33.5 -218t-100.5 -201t-159 -165t-217.5 -112t-268.5 -41q-177 0 -326.5 63t-246.5 167t-151 235.5t-54 271.5t54 271.5t151 235.5t246.5 167t326.5 63
q143 0 268.5 -41t217.5 -112t159 -165t100.5 -201t33.5 -218zM1554 717q0 138 -79 208t-222 70h-938q-143 0 -222 -70t-79 -208t79 -208.5t222 -70.5h938q143 0 222 70.5t79 208.5z" />
    <glyph glyph-name="ocircumflex" unicode="&#xf4;" horiz-adv-x="1568" 
d="M172 1462l612 396l613 -396h-529l-84 391l-84 -391h-528zM1563 717q0 -111 -33.5 -218t-100.5 -201t-159 -165t-217.5 -112t-268.5 -41q-177 0 -326.5 63t-246.5 167t-151 235.5t-54 271.5t54 271.5t151 235.5t246.5 167t326.5 63q143 0 268.5 -41t217.5 -112t159 -165
t100.5 -201t33.5 -218zM1554 717q0 138 -79 208t-222 70h-938q-143 0 -222 -70t-79 -208t79 -208.5t222 -70.5h938q143 0 222 70.5t79 208.5z" />
    <glyph glyph-name="otilde" unicode="&#xf5;" horiz-adv-x="1568" 
d="M1399 1841q0 -185 -89.5 -290t-242.5 -105q-60 0 -104.5 20t-85.5 66l-125 141q-31 39 -74 39q-58 0 -76 -62.5t-18 -203.5h-414q-1 185 88 290t242 105q113 0 186 -82l129 -145q34 -39 74 -39q58 0 76 62.5t18 203.5h416zM1563 717q0 -111 -33.5 -218t-100.5 -201
t-159 -165t-217.5 -112t-268.5 -41q-177 0 -326.5 63t-246.5 167t-151 235.5t-54 271.5t54 271.5t151 235.5t246.5 167t326.5 63q143 0 268.5 -41t217.5 -112t159 -165t100.5 -201t33.5 -218zM1554 717q0 138 -79 208t-222 70h-938q-143 0 -222 -70t-79 -208t79 -208.5
t222 -70.5h938q143 0 222 70.5t79 208.5z" />
    <glyph glyph-name="odieresis" unicode="&#xf6;" horiz-adv-x="1568" 
d="M989 1849q83 0 142 -58.5t59 -141.5q0 -85 -59 -144t-142 -59t-142 59t-59 144q0 83 59 141.5t142 58.5zM578 1849q83 0 141.5 -58.5t58.5 -141.5q0 -85 -58.5 -144t-141.5 -59t-142 59t-59 144q0 83 59 141.5t142 58.5zM1563 717q0 -111 -33.5 -218t-100.5 -201
t-159 -165t-217.5 -112t-268.5 -41q-177 0 -326.5 63t-246.5 167t-151 235.5t-54 271.5t54 271.5t151 235.5t246.5 167t326.5 63q143 0 268.5 -41t217.5 -112t159 -165t100.5 -201t33.5 -218zM1554 717q0 138 -79 208t-222 70h-938q-143 0 -222 -70t-79 -208t79 -208.5
t222 -70.5h938q143 0 222 70.5t79 208.5z" />
    <glyph glyph-name="divide" unicode="&#xf7;" horiz-adv-x="843" 
d="M401 1030q0 9 6 15t15 6q20 0 20 -21q0 -20 -20 -20q-21 0 -21 20zM82 711v12h680v-12h-680zM401 403q0 9 6 15t15 6q20 0 20 -21q0 -20 -20 -20q-21 0 -21 20z" />
    <glyph glyph-name="oslash" unicode="&#xf8;" horiz-adv-x="1568" 
d="M784 1454q131 0 248 -34.5t197 -88.5q33 -22 55 4l88 99h10l-86 -99q-29 -34 -2 -55q131 -114 200 -258.5t69 -304.5q0 -111 -33.5 -218t-100.5 -201t-159 -165t-217.5 -112t-268.5 -41q-132 0 -248 34t-196 88q-33 22 -55 -4l-88 -98h-11l86 98q30 35 2 56
q-131 113 -199.5 257.5t-68.5 305.5q0 140 54 271.5t151 235.5t246.5 167t326.5 63zM973 922l-377 -422q-24 -26 -16.5 -44t45.5 -18h628q143 0 222 70.5t79 208.5t-79 208t-222 70h-147q-70 0 -133 -73zM596 512l377 422q24 26 16.5 43.5t-45.5 17.5h-629q-143 0 -222 -70
t-79 -208t79 -208.5t222 -70.5h148q40 0 70.5 18.5t62.5 55.5z" />
    <glyph glyph-name="ugrave" unicode="&#xf9;" horiz-adv-x="1359" 
d="M700 1694l177 -246h-328q-105 0 -168 54t-62 147q0 73 48 123.5t129 50.5q114 0 204 -129zM883 633v801h471v-809q0 -154 -54.5 -278t-150 -203.5t-222 -121.5t-272.5 -42q-194 0 -339 72.5t-227.5 219t-82.5 353.5v809h8v-801q0 -139 34 -246t94 -171t137.5 -96
t169.5 -32q204 0 319 134t115 411z" />
    <glyph glyph-name="uacute" unicode="&#xfa;" horiz-adv-x="1359" 
d="M537 1694q90 129 204 129q81 0 129 -50.5t48 -123.5q1 -93 -62 -147t-168 -54h-328zM883 633v801h471v-809q0 -154 -54.5 -278t-150 -203.5t-222 -121.5t-272.5 -42q-194 0 -339 72.5t-227.5 219t-82.5 353.5v809h8v-801q0 -139 34 -246t94 -171t137.5 -96t169.5 -32
q204 0 319 134t115 411z" />
    <glyph glyph-name="ucircumflex" unicode="&#xfb;" horiz-adv-x="1359" 
d="M68 1446l612 395l612 -395h-528l-84 391l-84 -391h-528zM883 633v801h471v-809q0 -154 -54.5 -278t-150 -203.5t-222 -121.5t-272.5 -42q-194 0 -339 72.5t-227.5 219t-82.5 353.5v809h8v-801q0 -139 34 -246t94 -171t137.5 -96t169.5 -32q204 0 319 134t115 411z" />
    <glyph glyph-name="udieresis" unicode="&#xfc;" horiz-adv-x="1359" 
d="M846 1849q83 0 142 -58.5t59 -141.5q0 -85 -59 -144t-142 -59t-142 59t-59 144q0 83 59 141.5t142 58.5zM434 1849q83 0 142 -58.5t59 -141.5q0 -85 -59 -144t-142 -59t-142 59t-59 144q0 83 59 141.5t142 58.5zM883 633v801h471v-809q0 -154 -54.5 -278t-150 -203.5
t-222 -121.5t-272.5 -42q-194 0 -339 72.5t-227.5 219t-82.5 353.5v809h8v-801q0 -139 34 -246t94 -171t137.5 -96t169.5 -32q204 0 319 134t115 411z" />
    <glyph glyph-name="yacute" unicode="&#xfd;" horiz-adv-x="1822" 
d="M809 1694q90 129 205 129q81 0 128.5 -50.5t47.5 -123.5q1 -93 -61.5 -147t-167.5 -54h-328zM915 383v-383h-8v383q0 53 -28 86l-879 965h12l574 -631q28 -28 55 2l588 629h594l-879 -965q-29 -34 -29 -86z" />
    <glyph glyph-name="thorn" unicode="&#xfe;" horiz-adv-x="1437" 
d="M92 1098h858q482 0 482 -365q0 -159 -113 -257.5t-287 -98.5h-940q-43 0 -60.5 -21t-17.5 -65v-291h-8v1434h8v-250q0 -44 17.5 -65t60.5 -21zM1020 385q108 0 178 36.5t70 108.5q0 59 -49 94t-144 35h-975q-45 0 -65.5 -17t-20.5 -60v-111q0 -44 17.5 -65t60.5 -21h928z
" />
    <glyph glyph-name="ydieresis" unicode="&#xff;" horiz-adv-x="1822" 
d="M1116 1849q83 0 142 -58.5t59 -141.5q0 -85 -59 -144t-142 -59t-142 59t-59 144q0 83 59 141.5t142 58.5zM705 1849q83 0 141.5 -58.5t58.5 -141.5q0 -85 -58.5 -144t-141.5 -59t-142 59t-59 144q0 83 59 141.5t142 58.5zM915 383v-383h-8v383q0 53 -28 86l-879 965h12
l574 -631q28 -28 55 2l588 629h594l-879 -965q-29 -34 -29 -86z" />
    <glyph glyph-name="Amacron" unicode="&#x100;" horiz-adv-x="1634" 
d="M492 1542h643v-8h-643v8zM1380 434q-29 53 -90 53h-465q-60 0 -90 -55l-243 -432h-492l817 1454l817 -1454h-8zM1319 545l-234 411q-11 20 -30 20t-29 -20l-229 -411q-11 -20 -4 -34.5t30 -14.5h469q23 0 30.5 14.5t-3.5 34.5z" />
    <glyph glyph-name="amacron" unicode="&#x101;" horiz-adv-x="1634" 
d="M492 1542h643v-8h-643v8zM1380 434q-29 53 -90 53h-465q-60 0 -90 -55l-243 -432h-492l817 1454l817 -1454h-8zM1319 545l-234 411q-11 20 -30 20t-29 -20l-229 -411q-11 -20 -4 -34.5t30 -14.5h469q23 0 30.5 14.5t-3.5 34.5z" />
    <glyph glyph-name="Abreve" unicode="&#x102;" horiz-adv-x="1634" 
d="M1380 434q-29 53 -90 53h-465q-60 0 -90 -55l-243 -432h-492l813 1446q-104 1 -193.5 23.5t-161.5 66.5t-116 116t-51 165h422q0 -145 9.5 -221t32 -107t64.5 -31t64.5 31t32.5 107t10 221h422q-7 -94 -52 -166.5t-117.5 -116.5t-163 -66t-194.5 -22l813 -1446h-8z
M1319 545l-234 411q-11 20 -30 20t-29 -20l-229 -411q-11 -20 -4 -34.5t30 -14.5h469q23 0 30.5 14.5t-3.5 34.5z" />
    <glyph glyph-name="abreve" unicode="&#x103;" horiz-adv-x="1634" 
d="M1380 434q-29 53 -90 53h-465q-60 0 -90 -55l-243 -432h-492l813 1446q-104 1 -193.5 23.5t-161.5 66.5t-116 116t-51 165h422q0 -145 9.5 -221t32 -107t64.5 -31t64.5 31t32.5 107t10 221h422q-7 -94 -52 -166.5t-117.5 -116.5t-163 -66t-194.5 -22l813 -1446h-8z
M1319 545l-234 411q-11 20 -30 20t-29 -20l-229 -411q-11 -20 -4 -34.5t30 -14.5h469q23 0 30.5 14.5t-3.5 34.5z" />
    <glyph glyph-name="Aogonek" unicode="&#x104;" horiz-adv-x="1634" 
d="M1380 434q-29 53 -90 53h-465q-60 0 -90 -55l-243 -432h-492l817 1454l817 -1454h-4q-48 0 -81 -10t-33 -27q0 -16 21.5 -21t92.5 -5v-347q-137 0 -218 53.5t-81 149.5t89 152.5t204 58.5zM1319 545l-234 411q-11 20 -30 20t-29 -20l-229 -411q-11 -20 -4 -34.5t30 -14.5
h469q23 0 30.5 14.5t-3.5 34.5z" />
    <glyph glyph-name="aogonek" unicode="&#x105;" horiz-adv-x="1634" 
d="M1380 434q-29 53 -90 53h-465q-60 0 -90 -55l-243 -432h-492l817 1454l817 -1454h-4q-48 0 -81 -10t-33 -27q0 -16 21.5 -21t92.5 -5v-347q-137 0 -218 53.5t-81 149.5q0 97 90.5 154t202.5 57zM1319 545l-234 411q-11 20 -30 20t-29 -20l-229 -411q-11 -20 -4 -34.5
t30 -14.5h469q23 0 30.5 14.5t-3.5 34.5z" />
    <glyph glyph-name="Cacute" unicode="&#x106;" horiz-adv-x="1527" 
d="M961 1712q90 129 204 129q81 0 128.5 -50.5t47.5 -123.5q1 -93 -61.5 -147t-167.5 -54h-328zM14 717q0 -138 79 -208.5t222 -70.5h940q130 0 194 32.5t64 123.5h9q0 -138 -57.5 -255t-155 -194.5t-226 -121t-270.5 -43.5q-151 0 -282.5 41t-226 112t-163 165t-102 201
t-33.5 218t33.5 218t102 201t163 165t226 112t282.5 41q142 0 270.5 -43.5t226 -121t155 -194.5t57.5 -255h-9q0 47 -17.5 78.5t-53 47.5t-79.5 22.5t-108 6.5h-940q-143 0 -222 -70t-79 -208z" />
    <glyph glyph-name="cacute" unicode="&#x107;" horiz-adv-x="1527" 
d="M961 1712q90 129 204 129q81 0 128.5 -50.5t47.5 -123.5q1 -93 -61.5 -147t-167.5 -54h-328zM14 717q0 -138 79 -208.5t222 -70.5h940q130 0 194 32.5t64 123.5h9q0 -138 -57.5 -255t-155 -194.5t-226 -121t-270.5 -43.5q-151 0 -282.5 41t-226 112t-163 165t-102 201
t-33.5 218t33.5 218t102 201t163 165t226 112t282.5 41q142 0 270.5 -43.5t226 -121t155 -194.5t57.5 -255h-9q0 47 -17.5 78.5t-53 47.5t-79.5 22.5t-108 6.5h-940q-143 0 -222 -70t-79 -208z" />
    <glyph glyph-name="Ccircumflex" unicode="&#x108;" horiz-adv-x="1527" 
d="M188 1466l613 396l612 -396h-528l-84 392l-84 -392h-529zM14 717q0 -138 79 -208.5t222 -70.5h940q130 0 194 32.5t64 123.5h9q0 -138 -57.5 -255t-155 -194.5t-226 -121t-270.5 -43.5q-151 0 -282.5 41t-226 112t-163 165t-102 201t-33.5 218t33.5 218t102 201t163 165
t226 112t282.5 41q142 0 270.5 -43.5t226 -121t155 -194.5t57.5 -255h-9q0 47 -17.5 78.5t-53 47.5t-79.5 22.5t-108 6.5h-940q-143 0 -222 -70t-79 -208z" />
    <glyph glyph-name="ccircumflex" unicode="&#x109;" horiz-adv-x="1527" 
d="M188 1466l613 396l612 -396h-528l-84 392l-84 -392h-529zM14 717q0 -138 79 -208.5t222 -70.5h940q130 0 194 32.5t64 123.5h9q0 -138 -57.5 -255t-155 -194.5t-226 -121t-270.5 -43.5q-151 0 -282.5 41t-226 112t-163 165t-102 201t-33.5 218t33.5 218t102 201t163 165
t226 112t282.5 41q142 0 270.5 -43.5t226 -121t155 -194.5t57.5 -255h-9q0 47 -17.5 78.5t-53 47.5t-79.5 22.5t-108 6.5h-940q-143 0 -222 -70t-79 -208z" />
    <glyph glyph-name="Cdotaccent" unicode="&#x10a;" horiz-adv-x="1527" 
d="M811 1870q83 0 142 -59t59 -142q0 -85 -59 -144t-142 -59t-142 59t-59 144q0 83 59 142t142 59zM14 717q0 -138 79 -208.5t222 -70.5h940q130 0 194 32.5t64 123.5h9q0 -138 -57.5 -255t-155 -194.5t-226 -121t-270.5 -43.5q-151 0 -282.5 41t-226 112t-163 165t-102 201
t-33.5 218t33.5 218t102 201t163 165t226 112t282.5 41q142 0 270.5 -43.5t226 -121t155 -194.5t57.5 -255h-9q0 47 -17.5 78.5t-53 47.5t-79.5 22.5t-108 6.5h-940q-143 0 -222 -70t-79 -208z" />
    <glyph glyph-name="cdotaccent" unicode="&#x10b;" horiz-adv-x="1527" 
d="M811 1870q83 0 142 -59t59 -142q0 -85 -59 -144t-142 -59t-142 59t-59 144q0 83 59 142t142 59zM14 717q0 -138 79 -208.5t222 -70.5h940q130 0 194 32.5t64 123.5h9q0 -138 -57.5 -255t-155 -194.5t-226 -121t-270.5 -43.5q-151 0 -282.5 41t-226 112t-163 165t-102 201
t-33.5 218t33.5 218t102 201t163 165t226 112t282.5 41q142 0 270.5 -43.5t226 -121t155 -194.5t57.5 -255h-9q0 47 -17.5 78.5t-53 47.5t-79.5 22.5t-108 6.5h-940q-143 0 -222 -70t-79 -208z" />
    <glyph glyph-name="Ccaron" unicode="&#x10c;" horiz-adv-x="1527" 
d="M209 1862h528l84 -392l84 392h529l-613 -396zM14 717q0 -138 79 -208.5t222 -70.5h940q130 0 194 32.5t64 123.5h9q0 -138 -57.5 -255t-155 -194.5t-226 -121t-270.5 -43.5q-151 0 -282.5 41t-226 112t-163 165t-102 201t-33.5 218t33.5 218t102 201t163 165t226 112
t282.5 41q142 0 270.5 -43.5t226 -121t155 -194.5t57.5 -255h-9q0 47 -17.5 78.5t-53 47.5t-79.5 22.5t-108 6.5h-940q-143 0 -222 -70t-79 -208z" />
    <glyph glyph-name="ccaron" unicode="&#x10d;" horiz-adv-x="1527" 
d="M209 1862h528l84 -392l84 392h529l-613 -396zM14 717q0 -138 79 -208.5t222 -70.5h940q130 0 194 32.5t64 123.5h9q0 -138 -57.5 -255t-155 -194.5t-226 -121t-270.5 -43.5q-151 0 -282.5 41t-226 112t-163 165t-102 201t-33.5 218t33.5 218t102 201t163 165t226 112
t282.5 41q142 0 270.5 -43.5t226 -121t155 -194.5t57.5 -255h-9q0 47 -17.5 78.5t-53 47.5t-79.5 22.5t-108 6.5h-940q-143 0 -222 -70t-79 -208z" />
    <glyph glyph-name="Dcaron" unicode="&#x10e;" horiz-adv-x="1433" 
d="M14 1841h529l84 -391l84 391h528l-612 -395zM670 0h-664v1434h664q137 0 258.5 -39t211.5 -107.5t155.5 -158.5t98.5 -195.5t33 -216.5t-33 -216.5t-98.5 -195.5t-155.5 -158.5t-211.5 -107.5t-258.5 -39zM100 438h1039q280 0 280 279q0 278 -280 278h-1039
q-45 0 -65.5 -17t-20.5 -60v-402q0 -43 21 -60.5t65 -17.5z" />
    <glyph glyph-name="dcaron" unicode="&#x10f;" horiz-adv-x="1433" 
d="M14 1841h529l84 -391l84 391h528l-612 -395zM670 0h-664v1434h664q137 0 258.5 -39t211.5 -107.5t155.5 -158.5t98.5 -195.5t33 -216.5t-33 -216.5t-98.5 -195.5t-155.5 -158.5t-211.5 -107.5t-258.5 -39zM100 438h1039q280 0 280 279q0 278 -280 278h-1039
q-45 0 -65.5 -17t-20.5 -60v-402q0 -43 21 -60.5t65 -17.5z" />
    <glyph glyph-name="Dcroat" unicode="&#x110;" horiz-adv-x="1433" 
d="M670 0h-664v1434h664q137 0 258.5 -39t211.5 -107.5t155.5 -158.5t98.5 -195.5t33 -216.5t-33 -216.5t-98.5 -195.5t-155.5 -158.5t-211.5 -107.5t-258.5 -39zM100 438h1039q278 0 278 279q0 278 -278 278h-1039q-45 0 -65.5 -17t-20.5 -60v-111q0 -44 17.5 -65t60.5 -21
h580v-8h-580q-43 0 -60.5 -21t-17.5 -65v-111q0 -43 21 -60.5t65 -17.5z" />
    <glyph glyph-name="dcroat" unicode="&#x111;" horiz-adv-x="1433" 
d="M670 0h-664v1434h664q137 0 258.5 -39t211.5 -107.5t155.5 -158.5t98.5 -195.5t33 -216.5t-33 -216.5t-98.5 -195.5t-155.5 -158.5t-211.5 -107.5t-258.5 -39zM100 438h1039q278 0 278 279q0 278 -278 278h-1039q-45 0 -65.5 -17t-20.5 -60v-113q0 -44 17.5 -65t60.5 -21
h580v-8h-580q-43 0 -60.5 -21t-17.5 -65v-109q0 -43 21 -60.5t65 -17.5z" />
    <glyph glyph-name="Emacron" unicode="&#x112;" 
d="M399 1542h643v-8h-643v8zM1395 0h-1389v1434h1389v-439h-1295q-45 0 -65.5 -17t-20.5 -60v-111q0 -44 17.5 -65t60.5 -21h1303v-8h-1303q-43 0 -60.5 -21t-17.5 -65v-111q0 -43 21 -60.5t65 -17.5h1295v-438z" />
    <glyph glyph-name="emacron" unicode="&#x113;" 
d="M399 1542h643v-8h-643v8zM1395 0h-1389v1434h1389v-439h-1295q-45 0 -65.5 -17t-20.5 -60v-111q0 -44 17.5 -65t60.5 -21h1303v-8h-1303q-43 0 -60.5 -21t-17.5 -65v-111q0 -43 21 -60.5t65 -17.5h1295v-438z" />
    <glyph glyph-name="Ebreve" unicode="&#x114;" 
d="M721 1458q42 0 64.5 31t32 107t9.5 221h422q-7 -94 -52 -166.5t-117.5 -116.5t-163 -66t-195.5 -22t-195.5 22t-163 66t-117.5 116.5t-52 166.5h421q0 -145 10 -221t32.5 -107t64.5 -31zM1395 0h-1389v1434h1389v-439h-1295q-45 0 -65.5 -17t-20.5 -60v-111
q0 -44 17.5 -65t60.5 -21h1303v-8h-1303q-43 0 -60.5 -21t-17.5 -65v-111q0 -43 21 -60.5t65 -17.5h1295v-438z" />
    <glyph glyph-name="ebreve" unicode="&#x115;" 
d="M721 1458q42 0 64.5 31t32 107t9.5 221h422q-7 -94 -52 -166.5t-117.5 -116.5t-163 -66t-195.5 -22t-195.5 22t-163 66t-117.5 116.5t-52 166.5h421q0 -145 10 -221t32.5 -107t64.5 -31zM1395 0h-1389v1434h1389v-439h-1295q-45 0 -65.5 -17t-20.5 -60v-111
q0 -44 17.5 -65t60.5 -21h1303v-8h-1303q-43 0 -60.5 -21t-17.5 -65v-111q0 -43 21 -60.5t65 -17.5h1295v-438z" />
    <glyph glyph-name="Edotaccent" unicode="&#x116;" 
d="M721 1849q83 0 142 -58.5t59 -141.5q0 -85 -59 -144t-142 -59t-142 59t-59 144q0 83 59 141.5t142 58.5zM1395 0h-1389v1434h1389v-439h-1295q-45 0 -65.5 -17t-20.5 -60v-111q0 -44 17.5 -65t60.5 -21h1303v-8h-1303q-43 0 -60.5 -21t-17.5 -65v-111q0 -43 21 -60.5
t65 -17.5h1295v-438z" />
    <glyph glyph-name="edotaccent" unicode="&#x117;" 
d="M721 1849q83 0 142 -58.5t59 -141.5q0 -85 -59 -144t-142 -59t-142 59t-59 144q0 83 59 141.5t142 58.5zM1395 0h-1389v1434h1389v-439h-1295q-45 0 -65.5 -17t-20.5 -60v-111q0 -44 17.5 -65t60.5 -21h1303v-8h-1303q-43 0 -60.5 -21t-17.5 -65v-111q0 -43 21 -60.5
t65 -17.5h1295v-438z" />
    <glyph glyph-name="Eogonek" unicode="&#x118;" 
d="M100 438h1295v-438q-48 0 -81.5 -10t-33.5 -27q0 -15 21.5 -20.5t93.5 -5.5v-347q-137 0 -218 53.5t-81 149.5q0 86 69.5 140t169.5 67h-1329v1434h1389v-439h-1295q-45 0 -65.5 -17t-20.5 -60v-111q0 -44 17.5 -65t60.5 -21h1303v-8h-1303q-43 0 -60.5 -21t-17.5 -65
v-111q0 -43 21 -60.5t65 -17.5z" />
    <glyph glyph-name="eogonek" unicode="&#x119;" 
d="M1395 0h-17q-48 0 -81 -10t-33 -27q0 -16 21.5 -21t92.5 -5v-347q-137 0 -218 53.5t-81 149.5q0 86 70 140t170 67h-1313v1434h1389v-439h-1295q-45 0 -65.5 -17t-20.5 -60v-111q0 -44 17.5 -65t60.5 -21h1303v-8h-1303q-43 0 -60.5 -21t-17.5 -65v-111q0 -43 21 -60.5
t65 -17.5h1295v-438z" />
    <glyph glyph-name="Ecaron" unicode="&#x11a;" 
d="M109 1841h528l84 -391l84 391h528l-612 -395zM1395 0h-1389v1434h1389v-439h-1295q-45 0 -65.5 -17t-20.5 -60v-111q0 -44 17.5 -65t60.5 -21h1303v-8h-1303q-43 0 -60.5 -21t-17.5 -65v-111q0 -43 21 -60.5t65 -17.5h1295v-438z" />
    <glyph glyph-name="ecaron" unicode="&#x11b;" 
d="M109 1841h528l84 -391l84 391h528l-612 -395zM1395 0h-1389v1434h1389v-439h-1295q-45 0 -65.5 -17t-20.5 -60v-111q0 -44 17.5 -65t60.5 -21h1303v-8h-1303q-43 0 -60.5 -21t-17.5 -65v-111q0 -43 21 -60.5t65 -17.5h1295v-438z" />
    <glyph glyph-name="Gcircumflex" unicode="&#x11c;" horiz-adv-x="1527" 
d="M190 1462l613 396l612 -396h-528l-84 391l-84 -391h-529zM1436 713h-623v8h709v-721h-9v528q-24 -172 -126.5 -298t-250.5 -188t-323 -62q-151 0 -282.5 41t-226 112t-163 165t-102 201t-33.5 218t33.5 218t102 201t163 165t226 112t282.5 41q142 0 270.5 -43.5t226 -121
t155 -194.5t57.5 -255h-9q0 47 -17.5 78.5t-53 47.5t-79.5 22.5t-108 6.5h-940q-143 0 -222 -70t-79 -208t79 -208.5t222 -70.5h940q130 0 194 32.5t64 123.5v33q0 45 -17 65.5t-60 20.5z" />
    <glyph glyph-name="gcircumflex" unicode="&#x11d;" horiz-adv-x="1527" 
d="M190 1462l613 396l612 -396h-528l-84 391l-84 -391h-529zM1436 713h-623v8h709v-721h-9v528q-24 -172 -126.5 -298t-250.5 -188t-323 -62q-151 0 -282.5 41t-226 112t-163 165t-102 201t-33.5 218t33.5 218t102 201t163 165t226 112t282.5 41q142 0 270.5 -43.5t226 -121
t155 -194.5t57.5 -255h-9q0 47 -17.5 78.5t-53 47.5t-79.5 22.5t-108 6.5h-940q-143 0 -222 -70t-79 -208t79 -208.5t222 -70.5h940q130 0 194 32.5t64 123.5v33q0 45 -17 65.5t-60 20.5z" />
    <glyph glyph-name="Gbreve" unicode="&#x11e;" horiz-adv-x="1527" 
d="M811 1479q42 0 64.5 30.5t32.5 106.5t10 221h421q-7 -94 -52 -166.5t-117.5 -116.5t-163 -66t-195.5 -22t-195.5 22t-163 66t-117.5 116.5t-52 166.5h422q0 -145 9.5 -221t32 -106.5t64.5 -30.5zM1436 713h-623v8h709v-721h-9v528q-24 -172 -126.5 -298t-250.5 -188
t-323 -62q-151 0 -282.5 41t-226 112t-163 165t-102 201t-33.5 218t33.5 218t102 201t163 165t226 112t282.5 41q142 0 270.5 -43.5t226 -121t155 -194.5t57.5 -255h-9q0 47 -17.5 78.5t-53 47.5t-79.5 22.5t-108 6.5h-940q-143 0 -222 -70t-79 -208t79 -208.5t222 -70.5
h940q130 0 194 32.5t64 123.5v33q0 45 -17 65.5t-60 20.5z" />
    <glyph glyph-name="gbreve" unicode="&#x11f;" horiz-adv-x="1527" 
d="M811 1479q42 0 64.5 30.5t32.5 106.5t10 221h421q-7 -94 -52 -166.5t-117.5 -116.5t-163 -66t-195.5 -22t-195.5 22t-163 66t-117.5 116.5t-52 166.5h422q0 -145 9.5 -221t32 -106.5t64.5 -30.5zM1436 713h-623v8h709v-721h-9v528q-24 -172 -126.5 -298t-250.5 -188
t-323 -62q-151 0 -282.5 41t-226 112t-163 165t-102 201t-33.5 218t33.5 218t102 201t163 165t226 112t282.5 41q142 0 270.5 -43.5t226 -121t155 -194.5t57.5 -255h-9q0 47 -17.5 78.5t-53 47.5t-79.5 22.5t-108 6.5h-940q-143 0 -222 -70t-79 -208t79 -208.5t222 -70.5
h940q130 0 194 32.5t64 123.5v33q0 45 -17 65.5t-60 20.5z" />
    <glyph glyph-name="Gdotaccent" unicode="&#x120;" horiz-adv-x="1527" 
d="M811 1870q83 0 142 -59t59 -142q0 -85 -59 -144t-142 -59t-142 59t-59 144q0 83 59 142t142 59zM1436 713h-623v8h709v-721h-9v528q-24 -172 -126.5 -298t-250.5 -188t-323 -62q-151 0 -282.5 41t-226 112t-163 165t-102 201t-33.5 218t33.5 218t102 201t163 165t226 112
t282.5 41q142 0 270.5 -43.5t226 -121t155 -194.5t57.5 -255h-9q0 47 -17.5 78.5t-53 47.5t-79.5 22.5t-108 6.5h-940q-143 0 -222 -70t-79 -208t79 -208.5t222 -70.5h940q130 0 194 32.5t64 123.5v33q0 45 -17 65.5t-60 20.5z" />
    <glyph glyph-name="gdotaccent" unicode="&#x121;" horiz-adv-x="1527" 
d="M811 1870q83 0 142 -59t59 -142q0 -85 -59 -144t-142 -59t-142 59t-59 144q0 83 59 142t142 59zM1436 713h-623v8h709v-721h-9v528q-24 -172 -126.5 -298t-250.5 -188t-323 -62q-151 0 -282.5 41t-226 112t-163 165t-102 201t-33.5 218t33.5 218t102 201t163 165t226 112
t282.5 41q142 0 270.5 -43.5t226 -121t155 -194.5t57.5 -255h-9q0 47 -17.5 78.5t-53 47.5t-79.5 22.5t-108 6.5h-940q-143 0 -222 -70t-79 -208t79 -208.5t222 -70.5h940q130 0 194 32.5t64 123.5v33q0 45 -17 65.5t-60 20.5z" />
    <glyph glyph-name="uni0122" unicode="&#x122;" horiz-adv-x="1527" 
d="M1436 713h-623v8h709v-721h-9v528q-24 -172 -126.5 -298t-250.5 -188t-323 -62q-151 0 -282.5 41t-226 112t-163 165t-102 201t-33.5 218t33.5 218t102 201t163 165t226 112t282.5 41q142 0 270.5 -43.5t226 -121t155 -194.5t57.5 -255h-9q0 47 -17.5 78.5t-53 47.5
t-79.5 22.5t-108 6.5h-940q-143 0 -222 -70t-79 -208t79 -208.5t222 -70.5h940q130 0 194 32.5t64 123.5v33q0 45 -17 65.5t-60 20.5zM1018 -348h-402v315h420v-229q0 -108 -55.5 -172t-173.5 -64v9q56 0 96.5 13.5t63 38t33 44t18.5 45.5z" />
    <glyph glyph-name="uni0123" unicode="&#x123;" horiz-adv-x="1527" 
d="M1436 713h-623v8h709v-721h-9v528q-24 -172 -126.5 -298t-250.5 -188t-323 -62q-151 0 -282.5 41t-226 112t-163 165t-102 201t-33.5 218t33.5 218t102 201t163 165t226 112t282.5 41q142 0 270.5 -43.5t226 -121t155 -194.5t57.5 -255h-9q0 47 -17.5 78.5t-53 47.5
t-79.5 22.5t-108 6.5h-940q-143 0 -222 -70t-79 -208t79 -208.5t222 -70.5h940q130 0 194 32.5t64 123.5v33q0 45 -17 65.5t-60 20.5zM1018 -348h-402v315h420v-229q0 -108 -55.5 -172t-173.5 -64v9q56 0 96.5 13.5t63 38t33 44t18.5 45.5z" />
    <glyph glyph-name="Hcircumflex" unicode="&#x124;" 
d="M88 1446l612 395l613 -395h-529l-84 391l-84 -391h-528zM14 1434v-414q0 -44 17.5 -65t60.5 -21h1217q43 0 60 20.5t17 65.5v414h9v-1434h-9v410q0 45 -17 65.5t-60 20.5h-1217q-43 0 -60.5 -21t-17.5 -65v-410h-8v1434h8z" />
    <glyph glyph-name="hcircumflex" unicode="&#x125;" 
d="M88 1446l612 395l613 -395h-529l-84 391l-84 -391h-528zM14 1434v-414q0 -44 17.5 -65t60.5 -21h1217q43 0 60 20.5t17 65.5v414h9v-1434h-9v410q0 45 -17 65.5t-60 20.5h-1217q-43 0 -60.5 -21t-17.5 -65v-410h-8v1434h8z" />
    <glyph glyph-name="Hbar" unicode="&#x126;" 
d="M14 1235q0 -44 17.5 -65t60.5 -21h1217q43 0 60 20.5t17 65.5v199h9v-1434h-9v410q0 45 -17 65.5t-60 20.5h-1217q-43 0 -60.5 -21t-17.5 -65v-410h-8v1434h8v-199zM1386 1055q0 45 -17 65.5t-60 20.5h-1217q-43 0 -60.5 -21t-17.5 -65v-35q0 -44 17.5 -65t60.5 -21h1217
q43 0 60 20.5t17 65.5v35z" />
    <glyph glyph-name="hbar" unicode="&#x127;" 
d="M14 1235q0 -44 17.5 -65t60.5 -21h1217q43 0 60 20.5t17 65.5v199h9v-1434h-9v410q0 45 -17 65.5t-60 20.5h-1217q-43 0 -60.5 -21t-17.5 -65v-410h-8v1434h8v-199zM1386 1055q0 45 -17 65.5t-60 20.5h-1217q-43 0 -60.5 -21t-17.5 -65v-35q0 -44 17.5 -65t60.5 -21h1217
q43 0 60 20.5t17 65.5v35z" />
    <glyph glyph-name="Itilde" unicode="&#x128;" horiz-adv-x="905" 
d="M899 1841q0 -185 -64.5 -290t-175.5 -105q-43 0 -75.5 20t-63.5 66l-92 141q-9 14 -14 21t-14.5 12.5t-22.5 5.5q-43 0 -56.5 -63.5t-13.5 -202.5h-301q-1 185 64 290t178 105q81 0 135 -82l94 -145q14 -21 25 -30t28 -9q42 0 55 62.5t13 203.5h301zM457 918v-402
q0 -43 21 -60.5t65 -17.5h356v-438h-893v438h356q45 0 66 17.5t21 60.5v402q0 43 -21 60t-66 17h-356v439h893v-439h-356q-45 0 -65.5 -17t-20.5 -60z" />
    <glyph glyph-name="itilde" unicode="&#x129;" horiz-adv-x="905" 
d="M899 1841q0 -185 -64.5 -290t-175.5 -105q-43 0 -75.5 20t-63.5 66l-92 141q-9 14 -14 21t-14.5 12.5t-22.5 5.5q-43 0 -56.5 -63.5t-13.5 -202.5h-301q-1 185 64 290t178 105q81 0 135 -82l94 -145q14 -21 25 -30t28 -9q42 0 55 62.5t13 203.5h301zM457 918v-402
q0 -43 21 -60.5t65 -17.5h356v-438h-893v438h356q45 0 66 17.5t21 60.5v402q0 43 -21 60t-66 17h-356v439h893v-439h-356q-45 0 -65.5 -17t-20.5 -60z" />
    <glyph glyph-name="Imacron" unicode="&#x12a;" horiz-adv-x="905" 
d="M131 1542h643v-8h-643v8zM457 918v-402q0 -43 21 -60.5t65 -17.5h356v-438h-893v438h356q45 0 66 17.5t21 60.5v402q0 43 -21 60t-66 17h-356v439h893v-439h-356q-45 0 -65.5 -17t-20.5 -60z" />
    <glyph glyph-name="imacron" unicode="&#x12b;" horiz-adv-x="905" 
d="M131 1542h643v-8h-643v8zM457 918v-402q0 -43 21 -60.5t65 -17.5h356v-438h-893v438h356q45 0 66 17.5t21 60.5v402q0 43 -21 60t-66 17h-356v439h893v-439h-356q-45 0 -65.5 -17t-20.5 -60z" />
    <glyph glyph-name="Ibreve" unicode="&#x12c;" horiz-adv-x="905" 
d="M453 1458q42 0 64.5 31t32 107t9.5 221h422q-7 -94 -52 -166.5t-117.5 -116.5t-163 -66t-195.5 -22t-196 22t-163.5 66t-117.5 116.5t-52 166.5h422q0 -145 10 -221t32.5 -107t64.5 -31zM457 918v-402q0 -43 21 -60.5t65 -17.5h356v-438h-893v438h356q45 0 66 17.5
t21 60.5v402q0 43 -21 60t-66 17h-356v439h893v-439h-356q-45 0 -65.5 -17t-20.5 -60z" />
    <glyph glyph-name="ibreve" unicode="&#x12d;" horiz-adv-x="905" 
d="M453 1458q42 0 64.5 31t32 107t9.5 221h422q-7 -94 -52 -166.5t-117.5 -116.5t-163 -66t-195.5 -22t-196 22t-163.5 66t-117.5 116.5t-52 166.5h422q0 -145 10 -221t32.5 -107t64.5 -31zM457 918v-402q0 -43 21 -60.5t65 -17.5h356v-438h-893v438h356q45 0 66 17.5
t21 60.5v402q0 43 -21 60t-66 17h-356v439h893v-439h-356q-45 0 -65.5 -17t-20.5 -60z" />
    <glyph glyph-name="Iogonek" unicode="&#x12e;" horiz-adv-x="905" 
d="M457 918v-402q0 -43 21 -60.5t65 -17.5h356v-438h-305q-48 0 -81.5 -10t-33.5 -27q0 -15 21.5 -20.5t93.5 -5.5v-347q-137 0 -218 53.5t-81 149.5q0 86 70 140t170 67h-529v438h356q45 0 66 17.5t21 60.5v402q0 43 -21 60t-66 17h-356v439h893v-439h-356q-45 0 -65.5 -17
t-20.5 -60z" />
    <glyph glyph-name="iogonek" unicode="&#x12f;" horiz-adv-x="905" 
d="M457 918v-402q0 -43 21 -60.5t65 -17.5h356v-438h-305q-48 0 -81.5 -10t-33.5 -27q0 -15 21.5 -20.5t93.5 -5.5v-347q-137 0 -218 53.5t-81 149.5q0 86 70 140t170 67h-529v438h356q45 0 66 17.5t21 60.5v402q0 43 -21 60t-66 17h-356v439h893v-439h-356q-45 0 -65.5 -17
t-20.5 -60z" />
    <glyph glyph-name="Idotaccent" unicode="&#x130;" horiz-adv-x="905" 
d="M453 1849q83 0 141.5 -58.5t58.5 -141.5q0 -85 -58.5 -144t-141.5 -59t-142 59t-59 144q0 83 59 141.5t142 58.5zM457 918v-402q0 -43 21 -60.5t65 -17.5h356v-438h-893v438h356q45 0 66 17.5t21 60.5v402q0 43 -21 60t-66 17h-356v439h893v-439h-356q-45 0 -65.5 -17
t-20.5 -60z" />
    <glyph glyph-name="Jcircumflex" unicode="&#x134;" horiz-adv-x="1298" 
d="M680 1446l612 395l613 -395h-529l-84 391l-84 -391h-528zM1282 717v717h10v-840q0 -150 -47.5 -267.5t-133.5 -193t-203 -114.5t-259 -39t-259 39t-203 114.5t-133.5 193t-47.5 267.5h8q0 -42 10.5 -71t28 -45.5t49.5 -25.5t63.5 -11.5t82.5 -2.5h796q131 0 184.5 66.5
t53.5 212.5z" />
    <glyph glyph-name="jcircumflex" unicode="&#x135;" horiz-adv-x="1298" 
d="M680 1446l612 395l613 -395h-529l-84 391l-84 -391h-528zM1282 717v717h10v-840q0 -150 -47.5 -267.5t-133.5 -193t-203 -114.5t-259 -39t-259 39t-203 114.5t-133.5 193t-47.5 267.5h8q0 -42 10.5 -71t28 -45.5t49.5 -25.5t63.5 -11.5t82.5 -2.5h796q131 0 184.5 66.5
t53.5 212.5z" />
    <glyph glyph-name="uni0136" unicode="&#x136;" horiz-adv-x="1472" 
d="M86 844l713 590h674l-785 -635q-25 -21 -24 -45.5t24 -44.5l782 -709h-12l-778 705q-49 46 -96 8l-549 -445q-21 -18 -21 -49v-219h-8v1434h8v-572q0 -33 20.5 -38.5t51.5 20.5zM831 -328h-401v316h420v-230q0 -108 -55.5 -171.5t-173.5 -63.5v8q56 0 96.5 13.5t62.5 38
t32.5 44t18.5 45.5z" />
    <glyph glyph-name="uni0137" unicode="&#x137;" horiz-adv-x="1472" 
d="M86 844l713 590h674l-785 -635q-25 -21 -24 -45.5t24 -44.5l782 -709h-12l-778 705q-49 46 -96 8l-549 -445q-21 -18 -21 -49v-219h-8v1434h8v-572q0 -33 20.5 -38.5t51.5 20.5zM831 -328h-401v316h420v-230q0 -108 -55.5 -171.5t-173.5 -63.5v8q56 0 96.5 13.5t62.5 38
t32.5 44t18.5 45.5z" />
    <glyph glyph-name="Lacute" unicode="&#x139;" 
d="M184 1694q90 129 205 129q81 0 128.5 -50.5t47.5 -123.5q1 -93 -61.5 -147t-167.5 -54h-328zM14 1434v-918q0 -43 21 -60.5t65 -17.5h1295v-438h-1389v1434h8z" />
    <glyph glyph-name="lacute" unicode="&#x13a;" 
d="M184 1694q90 129 205 129q81 0 128.5 -50.5t47.5 -123.5q1 -93 -61.5 -147t-167.5 -54h-328zM14 1434v-918q0 -43 21 -60.5t65 -17.5h1295v-438h-1389v1434h8z" />
    <glyph glyph-name="uni013B" unicode="&#x13b;" 
d="M14 1434v-918q0 -43 21 -60.5t65 -17.5h1295v-438h-1389v1434h8zM891 -328h-402v316h420v-230q0 -108 -55.5 -171.5t-173.5 -63.5v8q56 0 96.5 13.5t63 38t33 44t18.5 45.5z" />
    <glyph glyph-name="uni013C" unicode="&#x13c;" 
d="M14 1434v-918q0 -43 21 -60.5t65 -17.5h1295v-438h-1389v1434h8zM891 -328h-402v316h420v-230q0 -108 -55.5 -171.5t-173.5 -63.5v8q56 0 96.5 13.5t63 38t33 44t18.5 45.5z" />
    <glyph glyph-name="Lcaron" unicode="&#x13d;" 
d="M915 1073l-245 -176v328q0 105 53.5 167t146.5 62q73 0 123.5 -47.5t50.5 -128.5q0 -115 -129 -205zM14 1434v-918q0 -43 21 -60.5t65 -17.5h1295v-438h-1389v1434h8z" />
    <glyph glyph-name="lcaron" unicode="&#x13e;" 
d="M915 1073l-245 -176v328q0 105 53.5 167t146.5 62q73 0 123.5 -47.5t50.5 -128.5q0 -115 -129 -205zM14 1434v-918q0 -43 21 -60.5t65 -17.5h1295v-438h-1389v1434h8z" />
    <glyph glyph-name="Ldot" unicode="&#x13f;" 
d="M14 1434v-918q0 -43 21 -60.5t65 -17.5h1295v-438h-1389v1434h8zM756 1120q83 0 141.5 -58.5t58.5 -141.5q0 -85 -58.5 -144t-141.5 -59t-142 59t-59 144q0 83 59 141.5t142 58.5z" />
    <glyph glyph-name="ldot" unicode="&#x140;" 
d="M14 1434v-918q0 -43 21 -60.5t65 -17.5h1295v-438h-1389v1434h8zM756 1120q83 0 141.5 -58.5t58.5 -141.5q0 -85 -58.5 -144t-141.5 -59t-142 59t-59 144q0 83 59 141.5t142 58.5z" />
    <glyph glyph-name="Lslash" unicode="&#x141;" 
d="M14 653v-137q0 -43 21 -60.5t65 -17.5h1295v-438h-1389v1434h8v-623q0 -38 18.5 -46.5t59.5 9.5l600 252v-10l-600 -252q-42 -17 -60 -43t-18 -68z" />
    <glyph glyph-name="lslash" unicode="&#x142;" 
d="M14 653v-137q0 -43 21 -60.5t65 -17.5h1295v-438h-1389v1434h8v-623q0 -38 18.5 -46.5t59.5 9.5l600 252v-10l-600 -252q-42 -17 -60 -43t-18 -68z" />
    <glyph glyph-name="Nacute" unicode="&#x143;" horiz-adv-x="1505" 
d="M649 1694q90 129 205 129q81 0 128.5 -50.5t47.5 -123.5q1 -93 -61.5 -147t-167.5 -54h-328zM6 1458l959 -944q23 -21 43 -15t20 33v902h471v-1459l-958 945q-23 21 -43.5 14.5t-20.5 -33.5v-901h-471v1458z" />
    <glyph glyph-name="nacute" unicode="&#x144;" horiz-adv-x="1505" 
d="M649 1694q90 129 205 129q81 0 128.5 -50.5t47.5 -123.5q1 -93 -61.5 -147t-167.5 -54h-328zM6 1458l959 -944q23 -21 43 -15t20 33v902h471v-1459l-958 945q-23 21 -43.5 14.5t-20.5 -33.5v-901h-471v1458z" />
    <glyph glyph-name="uni0145" unicode="&#x145;" horiz-adv-x="1505" 
d="M6 1458l959 -944q23 -21 43 -15t20 33v902h471v-1459l-958 945q-23 21 -43.5 14.5t-20.5 -33.5v-901h-471v1458zM1108 -328h-401v316h419v-230q0 -108 -55.5 -171.5t-173.5 -63.5v8q56 0 96.5 13.5t63 38t33 44t18.5 45.5z" />
    <glyph glyph-name="uni0146" unicode="&#x146;" horiz-adv-x="1505" 
d="M6 1458l959 -944q23 -21 43 -15t20 33v902h471v-1459l-958 945q-23 21 -43.5 14.5t-20.5 -33.5v-901h-471v1458zM1108 -328h-401v316h419v-230q0 -108 -55.5 -171.5t-173.5 -63.5v8q56 0 96.5 13.5t63 38t33 44t18.5 45.5z" />
    <glyph glyph-name="Ncaron" unicode="&#x147;" horiz-adv-x="1505" 
d="M139 1841h529l84 -391l84 391h528l-612 -395zM6 1458l959 -944q23 -21 43 -15t20 33v902h471v-1459l-958 945q-23 21 -43.5 14.5t-20.5 -33.5v-901h-471v1458z" />
    <glyph glyph-name="ncaron" unicode="&#x148;" horiz-adv-x="1505" 
d="M139 1841h529l84 -391l84 391h528l-612 -395zM6 1458l959 -944q23 -21 43 -15t20 33v902h471v-1459l-958 945q-23 21 -43.5 14.5t-20.5 -33.5v-901h-471v1458z" />
    <glyph glyph-name="Eng" unicode="&#x14a;" horiz-adv-x="1505" 
d="M1491 -14l-950 934q-23 21 -43.5 14.5t-20.5 -33.5v-901h-471v1458l959 -944q23 -21 43 -15t20 33v902h471v-1418q0 -224 -106 -324t-308 -100q-185 0 -298 105.5t-113 279.5h8q10 -42 46 -54.5t110 -12.5h491q82 0 118.5 14t43.5 62z" />
    <glyph glyph-name="eng" unicode="&#x14b;" horiz-adv-x="1505" 
d="M1491 -14l-950 934q-23 21 -43.5 14.5t-20.5 -33.5v-901h-471v1458l959 -944q23 -21 43 -15t20 33v902h471v-1418q0 -224 -106 -324t-308 -100q-185 0 -298 105.5t-113 279.5h8q10 -42 46 -54.5t110 -12.5h491q82 0 118.5 14t43.5 62z" />
    <glyph glyph-name="Omacron" unicode="&#x14c;" horiz-adv-x="1568" 
d="M463 1542h643v-8h-643v8zM1563 717q0 -111 -33.5 -218t-100.5 -201t-159 -165t-217.5 -112t-268.5 -41q-177 0 -326.5 63t-246.5 167t-151 235.5t-54 271.5t54 271.5t151 235.5t246.5 167t326.5 63q143 0 268.5 -41t217.5 -112t159 -165t100.5 -201t33.5 -218zM1554 717
q0 138 -79 208t-222 70h-938q-143 0 -222 -70t-79 -208t79 -208.5t222 -70.5h938q143 0 222 70.5t79 208.5z" />
    <glyph glyph-name="omacron" unicode="&#x14d;" horiz-adv-x="1568" 
d="M463 1542h643v-8h-643v8zM1563 717q0 -111 -33.5 -218t-100.5 -201t-159 -165t-217.5 -112t-268.5 -41q-177 0 -326.5 63t-246.5 167t-151 235.5t-54 271.5t54 271.5t151 235.5t246.5 167t326.5 63q143 0 268.5 -41t217.5 -112t159 -165t100.5 -201t33.5 -218zM1554 717
q0 138 -79 208t-222 70h-938q-143 0 -222 -70t-79 -208t79 -208.5t222 -70.5h938q143 0 222 70.5t79 208.5z" />
    <glyph glyph-name="Obreve" unicode="&#x14e;" horiz-adv-x="1568" 
d="M784 1479q42 0 64.5 30.5t32.5 106.5t10 221h422q-7 -94 -52 -166.5t-117.5 -116.5t-163.5 -66t-196 -22t-195.5 22t-163 66t-117.5 116.5t-52 166.5h422q0 -145 9.5 -221t32 -106.5t64.5 -30.5zM1563 717q0 -111 -33.5 -218t-100.5 -201t-159 -165t-217.5 -112
t-268.5 -41q-177 0 -326.5 63t-246.5 167t-151 235.5t-54 271.5t54 271.5t151 235.5t246.5 167t326.5 63q143 0 268.5 -41t217.5 -112t159 -165t100.5 -201t33.5 -218zM1554 717q0 138 -79 208t-222 70h-938q-143 0 -222 -70t-79 -208t79 -208.5t222 -70.5h938
q143 0 222 70.5t79 208.5z" />
    <glyph glyph-name="obreve" unicode="&#x14f;" horiz-adv-x="1568" 
d="M784 1479q42 0 64.5 30.5t32.5 106.5t10 221h422q-7 -94 -52 -166.5t-117.5 -116.5t-163.5 -66t-196 -22t-195.5 22t-163 66t-117.5 116.5t-52 166.5h422q0 -145 9.5 -221t32 -106.5t64.5 -30.5zM1563 717q0 -111 -33.5 -218t-100.5 -201t-159 -165t-217.5 -112
t-268.5 -41q-177 0 -326.5 63t-246.5 167t-151 235.5t-54 271.5t54 271.5t151 235.5t246.5 167t326.5 63q143 0 268.5 -41t217.5 -112t159 -165t100.5 -201t33.5 -218zM1554 717q0 138 -79 208t-222 70h-938q-143 0 -222 -70t-79 -208t79 -208.5t222 -70.5h938
q143 0 222 70.5t79 208.5z" />
    <glyph glyph-name="Ohungarumlaut" unicode="&#x150;" horiz-adv-x="1568" 
d="M537 1714q90 129 204 129q81 0 129 -50.5t48 -123.5q1 -93 -62 -147t-168 -54h-328zM1008 1714q90 129 204 129q81 0 129 -50.5t48 -123.5q1 -93 -62 -147t-168 -54h-328zM1563 717q0 -111 -33.5 -218t-100.5 -201t-159 -165t-217.5 -112t-268.5 -41q-177 0 -326.5 63
t-246.5 167t-151 235.5t-54 271.5t54 271.5t151 235.5t246.5 167t326.5 63q143 0 268.5 -41t217.5 -112t159 -165t100.5 -201t33.5 -218zM1554 717q0 138 -79 208t-222 70h-938q-143 0 -222 -70t-79 -208t79 -208.5t222 -70.5h938q143 0 222 70.5t79 208.5z" />
    <glyph glyph-name="ohungarumlaut" unicode="&#x151;" horiz-adv-x="1568" 
d="M537 1714q90 129 204 129q81 0 129 -50.5t48 -123.5q1 -93 -62 -147t-168 -54h-328zM1008 1714q90 129 204 129q81 0 129 -50.5t48 -123.5q1 -93 -62 -147t-168 -54h-328zM1563 717q0 -111 -33.5 -218t-100.5 -201t-159 -165t-217.5 -112t-268.5 -41q-177 0 -326.5 63
t-246.5 167t-151 235.5t-54 271.5t54 271.5t151 235.5t246.5 167t326.5 63q143 0 268.5 -41t217.5 -112t159 -165t100.5 -201t33.5 -218zM1554 717q0 138 -79 208t-222 70h-938q-143 0 -222 -70t-79 -208t79 -208.5t222 -70.5h938q143 0 222 70.5t79 208.5z" />
    <glyph glyph-name="OE" unicode="&#x152;" horiz-adv-x="2813" 
d="M764 1434h2044v-439h-1295q-45 0 -65.5 -17t-20.5 -60v-111q0 -44 17.5 -65t60.5 -21h1303v-8h-1303q-43 0 -60.5 -21t-17.5 -65v-111q0 -43 21 -60.5t65 -17.5h1295v-438h-2044q-171 0 -315.5 60t-240 160t-149 229t-53.5 268t53.5 268t149 229t240 160t315.5 60z
M1333 995h-1038q-281 0 -281 -278q0 -279 281 -279h1038q44 0 65 17.5t21 60.5v402q0 43 -20.5 60t-65.5 17z" />
    <glyph glyph-name="oe" unicode="&#x153;" horiz-adv-x="2813" 
d="M764 1434h2044v-439h-1295q-45 0 -65.5 -17t-20.5 -60v-113q0 -44 17.5 -65t60.5 -21h1108v-8h-1108q-43 0 -60.5 -21t-17.5 -65v-109q0 -43 21 -60.5t65 -17.5h1295v-438h-2044q-171 0 -315.5 60t-240 160t-149 229t-53.5 268t53.5 268t149 229t240 160t315.5 60z
M1333 995h-1038q-279 0 -279 -278q0 -279 279 -279h1038q44 0 65 17.5t21 60.5v402q0 43 -20.5 60t-65.5 17z" />
    <glyph glyph-name="Racute" unicode="&#x154;" horiz-adv-x="1468" 
d="M635 1694q90 129 205 129q81 0 128.5 -50.5t47.5 -123.5q1 -93 -62 -147t-168 -54h-327zM844 659l624 -659h-12l-629 664q-27 29 -54.5 39t-74.5 10h-606q-43 0 -60.5 -21t-17.5 -65v-627h-8v1434h983q233 0 356 -87.5t123 -277.5q0 -160 -111.5 -258t-285.5 -98h-201
q-27 0 -34.5 -18.5t8.5 -35.5zM92 721h967q107 0 176.5 36.5t69.5 108.5q0 59 -48 94t-143 35h-1014q-45 0 -65.5 -17t-20.5 -60v-111q0 -44 17.5 -65t60.5 -21z" />
    <glyph glyph-name="racute" unicode="&#x155;" horiz-adv-x="1468" 
d="M635 1694q90 129 205 129q81 0 128.5 -50.5t47.5 -123.5q1 -93 -62 -147t-168 -54h-327zM844 659l624 -659h-12l-629 664q-27 29 -54.5 39t-74.5 10h-606q-43 0 -60.5 -21t-17.5 -65v-627h-8v1434h983q233 0 356 -87.5t123 -277.5q0 -160 -111.5 -258t-285.5 -98h-201
q-27 0 -34.5 -18.5t8.5 -35.5zM92 721h967q107 0 176.5 36.5t69.5 108.5q0 59 -48 94t-143 35h-1014q-45 0 -65.5 -17t-20.5 -60v-111q0 -44 17.5 -65t60.5 -21z" />
    <glyph glyph-name="uni0156" unicode="&#x156;" horiz-adv-x="1468" 
d="M844 659l624 -659h-12l-629 664q-27 29 -54.5 39t-74.5 10h-606q-43 0 -60.5 -21t-17.5 -65v-627h-8v1434h983q233 0 356 -87.5t123 -277.5q0 -160 -111.5 -258t-285.5 -98h-201q-27 0 -34.5 -18.5t8.5 -35.5zM92 721h967q107 0 176.5 36.5t69.5 108.5q0 59 -48 94
t-143 35h-1014q-45 0 -65.5 -17t-20.5 -60v-111q0 -44 17.5 -65t60.5 -21zM848 -328h-402v316h420v-230q0 -108 -55.5 -171.5t-173.5 -63.5v8q56 0 96.5 13.5t63 38t33 44t18.5 45.5z" />
    <glyph glyph-name="uni0157" unicode="&#x157;" horiz-adv-x="1468" 
d="M844 659l624 -659h-12l-629 664q-27 29 -54.5 39t-74.5 10h-606q-43 0 -60.5 -21t-17.5 -65v-627h-8v1434h983q233 0 356 -87.5t123 -277.5q0 -160 -111.5 -258t-285.5 -98h-201q-27 0 -34.5 -18.5t8.5 -35.5zM92 721h967q107 0 176.5 36.5t69.5 108.5q0 59 -48 94
t-143 35h-1014q-45 0 -65.5 -17t-20.5 -60v-111q0 -44 17.5 -65t60.5 -21zM848 -328h-402v316h420v-230q0 -108 -55.5 -171.5t-173.5 -63.5v8q56 0 96.5 13.5t63 38t33 44t18.5 45.5z" />
    <glyph glyph-name="Rcaron" unicode="&#x158;" horiz-adv-x="1468" 
d="M125 1841h528l84 -391l84 391h529l-613 -395zM844 659l624 -659h-12l-629 664q-27 29 -54.5 39t-74.5 10h-606q-43 0 -60.5 -21t-17.5 -65v-627h-8v1434h983q233 0 356 -87.5t123 -277.5q0 -160 -111.5 -258t-285.5 -98h-201q-27 0 -34.5 -18.5t8.5 -35.5zM92 721h967
q107 0 176.5 36.5t69.5 108.5q0 59 -48 94t-143 35h-1014q-45 0 -65.5 -17t-20.5 -60v-111q0 -44 17.5 -65t60.5 -21z" />
    <glyph glyph-name="rcaron" unicode="&#x159;" horiz-adv-x="1468" 
d="M125 1841h528l84 -391l84 391h529l-613 -395zM844 659l624 -659h-12l-629 664q-27 29 -54.5 39t-74.5 10h-606q-43 0 -60.5 -21t-17.5 -65v-627h-8v1434h983q233 0 356 -87.5t123 -277.5q0 -160 -111.5 -258t-285.5 -98h-201q-27 0 -34.5 -18.5t8.5 -35.5zM92 721h967
q107 0 176.5 36.5t69.5 108.5q0 59 -48 94t-143 35h-1014q-45 0 -65.5 -17t-20.5 -60v-111q0 -44 17.5 -65t60.5 -21z" />
    <glyph glyph-name="Sacute" unicode="&#x15a;" horiz-adv-x="1527" 
d="M866 1714q90 129 205 129q81 0 128.5 -50.5t47.5 -123.5q1 -93 -61.5 -147t-167.5 -54h-328zM758 1454q222 0 394 -73.5t269 -214t97 -326.5h-9q0 47 -17.5 78.5t-53 47.5t-79.5 22.5t-108 6.5h-964q-93 0 -140 -35.5t-47 -97.5q0 -141 191 -141h946q141 0 213 -63.5
t72 -176.5q0 -220 -207.5 -360.5t-536.5 -140.5q-221 0 -395.5 73.5t-275.5 214t-101 326.5h8q0 -91 64 -123.5t194 -32.5h969q93 0 139.5 35.5t46.5 97.5q0 142 -190 142h-946q-140 0 -212.5 67t-72.5 181q0 107 61.5 200t164 156.5t239.5 100t287 36.5z" />
    <glyph glyph-name="sacute" unicode="&#x15b;" horiz-adv-x="1527" 
d="M866 1714q90 129 205 129q81 0 128.5 -50.5t47.5 -123.5q1 -93 -61.5 -147t-167.5 -54h-328zM758 1454q222 0 394 -73.5t269 -214t97 -326.5h-9q0 47 -17.5 78.5t-53 47.5t-79.5 22.5t-108 6.5h-964q-93 0 -140 -35.5t-47 -97.5q0 -141 191 -141h946q141 0 213 -63.5
t72 -176.5q0 -220 -207.5 -360.5t-536.5 -140.5q-221 0 -395.5 73.5t-275.5 214t-101 326.5h8q0 -91 64 -123.5t194 -32.5h969q93 0 139.5 35.5t46.5 97.5q0 142 -190 142h-946q-140 0 -212.5 67t-72.5 181q0 107 61.5 200t164 156.5t239.5 100t287 36.5z" />
    <glyph glyph-name="Scircumflex" unicode="&#x15c;" horiz-adv-x="1527" 
d="M152 1462l612 396l612 -396h-528l-84 391l-84 -391h-528zM758 1454q222 0 394 -73.5t269 -214t97 -326.5h-9q0 47 -17.5 78.5t-53 47.5t-79.5 22.5t-108 6.5h-964q-93 0 -140 -35.5t-47 -97.5q0 -141 191 -141h946q141 0 213 -63.5t72 -176.5q0 -220 -207.5 -360.5
t-536.5 -140.5q-221 0 -395.5 73.5t-275.5 214t-101 326.5h8q0 -91 64 -123.5t194 -32.5h969q93 0 139.5 35.5t46.5 97.5q0 142 -190 142h-946q-140 0 -212.5 67t-72.5 181q0 107 61.5 200t164 156.5t239.5 100t287 36.5z" />
    <glyph glyph-name="scircumflex" unicode="&#x15d;" horiz-adv-x="1527" 
d="M152 1462l612 396l612 -396h-528l-84 391l-84 -391h-528zM758 1454q222 0 394 -73.5t269 -214t97 -326.5h-9q0 47 -17.5 78.5t-53 47.5t-79.5 22.5t-108 6.5h-964q-93 0 -140 -35.5t-47 -97.5q0 -141 191 -141h946q141 0 213 -63.5t72 -176.5q0 -220 -207.5 -360.5
t-536.5 -140.5q-221 0 -395.5 73.5t-275.5 214t-101 326.5h8q0 -91 64 -123.5t194 -32.5h969q93 0 139.5 35.5t46.5 97.5q0 142 -190 142h-946q-140 0 -212.5 67t-72.5 181q0 107 61.5 200t164 156.5t239.5 100t287 36.5z" />
    <glyph glyph-name="uni015E" unicode="&#x15e;" horiz-adv-x="1527" 
d="M1049 -197q0 115 -177 115q-89 0 -170 -20l48 82q-214 5 -382 80t-265 213.5t-97 320.5h8q0 -91 64 -123.5t194 -32.5h969q93 0 139.5 35.5t46.5 97.5q0 142 -190 142h-946q-140 0 -212.5 67t-72.5 181q0 107 61.5 200t164 156.5t239.5 100t287 36.5q222 0 394 -73.5
t269 -214t97 -326.5h-9q0 47 -17.5 78.5t-53 47.5t-79.5 22.5t-108 6.5h-964q-93 0 -140 -35.5t-47 -97.5q0 -141 191 -141h946q141 0 213 -63.5t72 -176.5q0 -220 -207.5 -360.5t-536.5 -140.5h-20l-39 -70q69 16 153 16q185 0 185 -123q0 -92 -79.5 -152.5t-219.5 -60.5
q-89 0 -169 30.5t-134 94.5t-54 148h430q0 -79 26 -122.5t89 -43.5q44 0 73.5 27.5t29.5 78.5z" />
    <glyph glyph-name="uni015F" unicode="&#x15f;" horiz-adv-x="1527" 
d="M1049 -197q0 115 -177 115q-89 0 -170 -20l48 82q-214 5 -382 80t-265 213.5t-97 320.5h8q0 -91 64 -123.5t194 -32.5h969q93 0 139.5 35.5t46.5 97.5q0 142 -190 142h-946q-140 0 -212.5 67t-72.5 181q0 107 61.5 200t164 156.5t239.5 100t287 36.5q222 0 394 -73.5
t269 -214t97 -326.5h-9q0 47 -17.5 78.5t-53 47.5t-79.5 22.5t-108 6.5h-964q-93 0 -140 -35.5t-47 -97.5q0 -141 191 -141h946q141 0 213 -63.5t72 -176.5q0 -220 -207.5 -360.5t-536.5 -140.5h-20l-39 -70q69 16 153 16q185 0 185 -123q0 -92 -79.5 -152.5t-219.5 -60.5
q-89 0 -169 30.5t-134 94.5t-54 148h430q0 -79 26 -122.5t89 -43.5q44 0 73.5 27.5t29.5 78.5z" />
    <glyph glyph-name="Scaron" unicode="&#x160;" horiz-adv-x="1527" 
d="M152 1862h528l84 -392l84 392h528l-612 -396zM758 1454q222 0 394 -73.5t269 -214t97 -326.5h-9q0 47 -17.5 78.5t-53 47.5t-79.5 22.5t-108 6.5h-964q-93 0 -140 -35.5t-47 -97.5q0 -141 191 -141h946q141 0 213 -63.5t72 -176.5q0 -220 -207.5 -360.5t-536.5 -140.5
q-221 0 -395.5 73.5t-275.5 214t-101 326.5h8q0 -91 64 -123.5t194 -32.5h969q93 0 139.5 35.5t46.5 97.5q0 142 -190 142h-946q-140 0 -212.5 67t-72.5 181q0 107 61.5 200t164 156.5t239.5 100t287 36.5z" />
    <glyph glyph-name="scaron" unicode="&#x161;" horiz-adv-x="1527" 
d="M152 1862h528l84 -392l84 392h528l-612 -396zM758 1454q222 0 394 -73.5t269 -214t97 -326.5h-9q0 47 -17.5 78.5t-53 47.5t-79.5 22.5t-108 6.5h-964q-93 0 -140 -35.5t-47 -97.5q0 -141 191 -141h946q141 0 213 -63.5t72 -176.5q0 -220 -207.5 -360.5t-536.5 -140.5
q-221 0 -395.5 73.5t-275.5 214t-101 326.5h8q0 -91 64 -123.5t194 -32.5h969q93 0 139.5 35.5t46.5 97.5q0 142 -190 142h-946q-140 0 -212.5 67t-72.5 181q0 107 61.5 200t164 156.5t239.5 100t287 36.5z" />
    <glyph glyph-name="Tcommaaccent" unicode="&#x162;" 
d="M985 -197q0 115 -176 115q-89 0 -170 -20l57 102v918q0 43 -20.5 60t-65.5 17h-604v439h1389v-439h-604q-45 0 -65.5 -17t-20.5 -60v-918l-50 -90q69 16 154 16q184 0 184 -123q0 -92 -79.5 -152.5t-219.5 -60.5q-89 0 -168.5 30.5t-133.5 94.5t-54 148h430
q0 -79 26 -122.5t89 -43.5q44 0 73 27.5t29 78.5z" />
    <glyph glyph-name="tcommaaccent" unicode="&#x163;" 
d="M985 -197q0 115 -176 115q-89 0 -170 -20l57 102v918q0 43 -20.5 60t-65.5 17h-604v439h1389v-439h-604q-45 0 -65.5 -17t-20.5 -60v-918l-50 -90q69 16 154 16q184 0 184 -123q0 -92 -79.5 -152.5t-219.5 -60.5q-89 0 -168.5 30.5t-133.5 94.5t-54 148h430
q0 -79 26 -122.5t89 -43.5q44 0 73 27.5t29 78.5z" />
    <glyph glyph-name="Tcaron" unicode="&#x164;" 
d="M88 1841h528l84 -391l84 391h529l-613 -395zM1395 1434v-439h-604q-45 0 -65.5 -17t-20.5 -60v-918h-9v918q0 43 -20.5 60t-65.5 17h-604v439h1389z" />
    <glyph glyph-name="tcaron" unicode="&#x165;" 
d="M88 1841h528l84 -391l84 391h529l-613 -395zM1395 1434v-439h-604q-45 0 -65.5 -17t-20.5 -60v-918h-9v918q0 43 -20.5 60t-65.5 17h-604v439h1389z" />
    <glyph glyph-name="Tbar" unicode="&#x166;" 
d="M705 625v-625h-9v625q0 44 -17.5 65t-60.5 21h-278v8h278q43 0 60.5 21t17.5 65v113q0 43 -20.5 60t-65.5 17h-604v439h1389v-439h-604q-45 0 -65.5 -17t-20.5 -60v-113q0 -45 17 -65.5t60 -20.5h279v-8h-279q-43 0 -60 -20.5t-17 -65.5z" />
    <glyph glyph-name="tbar" unicode="&#x167;" 
d="M705 625v-617h-9v617q0 44 -17.5 65t-60.5 21h-278v8h278q43 0 60.5 21t17.5 65v113q0 43 -20.5 60t-65.5 17h-604v439h1389v-439h-604q-45 0 -65.5 -17t-20.5 -60v-113q0 -45 17 -65.5t60 -20.5h279v-8h-279q-43 0 -60 -20.5t-17 -65.5z" />
    <glyph glyph-name="Utilde" unicode="&#x168;" horiz-adv-x="1359" 
d="M1294 1841q0 -185 -89 -290t-242 -105q-60 0 -105 20t-86 66l-125 141q-31 39 -74 39q-58 0 -76 -62.5t-18 -203.5h-413q-1 185 87.5 290t241.5 105q114 0 187 -82l129 -145q34 -39 73 -39q25 0 42 12.5t27.5 33t16 56t7.5 72.5t2 92h415zM883 633v801h471v-809
q0 -154 -54.5 -278t-150 -203.5t-222 -121.5t-272.5 -42q-194 0 -339 72.5t-227.5 219t-82.5 353.5v809h8v-801q0 -139 34 -246t94 -171t137.5 -96t169.5 -32q204 0 319 134t115 411z" />
    <glyph glyph-name="utilde" unicode="&#x169;" horiz-adv-x="1359" 
d="M1294 1841q0 -185 -89 -290t-242 -105q-60 0 -105 20t-86 66l-125 141q-31 39 -74 39q-58 0 -76 -62.5t-18 -203.5h-413q-1 185 87.5 290t241.5 105q114 0 187 -82l129 -145q34 -39 73 -39q25 0 42 12.5t27.5 33t16 56t7.5 72.5t2 92h415zM883 633v801h471v-809
q0 -154 -54.5 -278t-150 -203.5t-222 -121.5t-272.5 -42q-194 0 -339 72.5t-227.5 219t-82.5 353.5v809h8v-801q0 -139 34 -246t94 -171t137.5 -96t169.5 -32q204 0 319 134t115 411z" />
    <glyph glyph-name="Umacron" unicode="&#x16a;" horiz-adv-x="1359" 
d="M317 1542h644v-8h-644v8zM883 633v801h471v-809q0 -154 -54.5 -278t-150 -203.5t-222 -121.5t-272.5 -42q-194 0 -339 72.5t-227.5 219t-82.5 353.5v809h8v-801q0 -139 34 -246t94 -171t137.5 -96t169.5 -32q204 0 319 134t115 411z" />
    <glyph glyph-name="umacron" unicode="&#x16b;" horiz-adv-x="1359" 
d="M317 1542h644v-8h-644v8zM883 633v801h471v-809q0 -154 -54.5 -278t-150 -203.5t-222 -121.5t-272.5 -42q-194 0 -339 72.5t-227.5 219t-82.5 353.5v809h8v-801q0 -139 34 -246t94 -171t137.5 -96t169.5 -32q204 0 319 134t115 411z" />
    <glyph glyph-name="Ubreve" unicode="&#x16c;" horiz-adv-x="1359" 
d="M639 1458q42 0 64.5 31t32 107t9.5 221h422q-7 -94 -52 -166.5t-117.5 -116.5t-163 -66t-195.5 -22t-195.5 22t-163 66t-117.5 116.5t-52 166.5h421q0 -145 10 -221t32.5 -107t64.5 -31zM883 633v801h471v-809q0 -154 -54.5 -278t-150 -203.5t-222 -121.5t-272.5 -42
q-194 0 -339 72.5t-227.5 219t-82.5 353.5v809h8v-801q0 -139 34 -246t94 -171t137.5 -96t169.5 -32q204 0 319 134t115 411z" />
    <glyph glyph-name="ubreve" unicode="&#x16d;" horiz-adv-x="1359" 
d="M639 1458q42 0 64.5 31t32 107t9.5 221h422q-7 -94 -52 -166.5t-117.5 -116.5t-163 -66t-195.5 -22t-195.5 22t-163 66t-117.5 116.5t-52 166.5h421q0 -145 10 -221t32.5 -107t64.5 -31zM883 633v801h471v-809q0 -154 -54.5 -278t-150 -203.5t-222 -121.5t-272.5 -42
q-194 0 -339 72.5t-227.5 219t-82.5 353.5v809h8v-801q0 -139 34 -246t94 -171t137.5 -96t169.5 -32q204 0 319 134t115 411z" />
    <glyph glyph-name="Uring" unicode="&#x16e;" horiz-adv-x="1359" 
d="M862 1667q0 -94 -64.5 -157.5t-158.5 -63.5q-93 0 -158 64t-65 157q0 92 65.5 156.5t157.5 64.5q94 0 158.5 -64.5t64.5 -156.5zM854 1667q0 91 -62 152t-153 61q-90 0 -152.5 -61.5t-62.5 -151.5t62.5 -151.5t152.5 -61.5q91 0 153 61t62 152zM883 633v801h471v-809
q0 -154 -54.5 -278t-150 -203.5t-222 -121.5t-272.5 -42q-194 0 -339 72.5t-227.5 219t-82.5 353.5v809h8v-801q0 -139 34 -246t94 -171t137.5 -96t169.5 -32q204 0 319 134t115 411z" />
    <glyph glyph-name="uring" unicode="&#x16f;" horiz-adv-x="1359" 
d="M862 1667q0 -94 -64.5 -157.5t-158.5 -63.5q-93 0 -158 64t-65 157q0 92 65.5 156.5t157.5 64.5q94 0 158.5 -64.5t64.5 -156.5zM854 1667q0 91 -62 152t-153 61q-90 0 -152.5 -61.5t-62.5 -151.5t62.5 -151.5t152.5 -61.5q91 0 153 61t62 152zM883 633v801h471v-809
q0 -154 -54.5 -278t-150 -203.5t-222 -121.5t-272.5 -42q-194 0 -339 72.5t-227.5 219t-82.5 353.5v809h8v-801q0 -139 34 -246t94 -171t137.5 -96t169.5 -32q204 0 319 134t115 411z" />
    <glyph glyph-name="Uhungarumlaut" unicode="&#x170;" horiz-adv-x="1359" 
d="M301 1694q90 129 205 129q81 0 128.5 -50.5t47.5 -123.5q1 -93 -61.5 -147t-167.5 -54h-328zM772 1694q90 129 205 129q81 0 128.5 -50.5t47.5 -123.5q1 -93 -61.5 -147t-167.5 -54h-328zM883 633v801h471v-809q0 -154 -54.5 -278t-150 -203.5t-222 -121.5t-272.5 -42
q-194 0 -339 72.5t-227.5 219t-82.5 353.5v809h8v-801q0 -139 34 -246t94 -171t137.5 -96t169.5 -32q204 0 319 134t115 411z" />
    <glyph glyph-name="uhungarumlaut" unicode="&#x171;" horiz-adv-x="1359" 
d="M301 1694q90 129 205 129q81 0 128.5 -50.5t47.5 -123.5q1 -93 -61.5 -147t-167.5 -54h-328zM772 1694q90 129 205 129q81 0 128.5 -50.5t47.5 -123.5q1 -93 -61.5 -147t-167.5 -54h-328zM883 633v801h471v-809q0 -154 -54.5 -278t-150 -203.5t-222 -121.5t-272.5 -42
q-194 0 -339 72.5t-227.5 219t-82.5 353.5v809h8v-801q0 -139 34 -246t94 -171t137.5 -96t169.5 -32q204 0 319 134t115 411z" />
    <glyph glyph-name="Uogonek" unicode="&#x172;" horiz-adv-x="1359" 
d="M1354 625q0 -105 -25 -195.5t-64.5 -152t-92 -111.5t-102.5 -79.5t-102 -50.5t-83.5 -29t-53.5 -11q-61 -8 -61 -33q0 -15 21.5 -20.5t93.5 -5.5v-347q-137 0 -218 53.5t-81 149.5q0 71 52.5 121t139.5 74q-66 -8 -123 -8q-194 0 -339 72.5t-227.5 219t-82.5 353.5v809h8
v-801q0 -139 34 -246t94 -171t137.5 -96t169.5 -32q204 0 319 134t115 411v801h471v-809z" />
    <glyph glyph-name="uogonek" unicode="&#x173;" horiz-adv-x="1359" 
d="M883 633v801h471v-809q0 -190 -82.5 -332t-220 -218t-314.5 -91q-16 -10 -16 -21q0 -15 21.5 -20.5t93.5 -5.5v-347q-137 0 -218 53.5t-81 149.5q0 66 44 114t115 73h-41q-194 0 -339 72.5t-227.5 219t-82.5 353.5v809h8v-801q0 -139 34 -246t94 -171t137.5 -96
t169.5 -32q204 0 319 134t115 411z" />
    <glyph glyph-name="Wcircumflex" unicode="&#x174;" horiz-adv-x="2412" 
d="M594 1446l612 395l613 -395h-529l-84 391l-84 -391h-528zM1233 719q-22 -36 -2 -74l92 -164q11 -19 29.5 -19.5t29.5 19.5l535 953h496l-818 -1454l-358 638q-12 21 -30 21t-29 -21l-361 -638l-817 1454h8l537 -953q11 -20 30 -20t29 20l332 592q22 36 2 74l-164 287h8
l150 -260q12 -21 30 -21t29 21l148 260h495z" />
    <glyph glyph-name="wcircumflex" unicode="&#x175;" horiz-adv-x="2412" 
d="M594 1446l612 395l613 -395h-529l-84 391l-84 -391h-528zM1233 719q-22 -36 -2 -74l92 -164q11 -19 29.5 -19.5t29.5 19.5l535 953h496l-818 -1454l-358 638q-12 21 -30 21t-29 -21l-361 -638l-817 1454h8l537 -953q11 -20 30 -20t29 20l332 592q22 36 2 74l-164 287h8
l150 -260q12 -21 30 -21t29 21l148 260h495z" />
    <glyph glyph-name="Ycircumflex" unicode="&#x176;" horiz-adv-x="1822" 
d="M299 1446l612 395l613 -395h-529l-84 391l-84 -391h-528zM915 383v-383h-8v383q0 53 -28 86l-879 965h12l574 -631q28 -28 55 2l588 629h594l-879 -965q-29 -34 -29 -86z" />
    <glyph glyph-name="ycircumflex" unicode="&#x177;" horiz-adv-x="1822" 
d="M299 1446l612 395l613 -395h-529l-84 391l-84 -391h-528zM915 383v-383h-8v383q0 53 -28 86l-879 965h12l574 -631q28 -28 55 2l588 629h594l-879 -965q-29 -34 -29 -86z" />
    <glyph glyph-name="Ydieresis" unicode="&#x178;" horiz-adv-x="1822" 
d="M1116 1849q83 0 142 -58.5t59 -141.5q0 -85 -59 -144t-142 -59t-142 59t-59 144q0 83 59 141.5t142 58.5zM705 1849q83 0 141.5 -58.5t58.5 -141.5q0 -85 -58.5 -144t-141.5 -59t-142 59t-59 144q0 83 59 141.5t142 58.5zM915 383v-383h-8v383q0 53 -28 86l-879 965h12
l574 -631q28 -28 55 2l588 629h594l-879 -965q-29 -34 -29 -86z" />
    <glyph glyph-name="Zacute" unicode="&#x179;" 
d="M639 1694q90 129 205 129q81 0 128.5 -50.5t47.5 -123.5q1 -93 -61.5 -147t-167.5 -54h-328zM1294 995h-1288v439h1389v-439l-1293 -528q-14 -6 -13.5 -17.5t17.5 -11.5h1289v-438h-1389v438l1292 529q14 6 13.5 17t-17.5 11z" />
    <glyph glyph-name="zacute" unicode="&#x17a;" 
d="M639 1694q90 129 205 129q81 0 128.5 -50.5t47.5 -123.5q1 -93 -61.5 -147t-167.5 -54h-328zM1294 995h-1288v439h1389v-439l-1293 -528q-14 -6 -13.5 -17.5t17.5 -11.5h1289v-438h-1389v438l1292 529q14 6 13.5 17t-17.5 11z" />
    <glyph glyph-name="Zdotaccent" unicode="&#x17b;" 
d="M700 1849q83 0 142 -58.5t59 -141.5q0 -85 -59 -144t-142 -59t-141.5 59t-58.5 144q0 83 58.5 141.5t141.5 58.5zM1294 995h-1288v439h1389v-439l-1293 -528q-14 -6 -13.5 -17.5t17.5 -11.5h1289v-438h-1389v438l1292 529q14 6 13.5 17t-17.5 11z" />
    <glyph glyph-name="zdotaccent" unicode="&#x17c;" 
d="M700 1849q83 0 142 -58.5t59 -141.5q0 -85 -59 -144t-142 -59t-141.5 59t-58.5 144q0 83 58.5 141.5t141.5 58.5zM1294 995h-1288v439h1389v-439l-1293 -528q-14 -6 -13.5 -17.5t17.5 -11.5h1289v-438h-1389v438l1292 529q14 6 13.5 17t-17.5 11z" />
    <glyph glyph-name="Zcaron" unicode="&#x17d;" 
d="M88 1841h528l84 -391l84 391h529l-613 -395zM1294 995h-1288v439h1389v-439l-1293 -528q-14 -6 -13.5 -17.5t17.5 -11.5h1289v-438h-1389v438l1292 529q14 6 13.5 17t-17.5 11z" />
    <glyph glyph-name="zcaron" unicode="&#x17e;" 
d="M88 1841h528l84 -391l84 391h529l-613 -395zM1294 995h-1288v439h1389v-439l-1293 -528q-14 -6 -13.5 -17.5t17.5 -11.5h1289v-438h-1389v438l1292 529q14 6 13.5 17t-17.5 11z" />
    <glyph glyph-name="uni0192" unicode="&#x192;" horiz-adv-x="1708" 
d="M391 -33q-51 0 -101 13t-102.5 45.5t-92 81.5t-64.5 128.5t-25 178.5h455q0 -172 25.5 -242t99.5 -70q45 0 77.5 36t57.5 122l147 512h-256v8h258l109 383q42 145 120.5 218t217.5 73q51 0 101 -12.5t102.5 -45t92 -81.5t64.5 -128.5t25 -178.5h-455q0 173 -25 242
t-100 69q-45 0 -77.5 -36t-57.5 -122l-108 -381h311v-8h-313l-148 -514q-42 -145 -120.5 -218t-217.5 -73z" />
    <glyph glyph-name="AEacute" unicode="&#x1fc;" horiz-adv-x="3000" 
d="M2249 1694q90 129 205 129q81 0 128.5 -50.5t47.5 -123.5q1 -93 -62 -147t-168 -54h-327zM2994 0h-1388v352q0 44 -17.5 65t-60.5 21h-414q-26 0 -41 -4.5t-35 -23.5l-424 -410h-614l1487 1434h1507v-439h-1294q-45 0 -65.5 -17t-20.5 -60v-111q0 -44 17.5 -65t60.5 -21
h1302v-8h-1302q-43 0 -60.5 -21t-17.5 -65v-111q0 -43 21 -60.5t65 -17.5h1294v-438zM1606 956l-484 -464q-14 -14 -10.5 -30t21.5 -16h395q43 0 60.5 21t17.5 65v424z" />
    <glyph glyph-name="aeacute" unicode="&#x1fd;" horiz-adv-x="3000" 
d="M2249 1694q90 129 205 129q81 0 128.5 -50.5t47.5 -123.5q1 -93 -62 -147t-168 -54h-327zM2994 0h-1388v352q0 44 -17.5 65t-60.5 21h-414q-26 0 -41 -4.5t-35 -23.5l-424 -410h-614l1487 1434h1507v-439h-1294q-45 0 -65.5 -17t-20.5 -60v-111q0 -44 17.5 -65t60.5 -21
h1302v-8h-1302q-43 0 -60.5 -21t-17.5 -65v-111q0 -43 21 -60.5t65 -17.5h1294v-438zM1606 956l-484 -464q-14 -14 -10.5 -30t21.5 -16h395q43 0 60.5 21t17.5 65v424z" />
    <glyph glyph-name="Oslashacute" unicode="&#x1fe;" horiz-adv-x="1568" 
d="M887 1714q90 129 205 129q81 0 128.5 -50.5t47.5 -123.5q1 -93 -62 -147t-168 -54h-327zM784 1454q131 0 248 -34.5t197 -88.5q33 -22 55 4l88 99h10l-86 -99q-29 -34 -2 -55q131 -114 200 -258.5t69 -304.5q0 -111 -33.5 -218t-100.5 -201t-159 -165t-217.5 -112
t-268.5 -41q-132 0 -248 34t-196 88q-33 22 -55 -4l-88 -98h-11l86 98q30 35 2 56q-131 113 -199.5 257.5t-68.5 305.5q0 140 54 271.5t151 235.5t246.5 167t326.5 63zM973 922l-377 -422q-24 -26 -16.5 -44t45.5 -18h628q142 0 220.5 70.5t78.5 208.5t-78 208t-221 70h-147
q-70 0 -133 -73zM596 512l377 422q24 26 16.5 43.5t-45.5 17.5h-629q-143 0 -221 -70t-78 -208t78.5 -208.5t220.5 -70.5h148q40 0 70.5 18.5t62.5 55.5z" />
    <glyph glyph-name="oslashacute" unicode="&#x1ff;" horiz-adv-x="1568" 
d="M887 1714q90 129 205 129q81 0 128.5 -50.5t47.5 -123.5q1 -93 -62 -147t-168 -54h-327zM784 1454q131 0 248 -34.5t197 -88.5q33 -22 55 4l88 99h10l-86 -99q-29 -34 -2 -55q131 -114 200 -258.5t69 -304.5q0 -111 -33.5 -218t-100.5 -201t-159 -165t-217.5 -112
t-268.5 -41q-132 0 -248 34t-196 88q-33 22 -55 -4l-88 -98h-11l86 98q30 35 2 56q-131 113 -199.5 257.5t-68.5 305.5q0 140 54 271.5t151 235.5t246.5 167t326.5 63zM973 922l-377 -422q-24 -26 -16.5 -44t45.5 -18h628q142 0 220.5 70.5t78.5 208.5t-78 208t-221 70h-147
q-70 0 -133 -73zM596 512l377 422q24 26 16.5 43.5t-45.5 17.5h-629q-143 0 -221 -70t-78 -208t78.5 -208.5t220.5 -70.5h148q40 0 70.5 18.5t62.5 55.5z" />
    <glyph glyph-name="uni0218" unicode="&#x218;" horiz-adv-x="1527" 
d="M758 1454q222 0 394 -73.5t269 -214t97 -326.5h-9q0 47 -17.5 78.5t-53 47.5t-79.5 22.5t-108 6.5h-964q-93 0 -140 -35.5t-47 -97.5q0 -141 191 -141h946q141 0 213 -63.5t72 -176.5q0 -220 -207.5 -360.5t-536.5 -140.5q-221 0 -395.5 73.5t-275.5 214t-101 326.5h8
q0 -91 64 -123.5t194 -32.5h969q93 0 139.5 35.5t46.5 97.5q0 142 -190 142h-946q-140 0 -212.5 67t-72.5 181q0 107 61.5 200t164 156.5t239.5 100t287 36.5zM956 -348h-401v315h420v-229q0 -108 -56 -172t-174 -64v9q56 0 96.5 13.5t63 38t33 44t18.5 45.5z" />
    <glyph glyph-name="uni0219" unicode="&#x219;" horiz-adv-x="1527" 
d="M758 1454q222 0 394 -73.5t269 -214t97 -326.5h-9q0 47 -17.5 78.5t-53 47.5t-79.5 22.5t-108 6.5h-964q-93 0 -140 -35.5t-47 -97.5q0 -141 191 -141h946q141 0 213 -63.5t72 -176.5q0 -220 -207.5 -360.5t-536.5 -140.5q-221 0 -395.5 73.5t-275.5 214t-101 326.5h8
q0 -91 64 -123.5t194 -32.5h969q93 0 139.5 35.5t46.5 97.5q0 142 -190 142h-946q-140 0 -212.5 67t-72.5 181q0 107 61.5 200t164 156.5t239.5 100t287 36.5zM956 -348h-401v315h420v-229q0 -108 -56 -172t-174 -64v9q56 0 96.5 13.5t63 38t33 44t18.5 45.5z" />
    <glyph glyph-name="uni021A" unicode="&#x21a;" 
d="M1395 1434v-439h-604q-45 0 -65.5 -17t-20.5 -60v-918h-9v918q0 43 -20.5 60t-65.5 17h-604v439h1389zM891 -328h-402v316h420v-230q0 -108 -55.5 -171.5t-173.5 -63.5v8q56 0 96.5 13.5t63 38t33 44t18.5 45.5z" />
    <glyph glyph-name="uni021B" unicode="&#x21b;" 
d="M1395 1434v-439h-604q-45 0 -65.5 -17t-20.5 -60v-918h-9v918q0 43 -20.5 60t-65.5 17h-604v439h1389zM891 -328h-402v316h420v-230q0 -108 -55.5 -171.5t-173.5 -63.5v8q56 0 96.5 13.5t63 38t33 44t18.5 45.5z" />
    <glyph glyph-name="circumflex" unicode="&#x2c6;" horiz-adv-x="1257" 
d="M16 1446l613 395l612 -395h-528l-84 391l-84 -391h-529z" />
    <glyph glyph-name="caron" unicode="&#x2c7;" horiz-adv-x="1257" 
d="M16 1841h529l84 -391l84 391h528l-612 -395z" />
    <glyph glyph-name="breve" unicode="&#x2d8;" horiz-adv-x="1257" 
d="M629 1458q42 0 64.5 31t32 107t9.5 221h422q-7 -94 -52 -166.5t-117.5 -116.5t-163 -66t-195.5 -22t-196 22t-163.5 66t-117.5 116.5t-52 166.5h422q0 -145 10 -221t32.5 -107t64.5 -31z" />
    <glyph glyph-name="dotaccent" unicode="&#x2d9;" horiz-adv-x="1257" 
d="M610 1849q83 0 142 -58.5t59 -141.5q0 -85 -59 -144t-142 -59t-141.5 59t-58.5 144q0 83 58.5 141.5t141.5 58.5z" />
    <glyph glyph-name="ring" unicode="&#x2da;" horiz-adv-x="1257" 
d="M852 1667q0 -94 -64.5 -157.5t-158.5 -63.5q-93 0 -158 64t-65 157q0 92 65.5 156.5t157.5 64.5q94 0 158.5 -64.5t64.5 -156.5zM844 1667q0 91 -62 152t-153 61q-90 0 -152.5 -61.5t-62.5 -151.5t62.5 -151.5t152.5 -61.5q91 0 153 61t62 152z" />
    <glyph glyph-name="ogonek" unicode="&#x2db;" horiz-adv-x="1257" 
d="M938 4v-4q-48 0 -81.5 -10t-33.5 -27q0 -15 21.5 -20.5t93.5 -5.5v-347q-137 0 -218 53.5t-81 149.5q0 66 46 115.5t113 72.5t140 23z" />
    <glyph glyph-name="tilde" unicode="&#x2dc;" horiz-adv-x="1257" 
d="M1243 1841q0 -185 -89.5 -290t-242.5 -105q-60 0 -104.5 20t-85.5 66l-125 141q-31 39 -74 39q-58 0 -76 -62.5t-18 -203.5h-414q-1 185 88 290t242 105q113 0 186 -82l129 -145q34 -39 74 -39q58 0 76 62.5t18 203.5h416z" />
    <glyph glyph-name="hungarumlaut" unicode="&#x2dd;" horiz-adv-x="1257" 
d="M291 1694q90 129 205 129q81 0 128.5 -50.5t47.5 -123.5q1 -93 -62 -147t-168 -54h-327zM762 1694q90 129 205 129q81 0 128.5 -50.5t47.5 -123.5q1 -93 -62 -147t-168 -54h-327z" />
    <glyph glyph-name="Wgrave" unicode="&#x1e80;" horiz-adv-x="2412" 
d="M1452 1694l176 -246h-328q-105 0 -167.5 54t-61.5 147q0 73 47.5 123.5t128.5 50.5q115 0 205 -129zM1233 719q-22 -36 -2 -74l92 -164q11 -19 29.5 -19.5t29.5 19.5l535 953h496l-818 -1454l-358 638q-12 21 -30 21t-29 -21l-361 -638l-817 1454h8l537 -953
q11 -20 30 -20t29 20l332 592q22 36 2 74l-164 287h8l150 -260q12 -21 30 -21t29 21l148 260h495z" />
    <glyph glyph-name="wgrave" unicode="&#x1e81;" horiz-adv-x="2412" 
d="M1452 1694l176 -246h-328q-105 0 -167.5 54t-61.5 147q0 73 47.5 123.5t128.5 50.5q115 0 205 -129zM1233 719q-22 -36 -2 -74l92 -164q11 -19 29.5 -19.5t29.5 19.5l535 953h496l-818 -1454l-358 638q-12 21 -30 21t-29 -21l-361 -638l-817 1454h8l537 -953
q11 -20 30 -20t29 20l332 592q22 36 2 74l-164 287h8l150 -260q12 -21 30 -21t29 21l148 260h495z" />
    <glyph glyph-name="Wacute" unicode="&#x1e82;" horiz-adv-x="2412" 
d="M1321 1694q90 129 205 129q81 0 128.5 -50.5t47.5 -123.5q1 -93 -61.5 -147t-167.5 -54h-328zM1233 719q-22 -36 -2 -74l92 -164q11 -19 29.5 -19.5t29.5 19.5l535 953h496l-818 -1454l-358 638q-12 21 -30 21t-29 -21l-361 -638l-817 1454h8l537 -953q11 -20 30 -20
t29 20l332 592q22 36 2 74l-164 287h8l150 -260q12 -21 30 -21t29 21l148 260h495z" />
    <glyph glyph-name="wacute" unicode="&#x1e83;" horiz-adv-x="2412" 
d="M1321 1694q90 129 205 129q81 0 128.5 -50.5t47.5 -123.5q1 -93 -61.5 -147t-167.5 -54h-328zM1233 719q-22 -36 -2 -74l92 -164q11 -19 29.5 -19.5t29.5 19.5l535 953h496l-818 -1454l-358 638q-12 21 -30 21t-29 -21l-361 -638l-817 1454h8l537 -953q11 -20 30 -20
t29 20l332 592q22 36 2 74l-164 287h8l150 -260q12 -21 30 -21t29 21l148 260h495z" />
    <glyph glyph-name="Wdieresis" unicode="&#x1e84;" horiz-adv-x="2412" 
d="M1524 1849q83 0 141.5 -58.5t58.5 -141.5q0 -85 -58.5 -144t-141.5 -59t-142 59t-59 144q0 83 59 141.5t142 58.5zM1112 1849q83 0 142 -58.5t59 -141.5q0 -85 -59 -144t-142 -59t-142 59t-59 144q0 83 59 141.5t142 58.5zM1233 719q-22 -36 -2 -74l92 -164
q11 -19 29.5 -19.5t29.5 19.5l535 953h496l-818 -1454l-358 638q-12 21 -30 21t-29 -21l-361 -638l-817 1454h8l537 -953q11 -20 30 -20t29 20l332 592q22 36 2 74l-164 287h8l150 -260q12 -21 30 -21t29 21l148 260h495z" />
    <glyph glyph-name="wdieresis" unicode="&#x1e85;" horiz-adv-x="2412" 
d="M1524 1849q83 0 141.5 -58.5t58.5 -141.5q0 -85 -58.5 -144t-141.5 -59t-142 59t-59 144q0 83 59 141.5t142 58.5zM1112 1849q83 0 142 -58.5t59 -141.5q0 -85 -59 -144t-142 -59t-142 59t-59 144q0 83 59 141.5t142 58.5zM1233 719q-22 -36 -2 -74l92 -164
q11 -19 29.5 -19.5t29.5 19.5l535 953h496l-818 -1454l-358 638q-12 21 -30 21t-29 -21l-361 -638l-817 1454h8l537 -953q11 -20 30 -20t29 20l332 592q22 36 2 74l-164 287h8l150 -260q12 -21 30 -21t29 21l148 260h495z" />
    <glyph glyph-name="Ygrave" unicode="&#x1ef2;" horiz-adv-x="1822" 
d="M1014 1694l176 -246h-328q-105 0 -167.5 54t-61.5 147q0 73 47.5 123.5t128.5 50.5q115 0 205 -129zM915 383v-383h-8v383q0 53 -28 86l-879 965h12l574 -631q28 -28 55 2l588 629h594l-879 -965q-29 -34 -29 -86z" />
    <glyph glyph-name="ygrave" unicode="&#x1ef3;" horiz-adv-x="1822" 
d="M1014 1694l176 -246h-328q-105 0 -167.5 54t-61.5 147q0 73 47.5 123.5t128.5 50.5q115 0 205 -129zM915 383v-383h-8v383q0 53 -28 86l-879 965h12l574 -631q28 -28 55 2l588 629h594l-879 -965q-29 -34 -29 -86z" />
    <glyph glyph-name="endash" unicode="&#x2013;" horiz-adv-x="763" 
d="M6 713v8h752v-8h-752z" />
    <glyph glyph-name="emdash" unicode="&#x2014;" horiz-adv-x="1583" 
d="M6 713v8h1571v-8h-1571z" />
    <glyph glyph-name="quoteleft" unicode="&#x2018;" horiz-adv-x="473" 
d="M14 1434h453v-439h-461v439q0 108 66.5 198.5t183.5 114.5v-8q-110 -22 -176 -110.5t-66 -194.5z" />
    <glyph glyph-name="quoteright" unicode="&#x2019;" horiz-adv-x="473" 
d="M459 995h-453v439h461v-439q0 -108 -66.5 -198.5t-183.5 -114.5v8q110 22 176 110.5t66 194.5z" />
    <glyph glyph-name="quotesinglbase" unicode="&#x201a;" horiz-adv-x="473" 
d="M459 0h-453v438h461v-438q0 -108 -66.5 -198.5t-183.5 -114.5v8q110 22 176 110.5t66 194.5z" />
    <glyph glyph-name="quotedblleft" unicode="&#x201c;" horiz-adv-x="944" 
d="M14 1434h453v-439h-461v439q0 108 66.5 198.5t183.5 114.5v-8q-110 -22 -176 -110.5t-66 -194.5zM485 1434h453v-439h-461v439q0 108 66.5 198.5t183.5 114.5v-8q-110 -22 -176 -110.5t-66 -194.5z" />
    <glyph glyph-name="quotedblright" unicode="&#x201d;" horiz-adv-x="944" 
d="M459 995h-453v439h461v-439q0 -108 -66.5 -198.5t-183.5 -114.5v8q110 22 176 110.5t66 194.5zM930 995h-453v439h461v-439q0 -108 -66.5 -198.5t-183.5 -114.5v8q110 22 176 110.5t66 194.5z" />
    <glyph glyph-name="quotedblbase" unicode="&#x201e;" horiz-adv-x="946" 
d="M932 0h-453v438h461v-438q0 -108 -66.5 -198.5t-183.5 -114.5v8q110 22 176 110.5t66 194.5zM459 0h-453v438h461v-438q0 -108 -66.5 -198.5t-183.5 -114.5v8q110 22 176 110.5t66 194.5z" />
    <glyph glyph-name="dagger" unicode="&#x2020;" horiz-adv-x="509" 
d="M6 1210h244v224h8v-224h246v-8h-246v-438h-8v438h-244v8z" />
    <glyph glyph-name="daggerdbl" unicode="&#x2021;" horiz-adv-x="509" 
d="M258 764h-8v223h-244v8h244v207h-244v8h244v224h8v-224h246v-8h-246v-207h246v-8h-246v-223z" />
    <glyph glyph-name="bullet" unicode="&#x2022;" horiz-adv-x="954" 
d="M477 1186q127 0 235.5 -63t172 -171t63.5 -235q0 -128 -63.5 -236.5t-172 -171.5t-235.5 -63q-195 0 -333 138t-138 333q0 127 63 235t171.5 171t236.5 63z" />
    <glyph glyph-name="ellipsis" unicode="&#x2026;" horiz-adv-x="1419" 
d="M1413 438v-438h-461v438h461zM940 438v-438h-461v438h461zM467 438v-438h-461v438h461z" />
    <glyph glyph-name="perthousand" unicode="&#x2030;" horiz-adv-x="1884" 
d="M6 1100q0 52 12.5 102t40 96t67.5 80.5t98.5 55t129.5 20.5q87 0 155.5 -31t109 -82.5t61 -113t20.5 -127.5t-20.5 -128t-61 -114t-109 -83.5t-155.5 -31.5q-71 0 -129.5 21t-98.5 56t-67.5 81t-40 96.5t-12.5 102.5zM1120 1434h10l-1073 -1434h-10zM692 1100
q0 25 -10 42t-22.5 25.5t-37 13t-39.5 5t-44 0.5h-369q-29 0 -44.5 -0.5t-40.5 -5t-38 -13t-23 -25.5t-10 -42q0 -21 5.5 -36.5t19.5 -25t25 -14.5t34.5 -7t34.5 -2.5t37 -0.5h367q26 0 37 0.5t34 2.5t34 7t25 14.5t19.5 25t5.5 36.5zM1878 338q0 -66 -20.5 -127.5
t-61 -113.5t-109 -83.5t-155.5 -31.5q-88 0 -157 31.5t-109.5 83.5t-61 113.5t-20.5 127.5q0 52 12.5 102t40 96t67.5 80.5t98.5 55t129.5 20.5q87 0 155.5 -31t109 -82.5t61 -113t20.5 -127.5zM825 -18q-88 0 -157 31.5t-109.5 83.5t-61 113.5t-20.5 127.5q0 52 12.5 102
t40 96t67.5 80.5t98.5 55t129.5 20.5q87 0 155.5 -31t109 -82.5t61 -113t20.5 -127.5t-20.5 -127.5t-61 -113.5t-109 -83.5t-155.5 -31.5zM1348 252h366q26 0 37 0.5t34.5 2.5t34.5 7t25 14.5t19.5 25t5.5 36.5q0 25 -10 42t-23 25.5t-37.5 13t-39.5 5t-44 0.5h-368
q-29 0 -44.5 -0.5t-40.5 -5t-38 -13t-23 -25.5t-10 -42q0 -21 5.5 -36.5t19.5 -25t25 -14.5t34.5 -7t34.5 -2.5t37 -0.5zM1008 252q26 0 37 0.5t34 2.5t34 7t25 14.5t19.5 25t5.5 36.5q0 25 -10 42t-22.5 25.5t-37 13t-39.5 5t-44 0.5h-369q-29 0 -44.5 -0.5t-40.5 -5
t-38 -13t-23 -25.5t-10 -42q0 -21 5.5 -36.5t19.5 -25t25 -14.5t34.5 -7t34.5 -2.5t37 -0.5h367z" />
    <glyph glyph-name="guilsinglleft" unicode="&#x2039;" horiz-adv-x="577" 
d="M6 711l565 567l-196 -567l196 -568z" />
    <glyph glyph-name="guilsinglright" unicode="&#x203a;" horiz-adv-x="577" 
d="M571 711l-565 -568l197 568l-197 567z" />
    <glyph glyph-name="Euro" unicode="&#x20ac;" horiz-adv-x="1527" 
d="M6 649v8h107q-2 20 -2 62q0 24 4 74h-109v8h109q28 288 234.5 470.5t504.5 182.5q190 0 341 -73.5t239 -214.5t88 -326h-9q0 47 -17.5 78.5t-53 47.5t-79.5 22.5t-108 6.5h-841q-111 0 -187 -48.5t-100 -145.5h924v-8h-926q-6 -35 -6 -74q0 -26 4 -62h928v-8h-926
q20 -104 97.5 -157.5t191.5 -53.5h841q130 0 194 32.5t64 123.5h9q0 -185 -88 -326t-239 -214.5t-341 -73.5q-199 0 -362.5 85.5t-263 238t-115.5 345.5h-107z" />
    <glyph glyph-name="trademark" unicode="&#x2122;" horiz-adv-x="1009" 
d="M6 1434h477v-136h-209q-26 0 -26 -22v-281h-8v281q0 22 -27 22h-207v136zM977 1421l-168 -432l-145 432q-3 9 -11 7t-8 -11v-422h-149v439h172l71 -213q1 -5 6 -5t7 5l75 213h177v-439h-9v422q0 9 -7.5 11t-10.5 -7z" />
    <glyph glyph-name="minus" unicode="&#x2212;" horiz-adv-x="843" 
d="M82 711v12h680v-12h-680z" />
    <glyph glyph-name="approxequal" unicode="&#x2248;" horiz-adv-x="843" 
d="M82 786q94 97 182 97q39 0 81.5 -15.5t74 -34t74 -34t81.5 -15.5q92 0 187 101v-17q-93 -96 -187 -96q-49 0 -102 24.5t-106.5 49t-102.5 24.5q-85 0 -182 -100v16zM82 582q93 96 182 96q49 0 102.5 -24.5t106.5 -49t102 -24.5q93 0 187 100v-16q-94 -97 -187 -97
q-49 0 -102 24.5t-106.5 49.5t-102.5 25q-84 0 -182 -101v17z" />
    <glyph glyph-name="notequal" unicode="&#x2260;" horiz-adv-x="843" 
d="M145 426l152 164h-215v12h225l215 234h-440v12h450l152 164h16l-151 -164h213v-12h-223l-215 -234h438v-12h-449l-151 -164h-17z" />
    <glyph glyph-name="lessequal" unicode="&#x2264;" horiz-adv-x="632" 
d="M61 766v16l510 275v-17l-495 -266l495 -266v-16zM61 387v12h510v-12h-510z" />
    <glyph glyph-name="greaterequal" unicode="&#x2265;" horiz-adv-x="632" 
d="M571 766l-510 -274v16l496 266l-496 266v17l510 -275v-16zM571 387h-510v12h510v-12z" />
    <glyph glyph-name="i.dot" horiz-adv-x="905" 
d="M453 1849q83 0 141.5 -58.5t58.5 -141.5q0 -85 -58.5 -144t-141.5 -59t-142 59t-59 144q0 83 59 141.5t142 58.5zM457 918v-402q0 -43 21 -60.5t65 -17.5h356v-438h-893v438h356q45 0 66 17.5t21 60.5v402q0 43 -21 60t-66 17h-356v439h893v-439h-356q-45 0 -65.5 -17
t-20.5 -60z" />
    <glyph glyph-name="caron.Slovak" horiz-adv-x="1257" 
d="M711 1073l-246 -176v328q0 105 54 167t147 62q73 0 123.5 -47.5t50.5 -128.5q0 -115 -129 -205z" />
    <glyph glyph-name="commaturn" horiz-adv-x="1257" 
d="M516 1761h402v-315h-420v229q0 108 55.5 172t173.5 64v-8q-56 0 -96.5 -13.5t-63 -38.5t-33 -44.5t-18.5 -45.5z" />
    <glyph glyph-name="uni00200326" horiz-adv-x="1257" 
d="M899 -328h-401v316h420v-230q0 -108 -55.5 -171.5t-174.5 -63.5v8q56 0 96.5 13.5t63 38t33 44t18.5 45.5z" />
    <glyph glyph-name="circumflex.cap" horiz-adv-x="1257" 
d="M16 1446l613 395l612 -395h-528l-84 391l-84 -391h-529z" />
    <glyph glyph-name="dieresis.cap" horiz-adv-x="1257" 
d="M756 1849q83 0 141.5 -58.5t58.5 -141.5q0 -85 -58.5 -144t-141.5 -59t-142 59t-59 144q0 83 59 141.5t142 58.5zM344 1849q83 0 142 -58.5t59 -141.5q0 -85 -59 -144t-142 -59t-142 59t-59 144q0 83 59 141.5t142 58.5z" />
    <glyph glyph-name="acute.cap" horiz-adv-x="1257" 
d="M526 1694q90 129 205 129q81 0 128.5 -50.5t47.5 -123.5q1 -93 -61.5 -147t-167.5 -54h-328z" />
    <glyph glyph-name="ring.cap" horiz-adv-x="1257" 
d="M852 1667q0 -94 -64.5 -157.5t-158.5 -63.5q-93 0 -158 64t-65 157q0 92 65.5 156.5t157.5 64.5q94 0 158.5 -64.5t64.5 -156.5zM844 1667q0 91 -62 152t-153 61q-90 0 -152.5 -61.5t-62.5 -151.5t62.5 -151.5t152.5 -61.5q91 0 153 61t62 152z" />
    <glyph glyph-name="cedillacmb" horiz-adv-x="0" 
d="M319 -197q0 115 -176 115q-89 0 -170 -20l66 116h8l-57 -104q69 16 153 16q185 0 185 -123q0 -92 -79.5 -152.5t-219.5 -60.5q-89 0 -169 30.5t-134 94.5t-54 148h430q0 -79 26 -122.5t89 -43.5q44 0 73 27.5t29 78.5z" />
    <glyph glyph-name="commaturncmb" horiz-adv-x="0" 
d="M-193 1761h404v-315h-422v229q0 108 55.5 172t175.5 64v-8q-46 0 -82 -10t-57.5 -24t-37.5 -35.5t-23 -37t-13 -35.5z" />
    <glyph glyph-name="hungarumlautcmb" horiz-adv-x="0" 
d="M-338 1694q90 129 205 129q81 0 128.5 -50.5t47.5 -123.5q1 -93 -61.5 -147t-167.5 -54h-328zM133 1694q90 129 205 129q81 0 128.5 -50.5t47.5 -123.5q1 -93 -61.5 -147t-167.5 -54h-328z" />
    <glyph glyph-name="dotaccent.cap" horiz-adv-x="1257" 
d="M610 1849q83 0 142 -58.5t59 -141.5q0 -85 -59 -144t-142 -59t-141.5 59t-58.5 144q0 83 58.5 141.5t141.5 58.5z" />
    <glyph glyph-name="dotaccentcmb" horiz-adv-x="0" 
d="M0 1849q83 0 142 -58.5t59 -141.5q0 -85 -59 -144t-142 -59t-142 59t-59 144q0 83 59 141.5t142 58.5z" />
    <glyph glyph-name="gravecmb" horiz-adv-x="0" 
d="M102 1694l177 -246h-328q-105 0 -168 54t-62 147q0 73 48 123.5t129 50.5q114 0 204 -129z" />
    <glyph glyph-name="acutecmb" horiz-adv-x="0" 
d="M-102 1694q90 129 204 129q81 0 129 -50.5t48 -123.5q1 -93 -62 -147t-168 -54h-328z" />
    <glyph glyph-name="caroncmb" horiz-adv-x="0" 
d="M-612 1841h528l84 -391l84 391h528l-612 -395z" />
    <glyph glyph-name="caron.cap" horiz-adv-x="1257" 
d="M16 1841h529l84 -391l84 391h528l-612 -395z" />
    <glyph glyph-name="ogonekcmb" horiz-adv-x="0" 
d="M150 4v-4q-48 0 -81.5 -10t-33.5 -27q0 -15 21.5 -20.5t93.5 -5.5v-347q-137 0 -218.5 54t-81.5 149q0 66 46.5 115.5t113 72.5t140.5 23z" />
    <glyph glyph-name="commaaccentcmb" horiz-adv-x="0" 
d="M193 -328h-404v316h422v-230q0 -108 -55.5 -171.5t-175.5 -63.5v8q56 0 97.5 13.5t64 38t33 44t18.5 45.5z" />
    <glyph glyph-name="dotbelow" horiz-adv-x="1257" 
d="M610 -12q83 0 142 -59t59 -142q0 -85 -59 -144t-142 -59t-141.5 59t-58.5 144q0 83 58.5 142t141.5 59z" />
    <glyph glyph-name="grave.cap" horiz-adv-x="1257" 
d="M731 1694l176 -246h-327q-105 0 -168 54t-62 147q0 73 47.5 123.5t128.5 50.5q115 0 205 -129z" />
    <glyph glyph-name="brevecmb" horiz-adv-x="0" 
d="M0 1458q42 0 64.5 31t32 107t9.5 221h422q-7 -94 -52 -166.5t-117.5 -116.5t-163 -66t-195.5 -22t-195.5 22t-163 66t-117.5 116.5t-52 166.5h422q0 -145 9.5 -221t32 -107t64.5 -31z" />
    <glyph glyph-name="circumflexcmb" horiz-adv-x="0" 
d="M-612 1446l612 395l612 -395h-528l-84 391l-84 -391h-528z" />
    <glyph glyph-name="macroncmb" horiz-adv-x="0" 
d="M-322 1542h644v-8h-644v8z" />
    <glyph glyph-name="tilde.cap" horiz-adv-x="1257" 
d="M1243 1841q0 -185 -89.5 -290t-242.5 -105q-60 0 -104.5 20t-85.5 66l-125 141q-31 39 -74 39q-58 0 -76 -62.5t-18 -203.5h-414q-1 185 88 290t242 105q113 0 186 -82l129 -145q34 -39 74 -39q58 0 76 62.5t18 203.5h416z" />
    <glyph glyph-name="commaaboverightcmb" horiz-adv-x="0" 
d="M59 1073l-247 -176v328q0 105 54 167t148 62q73 0 123.5 -47.5t50.5 -128.5q0 -115 -129 -205z" />
    <glyph glyph-name="CR" horiz-adv-x="512" 
 />
    <glyph glyph-name="dieresiscmb" horiz-adv-x="0" 
d="M207 1849q83 0 142 -58.5t59 -141.5q0 -85 -59 -144t-142 -59t-142 59t-59 144q0 83 59 141.5t142 58.5zM-207 1849q83 0 142 -58.5t59 -141.5q0 -85 -59 -144t-142 -59t-142 59t-59 144q0 83 59 141.5t142 58.5z" />
    <glyph glyph-name="hungarumlaut.cap" horiz-adv-x="1257" 
d="M291 1694q90 129 205 129q81 0 128.5 -50.5t47.5 -123.5q1 -93 -62 -147t-168 -54h-327zM762 1694q90 129 205 129q81 0 128.5 -50.5t47.5 -123.5q1 -93 -62 -147t-168 -54h-327z" />
    <glyph glyph-name="breve.cap" horiz-adv-x="1257" 
d="M629 1458q42 0 64.5 31t32 107t9.5 221h422q-7 -94 -52 -166.5t-117.5 -116.5t-163 -66t-195.5 -22t-196 22t-163.5 66t-117.5 116.5t-52 166.5h422q0 -145 10 -221t32.5 -107t64.5 -31z" />
    <glyph glyph-name="macron.cap" horiz-adv-x="1257" 
d="M307 1542h643v-8h-643v8z" />
    <glyph glyph-name="tildecmb" horiz-adv-x="0" 
d="M614 1841q0 -185 -89 -290t-242 -105q-60 0 -105 20t-86 66l-125 141q-31 39 -73 39q-25 0 -42 -12.5t-27.5 -33t-16 -56t-7.5 -72.5t-2 -92h-413q-1 185 87.5 290t241.5 105q114 0 187 -82l129 -145q34 -39 73 -39q25 0 42 12.5t27.5 33t16 56t7.5 72.5t2 92h415z" />
    <glyph glyph-name="ringcmb" horiz-adv-x="0" 
d="M223 1667q0 -94 -64.5 -157.5t-158.5 -63.5q-93 0 -158 64t-65 157q0 92 65.5 156.5t157.5 64.5q94 0 158.5 -64.5t64.5 -156.5zM215 1667q0 91 -62 152t-153 61q-90 0 -152.5 -61.5t-62.5 -151.5t62.5 -151.5t152.5 -61.5q91 0 153 61t62 152z" />
    </font>
</defs>
</svg>
